<?xml version="1.0" standalone="no"?>
<!DOCTYPE svg PUBLIC "-//W3C//DTD SVG 1.1//EN" "http://www.w3.org/Graphics/SVG/1.1/DTD/svg11.dtd" >
<svg xmlns="http://www.w3.org/2000/svg">
<metadata>Generated by IcoMoon</metadata>
<defs>
<font id="icomoon" horiz-adv-x="1024">
<font-face units-per-em="1024" ascent="960" descent="-64" />
<missing-glyph horiz-adv-x="1024" />
<glyph unicode="&#x20;" horiz-adv-x="512" d="" />
<glyph unicode="&#xe900;" glyph-name="eye-hidden" d="M504.206 610.175l146.585-146.585 0.698 7.678c0 77.016-62.589 139.605-139.605 139.605l-7.678-0.698zM511.884 703.941c128.436 0 232.675-104.239 232.675-232.675 0-30.015-6.049-58.634-16.519-84.925l136.115-136.115c70.267 58.634 125.644 134.485 159.847 221.040-80.737 204.287-279.209 349.012-512.116 349.012-65.15 0-127.505-11.633-185.441-32.574l100.515-100.282c26.289 10.237 54.908 16.519 84.923 16.519zM46.534 830.75l127.274-127.274c-76.783-60.030-137.511-139.838-173.808-232.208 80.506-204.287 279.209-349.012 511.884-349.012 72.13 0 141.001 13.96 204.056 39.323l19.778-19.778 135.65-135.881 59.332 59.099-824.834 825.063-59.332-59.332zM303.873 573.644l71.896-71.896c-2.094-10.006-3.49-20.009-3.49-30.48 0-77.016 62.589-139.605 139.605-139.605 10.47 0 20.476 1.396 30.248 3.49l71.896-71.896c-30.946-15.357-65.381-24.664-102.145-24.664-128.436 0-232.675 104.239-232.675 232.675 0 36.762 9.308 71.198 24.664 102.376z" />
<glyph unicode="&#xe901;" glyph-name="horse" horiz-adv-x="768" d="M735.744-60.288h-735.744v100.224h735.744v-100.224zM419.712 956.288c59.264 0 109.44-19.883 150.613-59.648 41.131-39.765 61.696-87.467 61.696-143.189v-610.901h-451.797c-21.376 0-39.083 7.168-53.077 21.461-13.995 14.336-21.419 31.445-22.187 51.328-0.853 19.883 6.144 36.992 20.949 51.285l254.293 243.413c11.52 12.757 18.517 27.435 20.992 44.16 2.475 16.683 0.427 32.213-6.187 46.507l-2.475 4.821c-8.235 11.136-19.755 18.347-34.56 21.504s-27.989 0.768-39.509-7.168l-108.629-69.248-106.155 100.267 153.088 221.867c18.091 27.093 41.557 47.829 70.357 62.080 28.8 14.293 59.648 21.461 92.587 21.461z" />
<glyph unicode="&#xe902;" glyph-name="queen" horiz-adv-x="896" d="M760.832 906.197c30.549 0 56.405-9.941 77.653-29.867 21.163-19.883 31.787-44.117 31.787-72.747 0-19.115-5.973-36.992-17.835-53.717-11.861-16.683-27.136-29.013-45.781-36.992l-99.243-324.523v-245.803h-544.555v245.76l-99.285 324.608c-18.645 7.979-33.92 20.309-45.824 36.992-11.776 16.683-17.749 34.56-17.749 53.675 0 28.587 10.581 52.907 31.787 72.789s47.104 29.824 77.653 29.824c30.507 0 56.363-9.941 77.568-29.867 21.205-19.883 31.829-43.349 31.829-70.4 0-27.008-9.344-49.28-27.989-66.773l152.661-155.136 27.989 188.544c-30.507 20.651-45.781 48.512-45.781 83.499 0 27.051 10.581 50.517 31.787 70.4s47.104 29.867 77.653 29.867c30.507 0 56.363-9.984 77.568-29.867s31.829-43.349 31.829-70.4c0-34.987-15.275-62.848-45.824-83.499l27.989-188.544 150.144 155.136c-16.981 19.072-25.429 40.533-25.429 64.427 0 28.587 10.581 52.907 31.787 72.789s47.061 29.824 77.653 29.824zM55.979 39.936h758.315v-100.224h-758.315v100.224z" />
<glyph unicode="&#xe903;" glyph-name="rook" horiz-adv-x="768" d="M0 47.616h735.744v-99.328h-735.744v99.328zM735.744 955.904v-302.763h-103.68v-503.808h-528.384v503.808h-103.68v302.763h103.68v-151.381h106.155v151.381h106.197v-151.381h103.68v151.381h106.155v-151.381h106.155v151.381h103.68z" />
<glyph unicode="&#xe904;" glyph-name="king" horiz-adv-x="896" d="M772.523-51.712h-673.536v99.328h673.579v-99.328zM677.589 553.813c52.736 0 97.963-19.712 135.637-59.136s56.491-87.125 56.491-143.104c0-55.979-18.816-103.68-56.491-143.104s-82.901-59.136-135.637-59.136h-483.712c-34.645 0-66.645 9.088-96.043 27.221s-53.12 42.965-71.211 74.496c-27.136 47.317-33.536 98.133-19.2 152.576 14.293 54.4 44.459 95.403 90.411 122.965 45.952 27.605 94.549 34.304 145.792 20.139 51.2-14.208 90.411-45.739 117.547-94.635h27.093v253.099h-144.64v99.328h144.64v151.381h94.933v-151.381h144.64v-99.328h-144.64v-253.099h27.136c16.555 31.573 39.936 56.363 70.059 74.496 30.165 18.133 62.549 27.221 97.195 27.221z" />
<glyph unicode="&#xe905;" glyph-name="start" horiz-adv-x="853" d="M0 960v-1024l804.608 512z" />
<glyph unicode="&#xe906;" glyph-name="more" horiz-adv-x="3584" d="M2560 529.92c0 120.149 41.643 221.867 124.928 305.152 83.456 83.285 185.003 124.928 305.152 124.928 119.979 0 221.525-41.643 304.981-124.928 83.285-83.456 124.928-185.003 124.928-305.152 0-119.979-41.643-221.525-124.928-304.981-83.456-83.285-185.003-124.928-304.981-124.928-120.149 0-221.867 41.643-305.152 124.928-83.285 83.456-124.928 185.003-124.928 304.981zM1280 529.92c0 120.149 41.643 221.867 124.928 305.152 83.456 83.285 185.003 124.928 305.152 124.928 119.979 0 221.525-41.643 304.981-124.928 83.285-83.456 124.928-185.003 124.928-305.152 0-119.979-41.643-221.525-124.928-304.981-83.456-83.285-185.003-124.928-304.981-124.928-120.149 0-221.867 41.643-305.152 124.928-83.285 83.456-124.928 185.003-124.928 304.981zM0 529.92c0 120.149 41.643 221.867 124.928 305.152 83.456 83.285 185.003 124.928 305.152 124.928 119.979 0 221.525-41.643 304.981-124.928 83.285-83.456 124.928-185.003 124.928-305.152 0-119.979-41.643-221.525-124.928-304.981-83.456-83.285-185.003-124.928-304.981-124.928-120.149 0-221.867 41.643-305.152 124.928-83.285 83.456-124.928 185.003-124.928 304.981z" />
<glyph unicode="&#xe907;" glyph-name="icons-share" horiz-adv-x="1229" d="M1177.6 503.091l-456.909 456.909v-260.659c-212.634-30.72-382.31-117.555-509.082-260.659-104.294-120.627-174.797-273.971-211.61-460.032 81.766 114.483 180.941 198.861 297.472 253.030s257.587 81.254 423.219 81.254v-266.803l456.909 456.96z" />
<glyph unicode="&#xe908;" glyph-name="message" horiz-adv-x="1240" d="M1115.621-17.112h-807.667c-32.876 0-61.494 11.857-85.693 35.678-24.253 23.821-36.325 52.817-36.325 87.148v551.451l-171.385 202.86c-9.701 11.426-14.552 24.738-14.552 39.99 0 15.198 5.821 29.049 17.408 41.391 11.695 12.396 26.247 18.594 43.601 18.594h1054.612c32.876 0 61.494-11.857 85.693-35.732 24.253-23.768 36.325-52.817 36.325-87.148v-731.352c0-34.277-12.126-63.326-36.325-87.148s-52.817-35.732-85.693-35.732zM400.977 777.081c-7.815 0-14.552-3.341-20.372-9.971-5.821-6.683-8.731-13.851-8.731-21.45v-59.985c0-9.539 2.91-17.139 8.731-22.851s12.557-8.623 20.318-8.623h621.73c7.761 0 14.552 2.91 20.318 8.623 5.821 5.713 8.731 13.312 8.731 22.851v60.039c0 7.599-2.91 14.767-8.731 21.45-5.767 6.629-12.557 9.971-20.318 9.971h-621.73zM400.977 531.375c-7.815 0-14.552-2.856-20.372-8.569s-8.731-12.396-8.731-19.995v-62.841c0-7.653 2.91-14.282 8.731-20.049 5.821-5.713 12.557-8.569 20.318-8.569h621.73c7.761 0 14.552 2.856 20.318 8.623 5.821 5.713 8.731 12.396 8.731 19.941v63.003c0 7.599-2.91 14.282-8.731 19.995-5.767 5.713-12.557 8.569-20.318 8.569h-621.73zM400.977 288.525c-7.815 0-14.552-2.856-20.372-8.623-5.821-5.659-8.731-13.312-8.731-22.797v-60.039c0-7.545 2.91-14.713 8.731-21.396s12.557-10.024 20.318-10.024h310.865c7.761 0 15.037 3.341 21.773 10.024 6.791 6.683 10.186 13.797 10.186 21.396v60.147c0 9.485-3.395 17.139-10.186 22.851-6.737 5.713-14.013 8.569-21.773 8.569h-310.865z" />
<glyph unicode="&#xe909;" glyph-name="like" horiz-adv-x="1122" d="M198.461 565.37v-590.75h-198.461v590.75h198.461zM394.63-25.381c-27.697 0-51.2 9.606-70.412 28.818-19.212 19.261-28.818 42.715-28.818 70.412v491.52c0 27.697 9.996 50.761 29.989 69.242l323.096 325.388 53.053-53.053c13.848-13.848 20.773-30.818 20.773-50.81v-16.091l-48.469-226.255h311.589c27.648 0 51.102-9.606 70.363-28.818 19.212-19.261 28.818-41.935 28.818-68.12v-99.23c0-12.288-2.292-24.576-6.924-36.913l-149.992-346.161c-7.704-18.432-19.602-33.061-35.791-43.837-16.091-10.728-34.231-16.14-54.223-16.14h-443.051zM394.63 73.85h445.391l145.359 343.82v99.23h-433.835l57.685 260.779-214.601-214.601v-489.228z" />
<glyph unicode="&#xe90a;" glyph-name="check1" d="M491.52 960c-89.246 0-171.559-21.898-246.942-65.772s-134.932-103.424-178.806-178.806c-43.874-75.461-65.772-157.696-65.772-246.942s21.898-171.559 65.772-246.942c43.874-75.382 103.424-135.010 178.806-178.806 75.461-43.874 157.696-65.772 246.942-65.772s171.559 21.898 246.942 65.694c75.382 43.874 135.010 103.503 178.806 178.885 43.874 75.382 65.772 157.696 65.772 246.942s-21.898 171.559-65.694 246.942c-43.874 75.382-103.503 134.932-178.885 178.806s-157.696 65.772-246.942 65.772zM491.52 73.846c-70.735 0-136.507 17.723-197.317 53.090-60.731 35.367-108.78 83.495-144.148 144.148-35.446 60.81-53.169 126.582-53.169 197.396 0 70.735 17.723 136.507 53.090 197.317 35.446 60.731 83.495 108.78 144.226 144.148 60.81 35.446 126.582 53.169 197.317 53.169 70.814 0 136.586-17.723 197.317-53.090 60.81-35.446 108.859-83.495 144.226-144.226 35.446-60.81 53.090-126.582 53.090-197.317 0-70.814-17.723-136.586-53.090-197.317-35.367-60.81-83.495-108.859-144.148-144.226-60.81-35.446-126.582-53.090-197.396-53.090zM717.666 685.41l-325.317-323.111-126.976 126.897-69.238-69.159 196.135-198.498 394.634 394.634-69.238 69.238z" />
<glyph unicode="&#xe90b;" glyph-name="down-arrow" horiz-adv-x="2048" d="M0 960l1024-1024 1024 1024z" />
<glyph unicode="&#xe90c;" glyph-name="back-arrow-outline" horiz-adv-x="585" d="M550.181 112.518l-341.236 367.47 341.236 367.518-104.448 112.494-445.733-480.012 445.733-480.012z" />
<glyph unicode="&#xe90d;" glyph-name="cross" d="M1029.585 861.324l-98.676 98.676-416.116-416.116-416.116 416.116-98.676-98.676 416.116-416.116-416.116-416.116 98.676-98.676 416.116 416.116 416.116-416.116 98.676 98.676-416.116 416.116z" />
<glyph unicode="&#xe90e;" glyph-name="close-circle" d="M512 960c283.17 0 512-228.898 512-512 0-283.17-228.83-512-512-512-283.102 0-512 228.83-512 512 0 283.102 228.898 512 512 512zM695.842 704l-183.842-183.774-183.774 183.774-72.226-72.226 183.774-183.774-183.774-183.842 72.226-72.158 183.774 183.842 183.842-183.842 72.158 72.158-183.842 183.842 183.842 183.774-72.158 72.226z" />
<glyph unicode="&#xe90f;" glyph-name="chat" d="M639.269 863.061v-346.161h-484.693l-57.588-57.685v403.846h542.281zM687.64 960h-639.22c-13.8 0-25.307-4.632-34.523-13.848-9.314-9.265-13.897-20.773-13.897-34.621v-689.981l196.169 198.461h491.52c13.848 0 25.795 4.584 35.791 13.848 9.996 9.216 14.97 20.773 14.97 34.621v443.051c0 13.848-4.974 25.356-14.97 34.621s-21.943 13.848-35.791 13.848zM934.571 763.831h-99.23v-443.051h-639.22v-99.23c0-13.848 4.632-25.356 13.897-34.621 9.216-9.265 20.773-13.848 34.621-13.848h542.281l196.169-196.169v738.45c0 13.848-4.632 25.405-13.848 34.621-9.265 9.265-20.773 13.848-34.621 13.848z" />
<glyph unicode="&#xe910;" glyph-name="tournament" horiz-adv-x="768" d="M0 36.966h768v-100.966h-768v100.966zM768 960v-307.712h-108.237v-512h-551.526v512h-108.237v307.712h108.237v-153.856h110.899v153.856h110.797v-153.856h108.237v153.856h110.797v-153.856h110.848v153.856h108.186z" />
<glyph unicode="&#xe911;" glyph-name="training" horiz-adv-x="1186" d="M592.842 960l-592.842-323.368 592.842-323.368 485.053 264.623v-372.413h107.789v431.158zM215.579 411.352v-215.579l377.263-205.878 377.263 205.878v215.579l-377.263-205.878-377.263 205.878z" />
<glyph unicode="&#xe912;" glyph-name="calendar" horiz-adv-x="926" d="M196.169 468.48h99.23v-99.23h-99.23v99.23zM886.15 763.831v-689.981c0-26.136-9.606-48.859-28.867-68.072-19.212-19.261-42.667-28.867-70.363-28.867h-687.689c-27.697 0-51.151 9.606-70.363 28.867-19.261 19.212-28.867 41.886-28.867 68.072v689.981c0 27.697 9.606 51.2 28.867 70.412 19.212 19.212 42.667 28.818 70.363 28.818h48.469v96.939h99.23v-96.939h392.29v96.939h99.23v-96.939h48.469c27.697 0 51.2-9.606 70.412-28.818 19.212-19.261 28.818-42.715 28.818-70.412zM99.23 664.6h687.689v99.23h-687.689v-99.23zM786.92 73.85v493.861h-687.689v-493.861h687.689zM590.75 369.25v99.23h99.23v-99.23h-99.23zM394.63 369.25v99.23h96.89v-99.23h-96.89zM196.169 272.311h99.23v-99.23h-99.23v99.23zM590.75 173.080v99.23h99.23v-99.23h-99.23zM394.63 173.080v99.23h96.89v-99.23h-96.89z" />
<glyph unicode="&#xe913;" glyph-name="eye" d="M512.001 587.635c-77.034 0-139.636-62.603-139.636-139.636s62.603-139.636 139.636-139.636 139.636 62.603 139.636 139.636-62.605 139.636-139.636 139.636zM512.001 797.090c-232.728 0-431.477-144.755-512.001-349.091 80.524-204.334 279.273-349.091 512.001-349.091 232.959 0 431.477 144.757 512.001 349.091-80.524 204.336-279.042 349.091-512.001 349.091zM512.001 215.273c-128.466 0-232.728 104.263-232.728 232.728s104.263 232.726 232.728 232.726 232.728-104.263 232.728-232.728-104.263-232.726-232.728-232.726z" />
<glyph unicode="&#xe914;" glyph-name="check" horiz-adv-x="1331" d="M0 404.48l455.885-468.48 875.315 896.922-125.645 127.078-749.67-768-331.981 340.48z" />
<glyph unicode="&#xe915;" glyph-name="search" d="M380.77 960c67.426 0 130.442-16.857 188.967-50.649 58.447-33.871 104.527-79.951 138.319-138.319 33.792-58.447 50.649-122.407 50.649-191.803 0-93.105-30.090-175.262-90.348-246.548l16.463-16.384h46.474l290.422-290.343-87.67-87.67-290.343 290.343v46.553l-16.463 16.542c-71.207-60.337-153.364-90.427-246.548-90.427-51.121 0-99.958 9.531-146.511 28.751-46.553 19.141-87.67 46.474-123.274 82.156-35.604 35.604-63.015 76.721-82.156 123.195s-28.751 94.523-28.751 143.833c0 69.396 16.857 133.356 50.649 191.803 33.871 58.368 79.951 104.527 138.319 138.319 58.447 33.792 122.407 50.649 191.803 50.649zM380.77 842.24c-73.098 0-135.168-25.6-186.289-76.721-51.2-51.2-76.721-113.191-76.721-186.289 0-73.019 25.6-135.089 76.721-186.21 51.2-51.2 113.191-76.721 186.289-76.721 73.019 0 135.089 25.6 186.21 76.721 51.2 51.121 76.721 113.191 76.721 186.21 0 73.098-25.6 135.168-76.721 186.289-51.121 51.2-113.191 76.721-186.21 76.721z" />
<glyph unicode="&#xe916;" glyph-name="location" horiz-adv-x="780" d="M380.002 960c51.834 0 99.621-12.581 143.36-37.79 43.691-25.161 78.117-59.246 103.326-102.205 25.161-42.959 37.742-90.356 37.742-142.238 0-87.381-47.397-200.753-142.19-339.968-47.445-69.632-94.842-130.389-142.238-182.223l-44.422 51.102c-35.596 42.91-68.169 86.65-97.816 131.121-41.448 60.709-74.069 117.029-97.768 168.862-29.647 66.658-44.422 124.83-44.422 174.47 0 49.591 12.581 95.915 37.742 138.874 25.21 42.959 59.636 77.044 103.375 102.205 43.691 25.21 91.477 37.79 143.311 37.79zM380.002 771.096c-26.673 0-49.25-9.265-67.779-27.794s-27.794-40.716-27.794-66.658c0-25.893 9.265-48.128 27.794-66.658s41.106-27.794 67.779-27.794c26.673 0 49.25 9.265 67.779 27.794s27.794 40.765 27.794 66.658c0 25.941-9.265 48.177-27.794 66.706s-41.106 27.794-67.779 27.794zM760.003 155.575c0-35.596-17.067-67.779-51.102-96.695-34.085-28.867-80.36-51.834-138.923-68.901-58.514-17.018-121.807-25.551-189.976-25.551s-131.462 8.533-190.025 25.551c-58.514 17.067-104.789 39.985-138.874 68.901-34.036 28.916-51.102 61.099-51.102 96.695 0 29.598 13.312 57.393 39.985 83.334 26.673 25.893 63 47.787 108.885 65.536l28.916-42.228c-54.808-23.698-82.213-51.834-82.213-84.456 0-32.573 27.794-60.367 83.334-83.334 55.54-22.918 122.587-34.426 201.094-34.426s145.554 11.459 201.094 34.426c55.589 22.967 83.383 50.712 83.383 83.383 0 32.573-27.453 60.709-82.261 84.407l28.916 42.228c45.885-17.798 82.213-39.643 108.885-65.536 26.624-25.941 39.985-53.736 39.985-83.383z" />
<glyph unicode="&#xe917;" glyph-name="friends" horiz-adv-x="1638" d="M1117.184 374.886c-21.709 0-46.285 0-72.294-3.686 86.323-61.44 146.637-142.643 146.637-252.314v-182.886h446.874v182.886c0 170.394-347.75 256-521.216 256zM521.216 374.886c-173.466 0-521.216-85.606-521.216-256v-182.886h1042.637v182.886c0 170.394-347.853 256-521.318 256zM521.318 521.114c123.597 0 223.437 97.997 223.437 219.443s-99.84 219.443-223.539 219.443c-123.494 0-223.334-97.997-223.334-219.443s99.84-219.443 223.437-219.443zM1117.082 521.114c123.597 0 223.437 97.997 223.437 219.443s-99.84 219.443-223.437 219.443c-123.597 0-223.437-97.997-223.437-219.443s99.84-219.443 223.437-219.443z" />
<glyph unicode="&#xe918;" glyph-name="plus" d="M1024 374.857h-438.857v-438.857h-146.286v438.857h-438.857v146.286h438.857v438.857h146.286v-438.857h438.857z" />
<glyph unicode="&#xe919;" glyph-name="minus" horiz-adv-x="7168" d="M7168-64h-7168v1024h7168z" />
<glyph unicode="&#xe91a;" glyph-name="video" horiz-adv-x="1502" d="M1146.197 592.043v287.403c0 23.074-8.329 42.189-24.917 57.549-16.725 15.36-36.523 23.006-59.392 23.006h-981.47c-22.938 0-42.052-7.646-57.412-23.006s-23.006-34.475-23.006-57.481v-820.361c0-23.006 7.646-42.189 23.006-57.481 15.36-15.36 34.475-23.006 57.481-23.006h981.333c23.006 0 42.803 7.646 59.392 23.006 16.657 15.292 24.986 34.475 24.986 57.481v287.539l325.837-325.837v897.024l-325.837-325.973z" />
<glyph unicode="&#xe91b;" glyph-name="camera" horiz-adv-x="1122" d="M109.568 850.432h166.961l112.104 109.568h333.922l112.152-109.568h167.010c29.55 0 55.198-10.874 76.946-32.622s32.573-48.274 32.573-79.531v-667.843c0-31.305-10.825-57.832-32.573-79.579s-47.397-32.573-76.946-32.573h-892.148c-29.55 0-55.198 10.825-76.946 32.573s-32.622 48.274-32.622 79.579v667.843c0 31.305 10.874 57.832 32.622 79.531 21.748 21.748 47.397 32.67 76.946 32.67zM555.642 683.471c-36.523 0-71.729-7.363-105.618-22.187-33.938-14.775-63.927-35.206-90.014-61.294s-46.519-56.076-61.294-90.014c-14.824-33.89-22.187-69.096-22.187-105.618 0-50.469 12.581-96.987 37.839-139.557 25.21-42.618 59.099-76.556 101.717-101.766s89.137-37.839 139.557-37.839c50.469 0 96.987 12.629 139.557 37.839 42.618 25.21 76.556 59.148 101.766 101.766 25.21 42.569 37.839 89.088 37.839 139.557 0 36.523-7.412 71.729-22.187 105.618-14.775 33.938-35.206 63.927-61.294 90.014s-56.076 46.519-90.014 61.294c-33.938 14.824-69.144 22.187-105.667 22.187zM555.642 571.319c46.958 0 86.552-16.091 118.686-48.274 32.183-32.183 48.274-71.729 48.274-118.686s-16.091-86.552-48.274-118.686c-32.183-32.183-71.68-48.274-118.686-48.274-46.958 0-86.504 16.091-118.686 48.274s-48.274 71.68-48.274 118.686c0 46.958 16.091 86.504 48.274 118.686s71.729 48.274 118.686 48.274z" />
<glyph unicode="&#xe91c;" glyph-name="forward-arrow-outline" horiz-adv-x="663" d="M0 852.058l109.749 107.942 520.433-512-520.433-512-109.749 107.942 410.684 404.058z" />
<glyph unicode="&#xe91d;" glyph-name="star" horiz-adv-x="967" d="M483.556 154.283l298.837-189.838-79.303 357.831 264.021 240.754-347.648 31.061-135.908 337.465-135.851-337.465-347.705-31.061 264.021-240.754-79.303-357.831z" />
<glyph unicode="&#xe91e;" glyph-name="facebook" horiz-adv-x="512" d="M418.557 789.959h93.484v162.822c-39.578 4.602-85.434 7.227-131.904 7.227-1.535 0-3.069-0.003-4.603-0.009l0.237 0.001c-134.597 0-227.021-84.796-227.021-240.644v-143.367h-148.75v-182.033h148.75v-457.957h182.155v457.916h142.755l22.637 182.033h-165.392v125.42c0 52.615 14.194 88.63 87.529 88.63z" />
<glyph unicode="&#xe91f;" glyph-name="google" horiz-adv-x="1004" d="M1003.628 436.042c0 0.062 0 0.137 0 0.211 0 30.070-3.034 59.432-8.813 87.795l0.479-2.814h-483.133v-175.981h290.564c-51.051-320.8-607.66-294.147-607.66 102.666 0 285.854 337.186 421.372 521.018 244.505l138.981 133.385c-315.325 295.154-855.065 73.96-855.065-377.89 0-660.765 1003.628-699.858 1003.628-12.078z" />
<glyph unicode="&#xe920;" glyph-name="pencil" d="M0 149.264v-213.345h213.345l629.384 629.384-213.345 213.628zM1007.337 810.521l-132.857 132.857c-10.32 10.337-24.586 16.732-40.345 16.732s-30.025-6.395-40.344-16.731l-104.132-104.132 213.345-213.345 104.333 104.131c10.277 10.31 16.631 24.535 16.631 40.244s-6.354 29.935-16.632 40.246l0.001-0.001z" />
<glyph unicode="&#xe921;" glyph-name="notification" d="M152 960c-28.16 0-51.904-10.88-71.424-32.512s-29.376-48-29.376-79.232v-774.528c0-31.168 9.792-57.6 29.312-79.296 19.52-21.632 43.328-32.448 71.424-32.448h698.112c28.096 0 51.904 10.816 71.424 32.448 19.52 21.696 29.312 48.128 29.312 79.36v774.4c0 31.232-9.792 57.664-29.312 79.36-19.456 21.568-43.264 32.448-71.36 32.448h-698.112zM152 848.256h698.112v-774.528h-698.112v774.528zM250.368 739.072v-111.744h501.376v111.744h-501.376zM250.368 515.584v-109.184h501.376v109.184h-501.376zM250.368 294.656v-111.744h351.36v111.744h-351.36z" />
<glyph unicode="&#xe922;" glyph-name="more-menu" horiz-adv-x="1280" d="M0 960v-143.808h1242.88v143.808h-1242.88zM0 521.728h1242.88v147.2h-1242.88v-147.2zM0-60.352h1242.88v143.808h-1242.88v-143.808zM0 230.72h1242.88v147.2h-1242.88v-147.2z" />
<glyph unicode="&#xe923;" glyph-name="bell" horiz-adv-x="853" d="M426.667-64c58.667 0 106.667 47.262 106.667 105.026h-213.333c0-57.764 48-105.026 106.667-105.026zM746.667 251.077v262.564c0 161.214-86.933 296.172-240 331.881v35.709c0 43.586-35.733 78.769-80 78.769s-80-35.184-80-78.769v-35.709c-152.533-35.709-240-170.142-240-331.881v-262.564l-106.667-105.026v-52.513h853.333v52.513l-106.667 105.026zM640 198.564h-426.667v315.077c0 130.232 80.533 236.308 213.333 236.308s213.333-106.076 213.333-236.308v-315.077z" />
<glyph unicode="&#xe924;" glyph-name="star-half" horiz-adv-x="518" d="M236.192 309.456l-53.686-329.611c-4.28-26.184 23.644-45.832 46.737-32.974l279.236 154.557c-1.576 160.138-2.364 274.829-2.364 344.073 0 212.793-2.003 378.36 0 503.858 0.038 2.351 0.038 5.898 0 10.641-10.481 0-13.274 0-26.407-16.996l-140.084-298.886-312.626-47.827c-25.678-3.947-35.932-35.223-17.924-53.683l227.118-233.151z" />
<glyph unicode="&#xe925;" glyph-name="start-full" d="M240.9 309.711l-53.686-329.611c-4.28-26.184 23.644-45.832 46.737-32.974l279.236 154.557 279.236-154.599c22.881-12.731 51.059 6.535 46.737 32.974l-53.686 329.611 227.118 233.151c18.008 18.46 7.669 49.779-17.924 53.683l-312.626 47.827-140.127 298.929c-10.466 22.322-47.034 22.322-57.5 0l-140.084-298.886-312.626-47.827c-25.678-3.947-35.932-35.223-17.924-53.683l227.118-233.151z" />
<glyph unicode="&#xe926;" glyph-name="message-one" horiz-adv-x="1163" d="M169.324-64h-82.393l58.259 58.259c30.371 30.423 50.859 70.722 56.23 115.664l0.091 0.937c-134.535 88.315-201.512 216.236-201.512 350.328 0 247.4 227.389 498.812 583.502 498.812 377.257 0 579.544-231.347 579.544-477.142 0-247.4-204.418-478.608-579.544-478.608-69.504 0.073-136.854 9.156-200.989 26.144l5.483-1.235c-55.392-57.246-132.832-92.864-218.593-93.131h-0.050z" />
<glyph unicode="&#xe927;" glyph-name="share-one" horiz-adv-x="939" d="M906.645 789.353c0-76.58-62.080-138.66-138.66-138.66s-138.66 62.080-138.66 138.66c0 76.58 62.080 138.66 138.66 138.66v0c76.58 0 138.66-62.080 138.66-138.66v0zM768.015 618.677c-0.035 0-0.077 0-0.118 0-94.262 0-170.677 76.414-170.677 170.677s76.414 170.677 170.677 170.677c94.262 0 170.677-76.414 170.677-170.677 0-0.010 0-0.021 0-0.031v0.002c-0.101-94.174-76.391-170.495-170.544-170.647h-0.015zM768.015 896.026c-58.832 0-106.525-47.693-106.525-106.525s47.693-106.525 106.525-106.525c58.832 0 106.525 47.693 106.525 106.525v0c-0.168 58.759-47.764 106.344-106.511 106.495h-0.014zM906.645 106.677c0-76.58-62.080-138.66-138.66-138.66s-138.66 62.080-138.66 138.66c0 76.58 62.080 138.66 138.66 138.66v0c76.58 0 138.66-62.080 138.66-138.66v0zM768.015-64c-0.035 0-0.077 0-0.118 0-94.262 0-170.677 76.414-170.677 170.677s76.414 170.677 170.677 170.677c94.262 0 170.677-76.414 170.677-170.677 0-0.010 0-0.021 0-0.031v0.002c-0.101-94.174-76.391-170.495-170.544-170.647h-0.015zM768.015 213.349c-58.832 0-106.525-47.693-106.525-106.525s47.693-106.525 106.525-106.525c58.832 0 106.525 47.693 106.525 106.525v0c-0.168 58.759-47.764 106.344-106.511 106.495h-0.014zM309.336 448c0-76.58-62.080-138.66-138.66-138.66s-138.66 62.080-138.66 138.66c0 76.58 62.080 138.66 138.66 138.66v0c76.58 0 138.66-62.080 138.66-138.66v0zM170.677 277.442c-94.262 0-170.677 76.414-170.677 170.677s76.414 170.677 170.677 170.677c94.262 0 170.677-76.414 170.677-170.677v0c-0.084-94.228-76.448-170.592-170.668-170.677h-0.008zM170.677 554.762c-58.832 0-106.525-47.693-106.525-106.525s47.693-106.525 106.525-106.525c58.832 0 106.525 47.693 106.525 106.525v0c-0.201 58.733-47.785 106.285-106.51 106.436h-0.015zM271.402 468.476c-0.090-0.001-0.196-0.001-0.303-0.001-23.566 0-42.669 19.104-42.669 42.669 0 15.905 8.702 29.777 21.604 37.115l0.211 0.11 395.888 225.714c6.070 3.52 13.356 5.597 21.127 5.597 23.568 0 42.674-19.106 42.674-42.674 0-15.797-8.583-29.589-21.341-36.967l-0.206-0.11-395.917-225.714c-6.040-3.569-13.301-5.696-21.055-5.74h-0.013zM667.26 116.471c-0.006 0-0.013 0-0.021 0-7.744 0-15.003 2.076-21.251 5.701l0.203-0.109-395.917 225.714c-12.963 7.488-21.546 21.28-21.546 37.077 0 23.568 19.106 42.674 42.674 42.674 7.771 0 15.057-2.077 21.333-5.707l-0.206 0.11 395.917-225.714c13.113-7.449 21.815-21.321 21.815-37.226 0-23.566-19.104-42.669-42.669-42.669-0.106 0-0.213 0-0.319 0.001h0.016z" />
<glyph unicode="&#xe928;" glyph-name="message-two" horiz-adv-x="1038" d="M933.836 959.882h-830.050c-0.107 0-0.233 0.001-0.359 0.001-56.739 0-102.801-45.712-103.368-102.317v-921.683l207.513 204.859h726.265c0.107 0 0.233-0.001 0.359-0.001 56.739 0 102.801 45.712 103.368 102.317v614.454c-0.567 56.659-46.629 102.371-103.368 102.371-0.126 0-0.252 0-0.378-0.001h0.019z" />
<glyph unicode="&#xe929;" glyph-name="user" horiz-adv-x="896" d="M448.014 448.036c141.395 0 256.018 114.623 256.018 256.018s-114.623 256.018-256.018 256.018c-141.395 0-256.018-114.623-256.018-256.018 0-0.025 0-0.051 0-0.076v0.004c0-141.355 114.591-255.946 255.946-255.946 0.025 0 0.051 0 0.076 0h-0.004zM627.233 384.014h-33.419c-42.768-20.207-92.907-32.004-145.801-32.004s-103.033 11.797-147.929 32.903l2.128-0.899h-33.419c-148.333-0.041-268.588-120.195-268.794-268.485v-83.242c0-53.018 42.98-95.998 95.998-95.998v0h703.959c53.018 0 95.998 42.98 95.998 95.998v0 83.222c-0.205 148.31-120.461 268.464-268.79 268.505h-0.004z" />
<glyph unicode="&#xe92a;" glyph-name="user-plus" horiz-adv-x="1280" d="M1248.014 543.981h-128.21v128.21c-0.050 17.657-14.351 31.958-32.003 32.008h-63.801c-17.657-0.050-31.958-14.351-32.008-32.003v-128.215h-128.21c-17.657-0.050-31.958-14.351-32.008-32.003v-64.022c0.050-17.657 14.351-31.958 32.003-32.008h128.215v-128.21c0.050-17.657 14.351-31.958 32.003-32.008h64.022c17.657 0.050 31.958 14.351 32.008 32.003v128.215h128.21c17.657 0.050 31.958 14.351 32.008 32.003v64.022c-0.050 17.689-14.401 32.009-32.097 32.009-0.047 0-0.093 0-0.14 0h0.007zM447.807 448c0.066 0 0.143 0 0.221 0 141.397 0 256.022 114.625 256.022 256.022s-114.625 256.022-256.022 256.022c-141.397 0-256.022-114.625-256.022-256.022 0-0.015 0-0.031 0-0.046v0.002c0-141.373 114.605-255.978 255.978-255.978 0.016 0 0.031 0 0.047 0h-0.002zM626.991 383.983h-33.379c-42.793-20.231-92.964-32.043-145.894-32.043s-103.1 11.811-148.021 32.942l2.127-0.899h-33.025c-148.433-0.050-268.748-120.365-268.799-268.794v-83.209c0.025-52.999 42.982-95.956 95.978-95.981h704.229c52.999 0.025 95.956 42.982 95.981 95.978v83.206c-0.050 148.464-120.416 268.799-268.887 268.799-0.031 0-0.062 0-0.093 0h0.005z" />
<glyph unicode="&#xe92b;" glyph-name="instagram" d="M746.82 960h-469.641c-153.006-0.188-276.992-124.173-277.18-277.161v-469.659c0.188-153.006 124.173-276.992 277.161-277.18h469.659c153.006 0.188 276.992 124.173 277.18 277.161v469.659c-0.188 153.006-124.173 276.992-277.161 277.18h-0.018zM512 168.011c-154.634 0-279.989 125.355-279.989 279.989s125.355 279.989 279.989 279.989c154.634 0 279.989-125.355 279.989-279.989v0c-0.188-154.558-125.431-279.801-279.971-279.989h-0.018zM798.434 661.944c-45.633 0-82.625 36.993-82.625 82.625s36.993 82.625 82.625 82.625c45.633 0 82.625-36.993 82.625-82.625v0c0 0 0 0 0 0 0-45.536-36.836-82.468-82.335-82.625h-0.015zM512 667.948c-121.474 0-219.948-98.474-219.948-219.948s98.474-219.948 219.948-219.948c121.474 0 219.948 98.474 219.948 219.948v0c-0.219 121.386-98.562 219.729-219.927 219.948h-0.021z" />
<glyph unicode="&#xe92c;" glyph-name="twitter" horiz-adv-x="1108" d="M1108.28 838.757c-37.971-19.372-82.069-33.672-128.591-40.521l-2.338-0.283c48.412 34.001 83.992 83.411 99.785 141.006l0.416 1.78c-41.143-28.281-89.346-49.896-141.215-61.956l-2.852-0.559c-39.291 49.258-98.976 80.813-166.064 81.773l-0.159 0.002c-127.601-8.919-227.736-114.62-227.736-243.708 0-5.191 0.162-10.344 0.481-15.455l-0.035 0.7c-0.001-0.351-0.002-0.766-0.002-1.181 0-20.399 2.027-40.324 5.891-59.585l-0.322 1.926c-195.042 14.721-363.385 117.451-466.962 268.16l-1.367 2.105c-19.616-37.877-31.118-82.685-31.118-130.18 0-0.146 0-0.292 0-0.438v0.023c-0.023-1.32-0.037-2.878-0.037-4.439 0-84.82 39.162-160.493 100.392-209.925l0.514-0.401c-38.182 1.378-73.379 13.037-103.234 32.272l0.806-0.486v-2.839c-0.138-3.124-0.216-6.789-0.216-10.472 0-114.633 76.052-211.503 180.453-242.907l1.796-0.464c-17.332-5.408-37.26-8.524-57.915-8.524-0.58 0-1.159 0.002-1.738 0.007l0.089-0.001c-1.073-0.023-2.339-0.037-3.607-0.037-13.978 0-27.578 1.616-40.625 4.671l1.201-0.237c24.172-98.96 108.565-172.538 211.315-180.149l0.778-0.046c-74.137-67.682-172.985-109.403-281.566-110.22l-0.166-0.001c-0.35-0.001-0.765-0.002-1.18-0.002-18.751 0-37.18 1.377-55.192 4.035l2.041-0.247c96.009-72.192 217.165-115.702 348.474-115.955h0.059c418.117 0 646.687 393.846 646.687 735.198 0 11.412-0.334 22.267-0.835 33.4 45.34 37.401 83.281 81.798 112.638 131.84l1.257 2.319z" />
<glyph unicode="&#xe92d;" glyph-name="like-one" horiz-adv-x="1067" d="M1030.001 391.312c22.856 25.671 36.82 59.695 36.82 96.98 0 0.828-0.007 1.654-0.021 2.478l0.002-0.124c-0.959 70.29-57.669 127.020-127.86 128.010l-0.094 0.001h-184.656c1.838 6.617 3.654 11.937 5.721 17.129l-0.399-1.135c2.376 5.741 4.832 10.561 7.612 15.164l-0.28-0.5q4.643 8.011 6.652 12.003 12.003 22.647 18.344 37.339c4.637 11.042 8.979 24.39 12.278 38.144l0.376 1.856c4.005 15.203 6.317 32.662 6.341 50.657v0.015c0 10.672 0 19.335-0.34 25.987-0.656 11.249-1.836 21.561-3.548 31.694l0.235-1.687c-1.715 12.508-4.517 23.754-8.38 34.493l0.369-1.174c-4.638 11.484-10.006 21.362-16.333 30.527l0.339-0.52c-7.070 10.815-15.964 19.817-26.333 26.795l-0.334 0.212c-11.505 7.305-24.813 13.235-38.976 17.087l-1.024 0.237c-15.702 4.451-33.735 7.010-52.366 7.010-0.937 0-1.873-0.006-2.807-0.019l0.141 0.002c-0.103 0.001-0.226 0.001-0.348 0.001-11.656 0-22.177-4.862-29.645-12.668l-0.014-0.015c-9.182-9.427-16.787-20.447-22.35-32.597l-0.296-0.722c-4.903-9.789-9.344-21.307-12.689-33.282l-0.333-1.395q-3.68-14.664-8.323-40.651-6.030-28.025-9.002-40.339c-3.458-12.607-7.436-23.349-12.211-33.646l0.548 1.317c-5.108-12.397-12.085-23.017-20.704-32.058l0.039 0.041c-22.843-24.332-44.901-50.403-65.579-77.579l-1.766-2.42q-32.668-42.661-67.346-80.651t-50.672-39.349c-11.361-0.858-21.394-5.935-28.656-13.651l-0.021-0.022c-7.412-7.301-12.004-17.446-12.004-28.665 0-0.114 0-0.227 0.001-0.341v0.017-427.457c-0.002-0.151-0.003-0.33-0.003-0.509 0-11.495 4.859-21.855 12.635-29.138l0.022-0.020c7.693-7.756 18.244-12.667 29.941-13.020l0.066-0.002c39.637-6.48 75.046-16.694 108.574-30.54l-3.238 1.184q51.323-17.296 80.311-26.327t80.99-19.335c28.714-6.248 61.819-9.994 95.739-10.331l0.255-0.002h86.001c3.148-0.213 6.823-0.335 10.527-0.335 47.61 0 90.529 20.088 120.742 52.25l0.081 0.087c21.293 26.953 34.155 61.423 34.155 98.896 0 7.682-0.541 15.239-1.586 22.633l0.099-0.85c17.184 16.634 29.764 37.925 35.707 61.839l0.188 0.892c3.593 11.674 5.661 25.093 5.661 38.995s-2.069 27.321-5.915 39.966l0.254-0.971c17.974 23.113 28.816 52.547 28.816 84.514 0 2.395-0.061 4.776-0.181 7.141l0.013-0.332c-0.57 18.385-4.176 35.759-10.33 51.875l0.365-1.089zM234.677 533.336h-191.988c-0.103 0.001-0.226 0.001-0.348 0.001-11.656 0-22.177-4.862-29.645-12.668l-0.014-0.015c-7.821-7.478-12.684-17.995-12.684-29.647 0-0.117 0-0.233 0.001-0.349v0.018-426.693c-0.001-0.1-0.001-0.218-0.001-0.336 0-11.66 4.862-22.184 12.669-29.657l0.015-0.014c7.489-7.805 18.006-12.655 29.656-12.655 0.123 0 0.246 0.001 0.37 0.002h191.969c23.463 0.283 42.415 19.204 42.745 42.629v426.724c-0.33 23.427-19.234 42.331-42.629 42.66h-0.031zM157.989 119.014c-7.537-7.624-17.996-12.345-29.557-12.345-0.158 0-0.316 0.001-0.474 0.003h0.024c-23.559 0.003-42.655 19.102-42.655 42.661 0 11.702 4.711 22.303 12.341 30.010l-0.004-0.004c7.672 7.822 18.351 12.671 30.163 12.671s22.491-4.849 30.156-12.664l0.007-0.007c7.822-7.672 12.671-18.351 12.671-30.163s-4.849-22.491-12.664-30.156l-0.007-0.007z" />
</font>
</defs>
</svg>
