<svg xmlns="http://www.w3.org/2000/svg" width="215.175" height="33.417" viewBox="0 0 215.175 33.417"><defs><style>.a{fill:#fff;}</style></defs><g transform="translate(-0.771)"><g transform="translate(0.771)"><g transform="translate(0)"><g transform="translate(0 0.22)"><g transform="translate(0 0)"><path class="a" d="M16.551,1.392V7.825a9.977,9.977,0,0,0-2.387-1.991,5.9,5.9,0,0,0-2.593-.605A5.337,5.337,0,0,0,7.459,6.954a6.161,6.161,0,0,0-.884,1.291,5.94,5.94,0,0,0-.508,1.52A8.753,8.753,0,0,0,5.9,11.483a6.133,6.133,0,0,0,1.591,4.323,5.377,5.377,0,0,0,4.082,1.7,5.732,5.732,0,0,0,2.593-.634,8.834,8.834,0,0,0,2.387-1.977V21.34a13.706,13.706,0,0,1-2.785,1.018,12.1,12.1,0,0,1-2.8.339,12.316,12.316,0,0,1-3.271-.421A8.664,8.664,0,0,1,4.954,21,11.2,11.2,0,0,1,1.27,16.928,12.156,12.156,0,0,1,0,11.366a11.947,11.947,0,0,1,.826-4.5A9.611,9.611,0,0,1,1.764,5,12.61,12.61,0,0,1,3.23,3.178,9.937,9.937,0,0,1,6.707.817,11.171,11.171,0,0,1,10.966.035a12.89,12.89,0,0,1,2.8.325A15.522,15.522,0,0,1,16.551,1.392Zm3.316,20.759V.551h5.88V8.946h7.839V.551H39.48v21.6H33.585V13.358h-7.84v8.793Zm24.2,0V.551H57.279V5.287H49.794V9.035h7.058v4.633H49.794v3.644H57.28v4.839Zm18.066-6.978A11.317,11.317,0,0,0,64.721,17.4a5.11,5.11,0,0,0,2.535.738,2.926,2.926,0,0,0,1.93-.634,2,2,0,0,0,.766-1.608,2.2,2.2,0,0,0-.634-1.667,8.727,8.727,0,0,0-2.991-1.2,9.759,9.759,0,0,1-4.465-2.213,5.239,5.239,0,0,1-1.326-3.777A6.6,6.6,0,0,1,62.614,2,7.43,7.43,0,0,1,67.978.035a11.062,11.062,0,0,1,3.389.487,11.371,11.371,0,0,1,3.021,1.446L72.546,6.2a7.712,7.712,0,0,0-2.063-1.3,5.532,5.532,0,0,0-2.078-.428,2.8,2.8,0,0,0-1.723.516,1.532,1.532,0,0,0-.663,1.3,1.671,1.671,0,0,0,.575,1.3,6.584,6.584,0,0,0,2.269.929q.059.015.1.022a.969.969,0,0,1,.133.037q3.6.959,4.745,2.154a5.217,5.217,0,0,1,1.177,1.9,7.461,7.461,0,0,1,.383,2.479,7.225,7.225,0,0,1-2.255,5.533,8.549,8.549,0,0,1-6.012,2.08,10.583,10.583,0,0,1-4.1-.753,11.855,11.855,0,0,1-3.559-2.42Zm17.535,0A11.317,11.317,0,0,0,82.256,17.4a5.11,5.11,0,0,0,2.535.738,2.925,2.925,0,0,0,1.93-.634,2,2,0,0,0,.766-1.608,2.2,2.2,0,0,0-.634-1.667,8.727,8.727,0,0,0-2.991-1.2A9.758,9.758,0,0,1,79.4,10.82a5.239,5.239,0,0,1-1.326-3.777A6.6,6.6,0,0,1,80.149,2,7.43,7.43,0,0,1,85.513.035,11.062,11.062,0,0,1,88.9.522a11.371,11.371,0,0,1,3.021,1.446L90.081,6.2a7.713,7.713,0,0,0-2.063-1.3,5.532,5.532,0,0,0-2.078-.428,2.8,2.8,0,0,0-1.724.516,1.532,1.532,0,0,0-.663,1.3,1.671,1.671,0,0,0,.575,1.3,6.584,6.584,0,0,0,2.269.929q.059.015.1.022a.97.97,0,0,1,.133.037q3.6.959,4.745,2.154a5.217,5.217,0,0,1,1.178,1.9,7.461,7.461,0,0,1,.383,2.479,7.225,7.225,0,0,1-2.255,5.533,8.549,8.549,0,0,1-6.012,2.08,10.583,10.583,0,0,1-4.1-.753,11.855,11.855,0,0,1-3.559-2.42Z" transform="translate(-0.001 -0.034)"/><path class="a" d="M63.859,20.78H62.368a1.248,1.248,0,0,1-1.27,1.088,1.153,1.153,0,0,1-.942-.4c-.307-.334-.37-.679-.37-2.165s.064-1.831.37-2.165a1.153,1.153,0,0,1,.942-.4,1.249,1.249,0,0,1,1.27,1.088H63.86A2.669,2.669,0,0,0,61.088,15.4a2.735,2.735,0,0,0-2.031.841,2.191,2.191,0,0,0-.614,1.152,10.654,10.654,0,0,0-.127,1.907,10.654,10.654,0,0,0,.127,1.907,2.232,2.232,0,0,0,.614,1.153,2.735,2.735,0,0,0,2.031.84A2.676,2.676,0,0,0,63.859,20.78ZM70.45,19.3c0-1.325.011-2.284-.751-3.06a2.887,2.887,0,0,0-4.073,0c-.762.776-.741,1.734-.741,3.06s-.021,2.283.741,3.059a2.888,2.888,0,0,0,4.073,0C70.46,21.588,70.45,20.629,70.45,19.3Zm-1.47,0c0,1.476-.085,1.831-.37,2.154a1.213,1.213,0,0,1-.942.409,1.236,1.236,0,0,1-.952-.409c-.286-.323-.36-.679-.36-2.154s.074-1.831.36-2.154a1.236,1.236,0,0,1,.952-.409,1.213,1.213,0,0,1,.942.409c.285.323.37.679.37,2.155Zm9.087,3.835v-7.67H76.6v4.7l-2.984-4.7H72.3v7.67h1.47V18.431l2.985,4.708Zm7.87,0v-7.67h-1.47v4.7l-2.983-4.7H80.171v7.67h1.472V18.431l2.983,4.708Zm7.067,0V21.8H89.512V19.939h2.972V18.6H89.512V16.8H93V15.469H88.042v7.67Zm7.077-2.359H98.589a1.248,1.248,0,0,1-1.269,1.088,1.153,1.153,0,0,1-.942-.4c-.307-.334-.37-.679-.37-2.165s.064-1.831.37-2.165a1.153,1.153,0,0,1,.942-.4,1.248,1.248,0,0,1,1.269,1.088h1.492A2.669,2.669,0,0,0,97.309,15.4a2.735,2.735,0,0,0-2.031.841,2.191,2.191,0,0,0-.614,1.152,10.654,10.654,0,0,0-.127,1.907,10.654,10.654,0,0,0,.127,1.907,2.231,2.231,0,0,0,.614,1.153,2.735,2.735,0,0,0,2.031.84,2.676,2.676,0,0,0,2.772-2.424Zm6.252-3.975V15.469h-5.406V16.8h1.968v6.334h1.47V16.8Zm3.015,6.334v-7.67h-1.47v7.67Zm7.87,0v-7.67h-1.47v4.7l-2.983-4.7h-1.313v7.67h1.47V18.431l2.984,4.708Zm7.469-3.146v-1.12h-2.846v1.25h1.386v.291a1.524,1.524,0,0,1-.338,1.023,1.344,1.344,0,0,1-1.047.431,1.153,1.153,0,0,1-.942-.4c-.3-.356-.36-.657-.36-2.165s.085-1.8.36-2.154a1.19,1.19,0,0,1,.942-.409,1.288,1.288,0,0,1,1.354,1.12h1.481a2.869,2.869,0,0,0-4.867-1.616A2.191,2.191,0,0,0,119.2,17.4a10.653,10.653,0,0,0-.127,1.907,10.653,10.653,0,0,0,.127,1.907,2.231,2.231,0,0,0,.614,1.153,2.735,2.735,0,0,0,2.031.84,2.8,2.8,0,0,0,2.127-.873,3.107,3.107,0,0,0,.719-2.338Z" transform="translate(38.034 9.991)"/><path class="a" d="M106.637,17.859a2.349,2.349,0,0,0-2.5-2.391H101.2v7.67h1.477V20.251h1.458A2.348,2.348,0,0,0,106.637,17.859Zm-1.479,0a1.007,1.007,0,0,1-1.1,1.045h-1.384V16.8h1.383A1.014,1.014,0,0,1,105.158,17.859Zm7.917,5.279V21.8h-3.437V15.468h-1.48v7.67Zm7.331,0-2.767-7.67h-1.16l-2.756,7.67h1.543l.457-1.357h2.692l.447,1.357Zm-2.384-2.618h-1.882l.957-2.79Zm8.395-5.052H124.81l-1.394,3.092L122,15.468h-1.606l2.276,4.524v3.146h1.468V19.993Zm6.182,7.67V21.8h-3.511V19.939h2.99V18.6h-2.99V16.8H132.6V15.468h-4.99v7.67Zm7.458,0-1.692-3.307a2.064,2.064,0,0,0,1.383-2.014,2.3,2.3,0,0,0-2.458-2.349h-2.968v7.67H135.8V20.079h1.064l1.479,3.06Zm-1.787-5.322a.993.993,0,0,1-1.075,1.013H135.8V16.8h1.394A.992.992,0,0,1,138.268,17.817Zm8.182,3.06a2.163,2.163,0,0,0-.585-1.627,2.49,2.49,0,0,0-1.447-.593l-.894-.129a1.294,1.294,0,0,1-.7-.3.745.745,0,0,1-.223-.549c0-.528.383-.97,1.17-.97a2.09,2.09,0,0,1,1.553.528l.936-.937a3.221,3.221,0,0,0-2.447-.894,2.345,2.345,0,0,0-2.639,2.326,2.042,2.042,0,0,0,.543,1.508,2.555,2.555,0,0,0,1.468.636L144.1,20a1.122,1.122,0,0,1,.67.269.86.86,0,0,1,.234.647c0,.614-.468.948-1.341.948a2.464,2.464,0,0,1-1.831-.646l-.958.97a3.537,3.537,0,0,0,2.767,1.011C145.227,23.2,146.45,22.363,146.45,20.876Z" transform="translate(66.009 9.992)"/></g></g><path d="M61,28.544V6.5H74.117v4.834H66.688v3.825h7v4.729h-7v8.659Zm16.291,0V6.5H90.408v4.834H82.979v3.825h7v4.729h-7V23.6h7.429v4.939Zm16.978,0V6.5H100.1v16.9h7.253v5.15Zm15.939,0V6.5h5.835v16.9H123.3v5.15Zm37.409-10.978a11.9,11.9,0,0,1-.833,4.473,11.4,11.4,0,0,1-2.486,3.7,11.345,11.345,0,0,1-12.488,2.5,10.935,10.935,0,0,1-3.714-2.5,11.166,11.166,0,0,1-2.486-3.735,11.686,11.686,0,0,1,0-8.885A11.165,11.165,0,0,1,128.1,9.389a11.008,11.008,0,0,1,3.714-2.53A11.192,11.192,0,0,1,136.182,6a11.2,11.2,0,0,1,8.108,3.388,11.662,11.662,0,0,1,2.493,3.735,11.822,11.822,0,0,1,.834,4.442Zm-11.435,6.475a5.15,5.15,0,0,0,4.036-1.852,5.953,5.953,0,0,0,1.184-2.063,8.092,8.092,0,0,0,.38-2.56,6.875,6.875,0,0,0-1.594-4.623,5.12,5.12,0,0,0-4.007-1.852,5.052,5.052,0,0,0-4.021,1.852,6.877,6.877,0,0,0-1.579,4.623,6.822,6.822,0,0,0,1.55,4.653A5.145,5.145,0,0,0,136.182,24.042ZM165.853,6.5l2.691,10.481q.175.633.366,1.476.058.3.161.866t.16.895q.2-.979.366-1.943.088-.467.307-1.3L172.419,6.5h5.893l-6.054,22.048h-5.411L164.2,19.132q-.278-1.054-.468-1.943-.015-.09-.088-.361t-.161-.648q-.029.106-.2.888-.263,1.205-.512,2.063l-2.6,9.412h-5.425L148.7,6.5h5.893l2.457,10.542q.117.527.351,1.641.234,1.175.307,1.657.19-.934.293-1.325.263-1.235.453-1.973L161.144,6.5Z" transform="translate(36.863 -6)"/></g></g></g></svg>