<svg xmlns="http://www.w3.org/2000/svg" width="134" height="19" viewBox="0 0 134 19">
    <g fill="none">
        <path fill="#2985C7" d="M14.735 3.418v3.96c-.488-.558-.995-.948-1.503-1.209-.488-.26-1.033-.39-1.597-.39-1.052 0-1.897.353-2.555 1.06-.639.725-.977 1.636-.977 2.788 0 1.06.338 1.952.996 2.659.676.688 1.522 1.04 2.536 1.04.564 0 1.109-.13 1.597-.39.508-.241 1.015-.65 1.503-1.208v3.96c-.582.279-1.146.483-1.728.632-.583.13-1.165.205-1.748.205-.732 0-1.409-.093-2.029-.26-.62-.168-1.183-.428-1.71-.781-.995-.67-1.766-1.506-2.292-2.51-.526-1.023-.789-2.157-.789-3.421 0-1.023.17-1.934.508-2.77.319-.837.826-1.58 1.503-2.268.638-.651 1.352-1.134 2.142-1.45.807-.316 1.69-.484 2.667-.484.583 0 1.165.075 1.748.205.582.148 1.146.353 1.728.632z" transform="translate(-4.296)"/>
        <path fill="#2985C7" d="M3.379 16.048L3.379 2.756 7.043 2.756 7.043 7.924 11.928 7.924 11.928 2.756 15.592 2.756 15.592 16.048 11.928 16.048 11.928 10.638 7.043 10.638 7.043 16.048z" transform="translate(-4.296) translate(13.423 .142)"/>
        <path fill="#2985C7" d="M5.442 16.048L5.442 2.756 13.672 2.756 13.672 5.674 9.012 5.674 9.012 7.98 13.409 7.98 13.409 10.824 9.012 10.824 9.012 13.074 13.672 13.074 13.672 16.048z" transform="translate(-4.296) translate(26.424 .142)"/>
        <path fill="#2488CC" d="M43.12 11.895c.545.614 1.071 1.06 1.616 1.376.526.298 1.052.446 1.578.446.489 0 .883-.13 1.203-.39.319-.26.47-.595.47-.985 0-.447-.132-.781-.414-1.023-.263-.242-.883-.483-1.841-.744-1.316-.353-2.236-.799-2.781-1.357-.545-.576-.827-1.338-.827-2.324 0-1.264.432-2.305 1.297-3.104.864-.8 1.972-1.209 3.344-1.209.733 0 1.428.093 2.104.298.658.204 1.297.502 1.88.892l-1.147 2.603c-.413-.353-.845-.614-1.278-.8-.432-.167-.864-.26-1.296-.26-.45 0-.808.112-1.07.316-.283.205-.414.484-.414.8 0 .334.113.595.357.799.244.205.714.39 1.409.576l.15.038c1.503.409 2.48.836 2.95 1.32.32.334.564.725.733 1.17.15.466.244.968.244 1.525 0 1.413-.47 2.547-1.41 3.402-.939.856-2.179 1.283-3.738 1.283-.94 0-1.785-.148-2.555-.465-.77-.316-1.503-.818-2.217-1.487l1.653-2.696z" transform="translate(-4.296)"/>
        <path fill="#2985C7" d="M54.038 11.895c.545.614 1.071 1.06 1.616 1.376.526.298 1.052.446 1.578.446.489 0 .883-.13 1.203-.39.32-.26.47-.595.47-.985 0-.447-.132-.781-.414-1.023-.263-.242-.883-.483-1.841-.744-1.315-.353-2.236-.799-2.78-1.357-.546-.576-.828-1.338-.828-2.324 0-1.264.433-2.305 1.297-3.104.864-.8 1.973-1.209 3.344-1.209.733 0 1.428.093 2.105.298.657.204 1.296.502 1.878.892L60.52 6.374c-.413-.353-.845-.614-1.277-.8-.432-.167-.865-.26-1.297-.26-.45 0-.808.112-1.07.316-.282.205-.414.484-.414.8 0 .334.113.595.357.799.244.205.714.39 1.41.576l.15.038c1.503.409 2.48.836 2.95 1.32.319.334.563.725.732 1.17.15.466.244.968.244 1.525 0 1.413-.47 2.547-1.409 3.402-.94.856-2.18 1.283-3.739 1.283-.94 0-1.785-.148-2.555-.465-.77-.316-1.503-.818-2.217-1.487l1.653-2.696z" transform="translate(-4.296)"/>
        <path fill="#1D1D1B" d="M5.442 16.048L5.442 2.756 13.672 2.756 13.672 5.674 9.012 5.674 9.012 7.98 13.409 7.98 13.409 10.824 9.012 10.824 9.012 16.048z" transform="translate(-4.296) translate(58.913 .142)"/>
        <path fill="#1D1D1B" d="M5.442 16.048L5.442 2.756 13.672 2.756 13.672 5.674 9.012 5.674 9.012 7.98 13.409 7.98 13.409 10.824 9.012 10.824 9.012 13.074 13.672 13.074 13.672 16.048z" transform="translate(-4.296) translate(69.134 .142)"/>
        <path fill="#1D1D1B" d="M5.442 16.048L5.442 2.756 9.106 2.756 9.106 12.944 13.653 12.944 13.653 16.048z" transform="translate(-4.296) translate(79.786 .142)"/>
        <path fill="#1D1D1B" d="M5.442 16.048L5.442 2.756 9.106 2.756 9.106 12.944 13.653 12.944 13.653 16.048z" transform="translate(-4.296) translate(89.787 .142)"/>
        <path fill="#1D1D1B" d="M118.69 9.572c0 .948-.169 1.859-.526 2.695-.357.818-.883 1.58-1.56 2.231-.676.65-1.465 1.153-2.348 1.506-.883.372-1.785.54-2.743.54s-1.879-.168-2.762-.54c-.864-.353-1.634-.855-2.31-1.506-.696-.65-1.203-1.413-1.579-2.25-.357-.836-.526-1.728-.526-2.676 0-.949.169-1.841.526-2.678.376-.836.883-1.598 1.578-2.25.677-.65 1.447-1.152 2.311-1.505.883-.353 1.804-.54 2.762-.54s1.879.187 2.762.54c.883.353 1.653.855 2.33 1.506.676.65 1.183 1.394 1.54 2.25.376.836.545 1.728.545 2.677zm-7.177 3.904c1.015 0 1.86-.372 2.518-1.116.676-.725.996-1.654.996-2.788 0-1.116-.339-2.046-.996-2.79-.677-.743-1.522-1.115-2.518-1.115-1.014 0-1.841.372-2.518 1.116-.657.743-.995 1.673-.995 2.789 0 1.134.338 2.082.977 2.807.657.725 1.503 1.097 2.536 1.097zM130.133 2.897l1.69 6.321c.076.28.15.577.226.893.056.297.131.65.207 1.06.094-.465.169-.856.225-1.172.075-.297.132-.558.188-.78l1.578-6.322h3.702l-3.796 13.293h-3.4l-1.654-5.67c-.056-.205-.169-.595-.3-1.172-.076-.26-.113-.464-.15-.613-.038.13-.076.316-.132.54-.132.594-.245 1.003-.32 1.245l-1.634 5.67h-3.401l-3.795-13.293h3.701l1.54 6.358c.076.335.151.651.226.986.057.316.132.65.188 1.004.056-.26.113-.52.188-.8.056-.279.15-.669.282-1.19l1.69-6.358h2.95z" transform="translate(-4.296)"/>
    </g>
</svg>
