<svg id="Group-1" xmlns="http://www.w3.org/2000/svg" width="215.352" height="33.444" viewBox="0 0 215.352 33.444">
  <g id="Mask_Group_1-Clipped" transform="translate(0 0.22)">
    <g id="Mask_Group_1" transform="translate(0 0)">
      <g id="Group_1" data-name="Group 1">
        <path id="Path_2" d="M16.564,1.393V7.831a9.985,9.985,0,0,0-2.389-1.993,5.9,5.9,0,0,0-2.6-.606A5.342,5.342,0,0,0,7.465,6.96,6.166,6.166,0,0,0,6.58,8.252a5.944,5.944,0,0,0-.509,1.521,8.76,8.76,0,0,0-.17,1.72,6.138,6.138,0,0,0,1.593,4.326,5.381,5.381,0,0,0,4.085,1.7,5.737,5.737,0,0,0,2.6-.634A8.841,8.841,0,0,0,16.565,14.9v6.453a13.717,13.717,0,0,1-2.787,1.019,12.107,12.107,0,0,1-2.8.34A12.326,12.326,0,0,1,7.7,22.294a8.672,8.672,0,0,1-2.743-1.277,11.2,11.2,0,0,1-3.687-4.075A12.166,12.166,0,0,1,0,11.375a11.957,11.957,0,0,1,.826-4.5A9.619,9.619,0,0,1,1.765,5,12.62,12.62,0,0,1,3.232,3.18,9.946,9.946,0,0,1,6.713.818,11.18,11.18,0,0,1,10.975.035a12.9,12.9,0,0,1,2.8.325A15.535,15.535,0,0,1,16.564,1.393Zm3.319,20.776V.552h5.884v8.4h7.846V.552h5.9V22.169h-5.9v-8.8H25.767v8.8Zm24.215,0V.552H57.326v4.74H49.835V9.042H56.9v4.636H49.835v3.647h7.492v4.843Zm18.081-6.984a11.326,11.326,0,0,0,2.6,2.23,5.115,5.115,0,0,0,2.537.738,2.928,2.928,0,0,0,1.932-.635,2,2,0,0,0,.767-1.609,2.2,2.2,0,0,0-.634-1.669,8.734,8.734,0,0,0-2.994-1.2,9.767,9.767,0,0,1-4.468-2.215,5.243,5.243,0,0,1-1.327-3.78A6.607,6.607,0,0,1,62.665,2,7.437,7.437,0,0,1,68.033.035a11.071,11.071,0,0,1,3.392.487,11.38,11.38,0,0,1,3.023,1.447L72.605,6.207a7.719,7.719,0,0,0-2.065-1.3,5.537,5.537,0,0,0-2.079-.428A2.806,2.806,0,0,0,66.736,5a1.533,1.533,0,0,0-.664,1.3,1.673,1.673,0,0,0,.575,1.3,6.59,6.59,0,0,0,2.271.93q.059.015.1.022a.97.97,0,0,1,.133.037q3.6.96,4.749,2.156a5.221,5.221,0,0,1,1.178,1.905,7.467,7.467,0,0,1,.383,2.481,7.231,7.231,0,0,1-2.256,5.538,8.556,8.556,0,0,1-6.017,2.082,10.592,10.592,0,0,1-4.107-.753,11.865,11.865,0,0,1-3.562-2.422Zm17.55,0a11.326,11.326,0,0,0,2.6,2.23,5.115,5.115,0,0,0,2.537.738,2.928,2.928,0,0,0,1.932-.635,2,2,0,0,0,.767-1.609,2.2,2.2,0,0,0-.634-1.669,8.734,8.734,0,0,0-2.994-1.2,9.766,9.766,0,0,1-4.468-2.215,5.243,5.243,0,0,1-1.327-3.78A6.607,6.607,0,0,1,80.215,2,7.437,7.437,0,0,1,85.583.035a11.071,11.071,0,0,1,3.392.487A11.38,11.38,0,0,1,92,1.969L90.155,6.207a7.719,7.719,0,0,0-2.065-1.3,5.537,5.537,0,0,0-2.079-.428A2.806,2.806,0,0,0,84.285,5a1.533,1.533,0,0,0-.664,1.3A1.673,1.673,0,0,0,84.2,7.6a6.59,6.59,0,0,0,2.271.93q.059.015.1.022a.971.971,0,0,1,.133.037q3.6.96,4.749,2.156a5.221,5.221,0,0,1,1.179,1.9,7.467,7.467,0,0,1,.384,2.481,7.231,7.231,0,0,1-2.256,5.538,8.556,8.556,0,0,1-6.017,2.082,10.592,10.592,0,0,1-4.107-.753,11.865,11.865,0,0,1-3.562-2.422Z" transform="translate(-0.001 -0.034)" fill="#3e98d4"/>
        <path id="Path_4" d="M63.864,20.784H62.371A1.249,1.249,0,0,1,61.1,21.873a1.154,1.154,0,0,1-.942-.4c-.307-.334-.371-.679-.371-2.167s.064-1.833.371-2.167a1.154,1.154,0,0,1,.942-.4,1.25,1.25,0,0,1,1.271,1.089h1.493A2.672,2.672,0,0,0,61.09,15.4a2.737,2.737,0,0,0-2.033.841,2.193,2.193,0,0,0-.614,1.153,10.662,10.662,0,0,0-.127,1.908,10.662,10.662,0,0,0,.127,1.908,2.233,2.233,0,0,0,.614,1.154,2.737,2.737,0,0,0,2.033.841A2.678,2.678,0,0,0,63.864,20.784Zm6.6-1.477c0-1.326.011-2.286-.752-3.062a2.89,2.89,0,0,0-4.076,0c-.762.776-.741,1.736-.741,3.062s-.021,2.285.741,3.062a2.89,2.89,0,0,0,4.076,0C70.47,21.593,70.46,20.633,70.46,19.307Zm-1.472,0c0,1.477-.085,1.833-.371,2.156a1.214,1.214,0,0,1-.942.41,1.237,1.237,0,0,1-.953-.41c-.286-.323-.36-.679-.36-2.156s.074-1.833.36-2.156a1.237,1.237,0,0,1,.953-.41,1.214,1.214,0,0,1,.942.41c.286.324.37.679.37,2.156Zm9.094,3.838V15.469H76.611v4.7l-2.987-4.7H72.311v7.676h1.472V18.434l2.988,4.711Zm7.877,0V15.469H84.488v4.7l-2.986-4.7H80.189v7.676h1.473V18.434l2.985,4.711Zm7.072,0V21.808H89.538V19.943h2.975V18.606H89.538v-1.8h3.494V15.469H88.066v7.676Zm7.083-2.361H98.622a1.249,1.249,0,0,1-1.27,1.089,1.154,1.154,0,0,1-.942-.4c-.307-.334-.371-.679-.371-2.167s.064-1.833.371-2.167a1.154,1.154,0,0,1,.942-.4,1.249,1.249,0,0,1,1.27,1.089h1.493A2.671,2.671,0,0,0,97.341,15.4a2.737,2.737,0,0,0-2.033.842,2.193,2.193,0,0,0-.614,1.153,10.664,10.664,0,0,0-.127,1.908,10.663,10.663,0,0,0,.127,1.908,2.233,2.233,0,0,0,.614,1.154,2.737,2.737,0,0,0,2.033.841,2.678,2.678,0,0,0,2.774-2.426Zm6.257-3.978V15.469h-5.41v1.337h1.969v6.34H104.4v-6.34Zm3.018,6.34V15.469h-1.472v7.676Zm7.877,0V15.469h-1.472v4.7l-2.985-4.7H111.5v7.676h1.472V18.434l2.986,4.711ZM124.741,20V18.876h-2.848v1.251h1.387v.291a1.526,1.526,0,0,1-.339,1.024,1.345,1.345,0,0,1-1.048.431,1.154,1.154,0,0,1-.942-.4c-.3-.356-.36-.658-.36-2.167s.085-1.8.36-2.156a1.191,1.191,0,0,1,.942-.41,1.289,1.289,0,0,1,1.355,1.121h1.482a2.871,2.871,0,0,0-4.871-1.617,2.193,2.193,0,0,0-.614,1.154,10.661,10.661,0,0,0-.127,1.908,10.661,10.661,0,0,0,.127,1.908,2.233,2.233,0,0,0,.614,1.154,2.737,2.737,0,0,0,2.033.841,2.8,2.8,0,0,0,2.129-.873,3.11,3.11,0,0,0,.72-2.34Z" transform="translate(38.113 10.012)" fill="#161615"/>
        <path id="Path_5" d="M106.641,17.861a2.35,2.35,0,0,0-2.5-2.393H101.2v7.676h1.479v-2.89h1.459A2.35,2.35,0,0,0,106.641,17.861Zm-1.48,0a1.007,1.007,0,0,1-1.1,1.046h-1.385v-2.1h1.384A1.015,1.015,0,0,1,105.161,17.861Zm7.923,5.283V21.807h-3.44V15.468h-1.481v7.676Zm7.337,0-2.769-7.676h-1.161l-2.758,7.676h1.544l.458-1.358h2.694l.447,1.358Zm-2.386-2.62h-1.884l.958-2.792Zm8.4-5.056h-1.607l-1.4,3.094-1.417-3.094H120.41L122.688,20v3.148h1.469V20Zm6.187,7.676V21.807h-3.514V19.943H132.1V18.606h-2.992v-1.8h3.514V15.468h-4.994v7.676Zm7.464,0-1.694-3.31a2.065,2.065,0,0,0,1.384-2.016,2.305,2.305,0,0,0-2.46-2.35h-2.97v7.676h1.48V20.083h1.065l1.48,3.062ZM138.3,17.818a.994.994,0,0,1-1.075,1.013h-1.395V16.806h1.395A.993.993,0,0,1,138.3,17.818Zm8.188,3.062a2.164,2.164,0,0,0-.586-1.628,2.492,2.492,0,0,0-1.448-.593l-.894-.129a1.3,1.3,0,0,1-.7-.3.746.746,0,0,1-.224-.55c0-.528.383-.97,1.171-.97a2.092,2.092,0,0,1,1.555.528l.937-.938a3.224,3.224,0,0,0-2.449-.895,2.347,2.347,0,0,0-2.641,2.328,2.044,2.044,0,0,0,.543,1.509,2.557,2.557,0,0,0,1.469.636l.916.129a1.123,1.123,0,0,1,.671.27.861.861,0,0,1,.235.648c0,.615-.469.949-1.342.949a2.466,2.466,0,0,1-1.832-.647l-.958.97a3.54,3.54,0,0,0,2.769,1.012C145.263,23.209,146.487,22.368,146.487,20.881Z" transform="translate(66.146 10.012)" fill="#3e98d4"/>
      </g>
    </g>
  </g>
  <path id="Path_7" d="M61,28.563V6.5H74.128v4.838H66.693v3.828H73.7V19.9h-7.01v8.666Zm16.3,0V6.5H90.432v4.838H83v3.828h7.01V19.9H83v3.723h7.435v4.943Zm16.992,0V6.5h5.84V23.408h7.259v5.155Zm15.952,0V6.5h5.84V23.408h7.259v5.155Zm37.44-10.987a11.913,11.913,0,0,1-.834,4.476,11.406,11.406,0,0,1-2.488,3.708,11.354,11.354,0,0,1-12.5,2.5,10.944,10.944,0,0,1-3.717-2.5,11.175,11.175,0,0,1-2.488-3.738,11.7,11.7,0,0,1,0-8.892,11.175,11.175,0,0,1,2.488-3.738,11.017,11.017,0,0,1,3.717-2.532A11.2,11.2,0,0,1,136.244,6a11.2,11.2,0,0,1,8.115,3.391,11.671,11.671,0,0,1,2.5,3.738,11.832,11.832,0,0,1,.834,4.446Zm-11.444,6.481a5.154,5.154,0,0,0,4.039-1.854,5.958,5.958,0,0,0,1.185-2.065,8.1,8.1,0,0,0,.38-2.562,6.88,6.88,0,0,0-1.6-4.627,5.124,5.124,0,0,0-4.01-1.853,5.056,5.056,0,0,0-4.025,1.854,6.883,6.883,0,0,0-1.581,4.627,6.828,6.828,0,0,0,1.551,4.657A5.15,5.15,0,0,0,136.244,24.056ZM165.939,6.5l2.693,10.49q.176.633.366,1.477.058.3.161.867t.161.9q.2-.98.366-1.944.088-.467.307-1.3L172.51,6.5h5.9l-6.059,22.066h-5.415l-2.649-9.42q-.278-1.055-.468-1.944-.015-.09-.088-.362t-.161-.648q-.029.106-.2.889-.263,1.206-.512,2.065l-2.605,9.42h-5.43L148.771,6.5h5.9l2.459,10.55q.117.527.351,1.643.234,1.176.307,1.658.19-.934.293-1.326.263-1.236.454-1.974L161.226,6.5Z" transform="translate(36.943 -6)" fill="#161615"/>
</svg>
