<svg xmlns="http://www.w3.org/2000/svg" width="218" height="40" viewBox="0 0 218 40">
    <g fill="none">
        <g>
            <path fill="#1D1D1B" d="M7.65 6.496H6.262c-.148.598-.522.99-1.181.99-.374 0-.67-.118-.876-.363-.286-.303-.345-.617-.345-1.968 0-1.35.059-1.664.345-1.968.206-.244.502-.362.876-.362.66 0 1.033.392 1.181.989H7.65c-.236-1.42-1.23-2.203-2.58-2.203-.747 0-1.377.255-1.89.764-.304.303-.492.646-.57 1.047-.079.392-.118.97-.118 1.733 0 .764.039 1.341.118 1.733.078.392.266.744.57 1.048.513.509 1.143.763 1.89.763 1.34 0 2.344-.783 2.58-2.203zM14.03 5.155c0-1.204.01-2.075-.7-2.78-.492-.49-1.092-.764-1.89-.764-.797 0-1.408.274-1.9.764-.709.705-.689 1.576-.689 2.78 0 1.204-.02 2.076.69 2.78.491.49 1.102.764 1.9.764.797 0 1.397-.274 1.89-.763.708-.705.698-1.577.698-2.78zm-1.37 0c0 1.341-.078 1.665-.344 1.958-.197.225-.502.372-.876.372s-.689-.147-.886-.372c-.266-.293-.335-.617-.335-1.958s.07-1.664.335-1.958c.197-.225.512-.372.886-.372s.68.147.876.372c.266.294.345.617.345 1.958z" transform="translate(93.002 29.391)"/>
            <path fill="#1D1D1B" d="M7.618 8.549L7.618 1.579 6.249 1.579 6.249 5.847 3.473 1.579 2.253 1.579 2.253 8.549 3.621 8.549 3.621 4.271 6.397 8.549z" transform="translate(93.002 29.391) translate(13.43 .091)"/>
            <path fill="#1D1D1B" d="M7.618 8.549L7.618 1.579 6.249 1.579 6.249 5.847 3.473 1.579 2.253 1.579 2.253 8.549 3.621 8.549 3.621 4.271 6.397 8.549z" transform="translate(93.002 29.391) translate(20.687 .091)"/>
            <path fill="#1D1D1B" d="M7.331 8.549L7.331 7.335 4.082 7.335 4.082 5.642 6.849 5.642 6.849 4.428 4.082 4.428 4.082 2.793 7.331 2.793 7.331 1.579 2.714 1.579 2.714 8.549z" transform="translate(93.002 29.391) translate(27.48 .091)"/>
            <path fill="#1D1D1B" d="M41.329 6.496H39.94c-.147.598-.521.99-1.18.99-.375 0-.67-.118-.877-.363-.286-.303-.345-.617-.345-1.968 0-1.35.06-1.664.345-1.968.207-.244.502-.362.876-.362.66 0 1.034.392 1.181.989h1.389c-.237-1.42-1.231-2.203-2.58-2.203-.748 0-1.378.255-1.89.764-.305.303-.492.646-.57 1.047-.08.392-.119.97-.119 1.733 0 .764.04 1.341.118 1.733.079.392.266.744.571 1.048.512.509 1.142.763 1.89.763 1.34 0 2.343-.783 2.58-2.203z" transform="translate(93.002 29.391)"/>
            <path fill="#1D1D1B" d="M7.481 2.793L7.481 1.579 2.451 1.579 2.451 2.793 4.282 2.793 4.282 8.549 5.65 8.549 5.65 2.793z" transform="translate(93.002 29.391) translate(39.793 .091)"/>
            <path fill="#1D1D1B" d="M0.083 0.001H1.451V6.972H0.083z" transform="translate(93.002 29.391) translate(48.56 1.669)"/>
            <path fill="#1D1D1B" d="M7.618 8.549L7.618 1.579 6.249 1.579 6.249 5.847 3.473 1.579 2.253 1.579 2.253 8.549 3.621 8.549 3.621 4.271 6.397 8.549z" transform="translate(93.002 29.391) translate(49.648 .091)"/>
            <path fill="#1D1D1B" d="M64.147 5.782V4.764H61.5v1.135h1.29v.265c0 .381-.108.695-.315.93-.246.264-.571.391-.975.391-.374 0-.67-.117-.876-.362-.276-.323-.335-.597-.335-1.968 0-1.38.08-1.635.335-1.958.217-.245.512-.372.876-.372.68 0 1.093.343 1.26 1.018h1.379c-.188-1.214-1.044-2.232-2.639-2.232-.748 0-1.378.255-1.89.764-.305.303-.492.646-.57 1.047-.08.392-.119.97-.119 1.733 0 .764.04 1.341.118 1.733.079.392.266.744.571 1.048.512.509 1.142.763 1.89.763.788 0 1.438-.245 1.979-.793.482-.509.67-1.106.67-2.124z" transform="translate(93.002 29.391)"/>
            <path fill="#2985C7" d="M73.846 3.843c0-1.184-.866-2.173-2.314-2.173h-2.717v6.97h1.369V6.017h1.348c1.448 0 2.314-.99 2.314-2.174zm-1.368 0c0 .568-.394.95-1.014.95h-1.28v-1.91h1.28c.62 0 1.014.392 1.014.96z" transform="translate(93.002 29.391)"/>
            <path fill="#2985C7" d="M7.262 8.549L7.262 7.335 4.082 7.335 4.082 1.579 2.714 1.579 2.714 8.549z" transform="translate(93.002 29.391) translate(72.54 .091)"/>
            <path fill="#2985C7" d="M86.585 8.64l-2.56-6.97h-1.072l-2.55 6.97h1.427l.424-1.233h2.49l.414 1.233h1.427zM84.38 6.261h-1.742l.886-2.535.856 2.535z" transform="translate(93.002 29.391)"/>
            <path fill="#2985C7" d="M7.757 1.579L6.271 1.579 4.981 4.388 3.672 1.579 2.185 1.579 4.292 5.691 4.292 8.549 5.65 8.549 5.65 5.691z" transform="translate(93.002 29.391) translate(84.735 .091)"/>
            <path fill="#2985C7" d="M7.331 8.549L7.331 7.335 4.082 7.335 4.082 5.642 6.849 5.642 6.849 4.428 4.082 4.428 4.082 2.793 7.331 2.793 7.331 1.579 2.714 1.579 2.714 8.549z" transform="translate(93.002 29.391) translate(90.88 .091)"/>
            <path fill="#2985C7" d="M105.112 8.64l-1.565-3.005c.679-.245 1.28-.852 1.28-1.83 0-1.166-.847-2.135-2.275-2.135h-2.746v6.97h1.368V5.86h.985l1.368 2.78h1.585zm-1.654-4.836c0 .539-.394.92-.994.92h-1.29v-1.84h1.29c.6 0 .994.382.994.92zM111.028 6.585c0-.617-.167-1.126-.541-1.479-.295-.274-.699-.45-1.339-.538l-.827-.118c-.285-.039-.512-.147-.65-.274-.147-.137-.206-.323-.206-.5 0-.479.354-.88 1.083-.88.462 0 .994.059 1.437.48l.866-.852c-.6-.578-1.3-.813-2.264-.813-1.516 0-2.441.871-2.441 2.115 0 .587.167 1.038.502 1.37.315.304.758.49 1.358.578l.847.118c.325.049.482.117.62.244.148.137.217.343.217.588 0 .558-.434.861-1.24.861-.65 0-1.251-.147-1.694-.587l-.886.881c.689.695 1.496.92 2.56.92 1.466 0 2.598-.763 2.598-2.114z" transform="translate(93.002 29.391)"/>
        </g>
        <path fill="#2985C7" d="M21.796 8.894v5.81c-.723-.818-1.473-1.391-2.224-1.773-.722-.382-1.528-.573-2.362-.573-1.556 0-2.807.519-3.78 1.555-.944 1.064-1.445 2.4-1.445 4.092 0 1.555.5 2.864 1.473 3.9 1 1.01 2.251 1.528 3.752 1.528.834 0 1.64-.19 2.362-.572.75-.355 1.501-.955 2.224-1.774v5.81c-.862.41-1.696.71-2.557.928-.862.191-1.723.3-2.585.3-1.084 0-2.084-.136-3.001-.381-.917-.246-1.75-.628-2.53-1.146-1.472-.982-2.611-2.21-3.39-3.683-.778-1.5-1.167-3.164-1.167-5.02 0-1.5.25-2.836.75-4.064.473-1.227 1.223-2.318 2.224-3.328.945-.955 2-1.664 3.168-2.128 1.195-.463 2.501-.709 3.946-.709.862 0 1.723.11 2.585.3.861.219 1.695.519 2.557.928z"/>
        <path fill="#2985C7" d="M4.998 23.548L4.998 4.043 10.417 4.043 10.417 11.627 17.643 11.627 17.643 4.043 23.062 4.043 23.062 23.548 17.643 23.548 17.643 15.61 10.417 15.61 10.417 23.548z" transform="translate(19.854 4.087)"/>
        <path fill="#2985C7" d="M8.05 23.548L8.05 4.043 20.222 4.043 20.222 8.326 13.33 8.326 13.33 11.709 19.833 11.709 19.833 15.883 13.33 15.883 13.33 19.183 20.222 19.183 20.222 23.548z" transform="translate(39.085 4.087)"/>
        <path fill="#2985C7" d="M63.78 21.333c.806.9 1.584 1.555 2.39 2.019.779.436 1.557.654 2.335.654.722 0 1.306-.19 1.778-.573.473-.381.695-.872.695-1.445 0-.655-.194-1.146-.611-1.5-.39-.355-1.306-.71-2.724-1.092-1.945-.518-3.307-1.173-4.113-1.991-.806-.846-1.223-1.964-1.223-3.41 0-1.855.64-3.383 1.918-4.556s2.918-1.773 4.947-1.773c1.084 0 2.112.137 3.112.437.973.3 1.918.736 2.78 1.31l-1.696 3.818c-.611-.518-1.25-.9-1.89-1.173-.639-.245-1.278-.382-1.917-.382-.667 0-1.195.164-1.584.464-.417.3-.612.71-.612 1.173 0 .491.167.873.528 1.173.362.3 1.056.573 2.085.846l.222.054c2.223.6 3.668 1.228 4.363 1.937.473.491.834 1.064 1.084 1.719.222.682.361 1.418.361 2.236 0 2.074-.694 3.738-2.084 4.993-1.39 1.254-3.224 1.882-5.53 1.882-1.39 0-2.64-.218-3.78-.682-1.14-.464-2.223-1.2-3.28-2.183l2.446-3.955zM79.93 21.333c.806.9 1.584 1.555 2.39 2.019.778.436 1.556.654 2.334.654.723 0 1.306-.19 1.779-.573.472-.381.695-.872.695-1.445 0-.655-.195-1.146-.612-1.5-.389-.355-1.306-.71-2.723-1.092-1.946-.518-3.307-1.173-4.113-1.991-.806-.846-1.223-1.964-1.223-3.41 0-1.855.64-3.383 1.918-4.556s2.918-1.773 4.946-1.773c1.084 0 2.112.137 3.113.437.973.3 1.917.736 2.779 1.31l-1.695 3.818c-.612-.518-1.25-.9-1.89-1.173-.64-.245-1.278-.382-1.918-.382-.667 0-1.195.164-1.584.464-.417.3-.611.71-.611 1.173 0 .491.167.873.528 1.173.361.3 1.056.573 2.084.846l.223.054c2.223.6 3.668 1.228 4.363 1.937.472.491.833 1.064 1.084 1.719.222.682.36 1.418.36 2.236 0 2.074-.694 3.738-2.084 4.993-1.389 1.254-3.223 1.882-5.53 1.882-1.39 0-2.64-.218-3.78-.682-1.139-.464-2.223-1.2-3.279-2.183l2.446-3.955z"/>
        <path fill="#1D1D1B" d="M8.05 23.548L8.05 4.043 20.222 4.043 20.222 8.326 13.33 8.326 13.33 11.709 19.833 11.709 19.833 15.883 13.33 15.883 13.33 23.548z" transform="translate(87.14 4.087)"/>
        <path fill="#1D1D1B" d="M8.05 23.548L8.05 4.043 20.222 4.043 20.222 8.326 13.33 8.326 13.33 11.709 19.833 11.709 19.833 15.883 13.33 15.883 13.33 19.183 20.222 19.183 20.222 23.548z" transform="translate(102.258 4.087)"/>
        <path fill="#1D1D1B" d="M8.05 23.548L8.05 4.043 13.469 4.043 13.469 18.992 20.195 18.992 20.195 23.548z" transform="translate(118.014 4.087)"/>
        <path fill="#1D1D1B" d="M8.05 23.548L8.05 4.043 13.469 4.043 13.469 18.992 20.195 18.992 20.195 23.548z" transform="translate(132.806 4.087)"/>
        <path fill="#1D1D1B" d="M175.559 17.923c0 1.391-.25 2.728-.778 3.956-.528 1.2-1.306 2.318-2.307 3.273-1 .955-2.167 1.691-3.474 2.21-1.306.545-2.64.79-4.057.79-1.417 0-2.78-.245-4.085-.79-1.279-.519-2.418-1.255-3.419-2.21-1.028-.955-1.778-2.073-2.334-3.3-.528-1.228-.778-2.538-.778-3.929s.25-2.7.778-3.928c.556-1.228 1.306-2.346 2.334-3.3 1-.956 2.14-1.692 3.419-2.21 1.306-.519 2.668-.792 4.085-.792 1.417 0 2.779.273 4.085.792 1.306.518 2.446 1.254 3.446 2.21 1 .954 1.751 2.045 2.279 3.3.556 1.227.806 2.537.806 3.928zm-10.616 5.729c1.5 0 2.751-.546 3.724-1.637 1-1.064 1.473-2.428 1.473-4.092 0-1.637-.5-3-1.473-4.092-1-1.09-2.251-1.636-3.724-1.636-1.5 0-2.724.545-3.724 1.636-.973 1.091-1.473 2.455-1.473 4.092 0 1.664.5 3.055 1.445 4.12.973 1.063 2.223 1.609 3.752 1.609zM192.483 8.13l2.502 9.275c.11.409.222.845.333 1.31.084.436.195.954.306 1.554.139-.682.25-1.255.333-1.718.111-.437.195-.819.278-1.146l2.335-9.275h5.474l-5.613 19.504h-5.03l-2.446-8.32c-.083-.3-.25-.873-.445-1.718-.11-.382-.166-.682-.222-.9-.056.19-.111.463-.195.79-.194.874-.36 1.474-.472 1.828l-2.418 8.32h-5.03L176.56 8.13h5.475l2.279 9.33c.111.49.222.954.334 1.445.083.464.194.955.277 1.473.084-.382.167-.764.278-1.173.084-.409.223-.982.417-1.746l2.501-9.329h4.363zM217.68 5.063c0-2.728-2.252-4.937-5.03-4.937-2.78 0-5.031 2.21-5.031 4.937 0 2.728 2.251 4.938 5.03 4.938 2.78 0 5.03-2.21 5.03-4.938zm-1.015 0c0 2.25-1.765 4.024-4.016 4.024-2.25 0-4.03-1.773-4.03-4.024 0-2.25 1.78-4.023 4.03-4.023 2.251 0 4.016 1.773 4.016 4.023zm-1.834 2.66l-1.21-2.25c.598-.205 1.07-.696 1.07-1.446 0-.887-.722-1.637-1.75-1.637h-2.043v5.333h1V5.609h.696l1.111 2.114h1.126zm-1.126-3.696c0 .45-.361.804-.89.804h-.916V3.222h.917c.528 0 .89.355.89.805z"/>
    </g>
</svg>
