<svg xmlns="http://www.w3.org/2000/svg" width="160" height="206" viewBox="0 0 160 206">
    <g fill="none">
        <g transform="matrix(-1 0 0 1 160 0)">
            <path fill="#FFB8B8" d="M160 132.957l-28.542-20.751s-16.35-27.668-19.12-45.375c-2.772-17.708-15.242-49.25-15.242-49.25V.982s-14.41-5.534-15.518 9.684c-1.108 15.217 3.049 34.861 3.049 34.861s4.156 24.901-5.266 31.265L45 132.957s32.976 30.158 58.747 34.031L160 206v-73.043zM12 54h-1.025C1.739 54-3.452 64.032 2.616 70.438 4.57 72.499 7.54 73.927 12 74V54zM12 74h-1.025C1.739 74-3.452 84.032 2.616 90.438 4.57 92.499 7.54 93.927 12 94V74zM12 94h-1.025c-9.236 0-14.427 10.032-8.359 16.438C4.57 112.499 7.54 113.927 12 114V94z"/>
            <path fill="#FFB8B8" d="M12 113h-1.025c-9.236 0-14.427 10.032-8.359 16.438C4.57 131.499 7.54 132.927 12 133v-20z"/>
            <path fill="#3F3D56" d="M85 48.646h-.826V26.068c0-3.466-1.381-6.79-3.838-9.24C77.878 14.376 74.546 13 71.07 13H23.104c-3.476 0-6.809 1.377-9.266 3.827C11.381 19.278 10 22.602 10 26.067v123.865c0 3.466 1.38 6.79 3.838 9.24 2.457 2.451 5.79 3.828 9.266 3.828H71.07c3.475 0 6.808-1.377 9.266-3.827 2.457-2.451 3.838-5.775 3.838-9.24V64.716H85V48.646z"/>
            <path fill="#2488CC" d="M81 26.746v123.508c-.004 2.925-1.327 5.695-3.606 7.55-.249.203-.508.392-.777.567-1.61 1.065-3.502 1.632-5.436 1.629H22.819c-.784 0-1.565-.091-2.326-.277-4.399-1.064-7.493-4.975-7.493-9.469V26.746C13 21.363 17.396 17 22.82 17h5.868c-.587 1.427-.42 3.051.447 4.33.867 1.28 2.318 2.047 3.872 2.047h27.571c1.553-.001 3.003-.77 3.87-2.048.866-1.278 1.036-2.901.452-4.329h6.28c5.424 0 9.82 4.363 9.82 9.746z"/>
            <ellipse cx="98" cy="109.5" fill="#FFB8B8" rx="21" ry="46.5"/>
            <path fill="#000" d="M22 52c-2.427 0-4.614-1.462-5.543-3.704-.929-2.242-.415-4.823 1.3-6.538 1.716-1.716 4.297-2.23 6.54-1.301C26.537 41.386 28 43.573 28 46c-.004 3.312-2.688 5.996-6 6zm0-11.4c-2.982 0-5.4 2.418-5.4 5.4s2.418 5.4 5.4 5.4 5.4-2.418 5.4-5.4c-.003-2.98-2.419-5.396-5.4-5.4z" opacity=".2"/>
            <circle cx="21" cy="44" r="1" fill="#000" opacity=".2"/>
            <circle cx="25" cy="44" r="1" fill="#000" opacity=".2"/>
            <path fill="#000" d="M24.765 48h-3.53c-.13 0-.235-.224-.235-.5s.105-.5.235-.5h3.53c.13 0 .235.224.235.5s-.105.5-.235.5zM71 52c-2.427 0-4.614-1.462-5.543-3.704-.929-2.242-.415-4.823 1.3-6.538 1.716-1.716 4.297-2.23 6.54-1.301C75.537 41.386 77 43.573 77 46c-.004 3.312-2.688 5.996-6 6zm0-11.4c-2.184 0-4.153 1.316-4.989 3.334-.836 2.017-.374 4.34 1.17 5.884 1.545 1.545 3.868 2.007 5.886 1.171C75.084 50.153 76.4 48.184 76.4 46c-.003-2.98-2.419-5.396-5.4-5.4z" opacity=".2"/>
            <circle cx="70" cy="44" r="1" fill="#000" opacity=".2"/>
            <circle cx="73" cy="44" r="1" fill="#000" opacity=".2"/>
            <path fill="#000" d="M73.764 48c-.04 0-.081-.011-.117-.032-1.005-.652-2.288-.652-3.294 0-.073.043-.163.043-.235 0-.073-.043-.118-.123-.118-.209s.045-.165.118-.208c1.152-.735 2.612-.735 3.764 0 .092.054.138.165.11.27-.028.106-.121.179-.228.179z" opacity=".2"/>
            <path fill="#FFF" d="M47.5 56C41.701 56 37 51.299 37 45.5S41.701 35 47.5 35 58 39.701 58 45.5c-.007 5.796-4.704 10.493-10.5 10.5zm0-19.95c-5.22 0-9.45 4.23-9.45 9.45 0 5.22 4.23 9.45 9.45 9.45 5.22 0 9.45-4.23 9.45-9.45-.006-5.217-4.233-9.444-9.45-9.45z"/>
            <circle cx="43.5" cy="43.5" r="1.5" fill="#FFF"/>
            <circle cx="51.5" cy="43.5" r="1.5" fill="#FFF"/>
            <path fill="#FFF" d="M47.3 50c-1.582 0-3.26-.41-5.032-1.228-.272-.127-.35-.386-.173-.58.176-.195.54-.25.813-.125 3.118 1.443 5.775 1.453 8.124.032.248-.15.619-.127.828.05.21.176.18.44-.067.59C50.405 49.58 48.903 50 47.3 50zM67 65L59 65 59 63.769 65.769 63.769 65.769 57 67 57zM30.231 35L29 35 29 27 37 27 37 28.231 30.231 28.231z"/>
        </g>
        <path fill="#EFEFF4" d="M134 102.366L118.48 87v8.766c-7.223 1.03-12.987 3.953-17.292 8.765C97.646 108.588 95.25 113.744 94 120c2.778-3.85 6.146-6.686 10.104-8.508 3.958-1.822 8.75-2.733 14.375-2.733v8.972L134 102.366z"/>
    </g>
</svg>
