<svg xmlns="http://www.w3.org/2000/svg" xmlns:xlink="http://www.w3.org/1999/xlink" width="189" height="163" viewBox="0 0 189 163">
    <defs>
        <circle id="prefix__a" cx="31.5" cy="31.5" r="31.5"/>
        <circle id="prefix__c" cx="31.5" cy="31.5" r="31.5"/>
    </defs>
    <g fill="none" fill-rule="evenodd">
        <g transform="translate(4) matrix(-1 0 0 1 63 96)">
            <mask id="prefix__b" fill="#fff">
                <use xlink:href="#prefix__a"/>
            </mask>
            <circle cx="31.5" cy="31.5" r="33.5" stroke="#2488CC" stroke-width="4"/>
            <g fill-rule="nonzero" mask="url(#prefix__b)">
                <g transform="translate(6.794 4.324)">
                    <path fill="#FFB8B8" d="M17.294 26.584s3.364 9.39.748 14.648C15.425 46.49 22.153 52.5 22.153 52.5s17.568-9.014 15.326-13.521c-2.243-4.508-5.98-10.517-5.233-14.273l-14.952 1.878z"/>
                    <circle cx="23.779" cy="17.603" r="12.044" fill="#FFB8B8"/>
                    <path fill="#FFF" d="M47.559 60.503c-.32.407-.685.778-1.087 1.106-.18.147-.368.284-.562.411-1.126.746-2.474.98-3.928.98H11.118l.533-14.745 3.43-7.587c.771.6 1.595 1.13 2.463 1.58.206.11.423.221.65.33 3.214 1.544 8.467 2.903 13.558-.88 1.603-1.19 3.19-2.892 4.693-5.257l9.507 5.365.5 5.811 1.107 12.886z"/>
                    <path fill="#2F2E41" d="M19.147 34.588l-.48 5-.254 2.642-.378 3.933L16.415 63h-9.23c-.57.001-1.139-.067-1.692-.202l-3.64-16.762.105-.069 17.19-11.379zM48.794 38.101V55.91c-.003 2.128-.948 4.143-2.576 5.492-.177.148-.363.285-.555.413-1.15.775-2.502 1.187-3.884 1.185H29.647c.265-5.628.733-11.12 1.28-15.905.235-2.038.484-3.947.738-5.684.82-5.597 1.7-9.398 2.331-9.911l4.173 2.783L48.794 38.1z"/>
                    <path fill="#2F2E41" d="M10.5 59.8l-.436 3.2H7.052c-.563.001-1.124-.067-1.67-.201C2.221 62.024 0 59.179 0 55.909v-.644l1.409-9.179.482-.068 2.17-.312L10.5 59.8zM34.948 6.663c-1.812-2.99-4.65-5.192-7.966-6.184l-2.436 1.978.947-2.307c-.796-.124-1.602-.17-2.408-.142L20.894 2.87 21.8.106c-3.787.49-7.387 2.585-9.57 5.78-2.788 4.084-3.26 9.763-.516 13.879.753-2.35 1.667-4.555 2.42-6.905.174.075.833.07 1.785.009l.916-2.171.256 2.079c2.84-.251 7.052-.803 9.745-1.308l-.262-1.595 1.566 1.325c.825-.193 1.315-.368 1.274-.501 2.003 3.277 3.987 5.371 5.989 8.649.76-4.624 2.102-8.467-.456-12.684z"/>
                </g>
            </g>
        </g>
        <g transform="translate(4) translate(118 9)">
            <mask id="prefix__d" fill="#fff">
                <use xlink:href="#prefix__c"/>
            </mask>
            <circle cx="31.5" cy="31.5" r="33.5" stroke="#2488CC" stroke-width="4"/>
            <g fill-rule="nonzero" mask="url(#prefix__d)">
                <g transform="translate(5.559 4.324)">
                    <path fill="#2F2E41" d="M20.86 1.278s-5.22-1.856-8.577 5.568C8.927 14.27 3.706 22.437 3.706 22.437l2.983.742s.746-5.197 2.61-5.939l-.745 6.682s22.375 7.795 32.444-.743l-.373-2.598s1.492.371 1.492 2.598l1.118-1.113s-1.118-2.227-4.475-5.197c-2.203-1.95-2.96-5.658-3.22-7.976-.195-1.936-.973-3.768-2.232-5.256-2.23-2.573-6.295-5.308-12.448-2.359z"/>
                    <circle cx="23.471" cy="16.676" r="9.882" fill="#FFB9B9"/>
                    <path fill="#FFB9B9" d="M20.923 22.235l-3.011 12.288 9.033 26.624 7.026-28.16s-6.524-4.608-5.019-10.752h-8.03z"/>
                    <path fill="#CFCCE0" d="M46.324 92.705s-14.824 5.64-17.89-3.077c-3.068-8.717-2.557-15.383-2.557-15.383s-4.6 17.947-12.267 17.947c-7.668 0-11.757-2.564-11.757-2.564s5.623-17.947 10.734-21.023l.072-.175c.286-.718 1.298-3.564.588-6.066-.145-.515-.367-1.004-.66-1.451-2.044-3.077-4.089-4.102-3.578-11.794L4.92 34.761 19.024 31.5l7.365 23.26 6.707-22.773L45.3 33.736s1.023 18.46-4.09 25.126c-.803 1.05-1.412 2.236-1.798 3.502-.89 2.83-.68 5.81-.2 8.19h.005c.321 1.621.818 3.203 1.483 4.717l5.623 17.434z"/>
                    <path fill="#CFCCE0" d="M42.618 33.885l2.925-.52s1.22-.259 3.414 1.558c2.802 2.32 2.925 33.734 2.925 33.734l-9.264.52V33.884zM7 35.634L4.5 34.62s-1-.507-1.5 2.536-3 34.491-3 34.491l10.5-.507V48.315L7 35.635z"/>
                    <path fill="#2F2E41" d="M12.107 17.912s2.973-4.118 5.575-4.867c2.602-.748 2.974-4.492 2.974-4.492s6.69 7.487 10.778 7.861c4.089.375.372-8.984.372-8.984L24.372 5.56l-7.062.748-5.575 3.744.372 7.86z"/>
                </g>
            </g>
        </g>
        <g fill-rule="nonzero" transform="translate(4) translate(58 72)">
            <path fill="#2488CC" d="M7.21 38.703C2.377 25.198 8.213 10.216 20.947 3.444 33.68-3.328 49.49.141 58.157 11.608c8.666 11.467 7.587 27.493-2.538 37.715C45.493 59.546 29.358 60.9 17.645 52.51c-2.155 3.696-6.556 5.483-10.706 4.346-4.15-1.137-7.002-4.91-6.938-9.18.064-4.27 3.027-7.959 7.21-8.973z"/>
            <ellipse cx="23.612" cy="28.074" fill="#CFCCE0" rx="3.107" ry="3.394"/>
            <ellipse cx="35.107" cy="28.074" fill="#CFCCE0" rx="3.417" ry="3.394"/>
            <ellipse cx="46.602" cy="28.074" fill="#CFCCE0" rx="3.107" ry="3.394"/>
        </g>
        <g fill-rule="nonzero" transform="translate(4) matrix(-1 0 0 1 127 0)">
            <path fill="#EFEFF4" d="M7.21 38.703C2.377 25.198 8.213 10.216 20.947 3.444 33.68-3.328 49.49.141 58.157 11.608c8.666 11.467 7.587 27.493-2.538 37.715C45.493 59.546 29.358 60.9 17.645 52.51c-2.155 3.696-6.556 5.483-10.706 4.346-4.15-1.137-7.002-4.91-6.938-9.18.064-4.27 3.027-7.959 7.21-8.973z"/>
            <ellipse cx="23.612" cy="28.074" fill="#2488CC" rx="3.107" ry="3.394"/>
            <ellipse cx="35.107" cy="28.074" fill="#2488CC" rx="3.417" ry="3.394"/>
            <ellipse cx="46.602" cy="28.074" fill="#2488CC" rx="3.107" ry="3.394"/>
        </g>
    </g>
</svg>
