<svg xmlns="http://www.w3.org/2000/svg" width="127" height="153" viewBox="0 0 127 153">
    <defs>
        <linearGradient id="prefix__a" x1="50%" x2="50%" y1="100.001%" y2="0%">
            <stop offset="0%" stop-color="gray" stop-opacity=".25"/>
            <stop offset="54%" stop-color="gray" stop-opacity=".12"/>
            <stop offset="100%" stop-color="gray" stop-opacity=".1"/>
        </linearGradient>
        <linearGradient id="prefix__b" x1="49.984%" x2="49.984%" y1="99.984%" y2=".018%">
            <stop offset="0%" stop-color="gray" stop-opacity=".25"/>
            <stop offset="54%" stop-color="gray" stop-opacity=".12"/>
            <stop offset="100%" stop-color="gray" stop-opacity=".1"/>
        </linearGradient>
        <linearGradient id="prefix__c" x1=".02%" x2="100.01%" y1="49.978%" y2="49.978%">
            <stop offset="0%" stop-color="gray" stop-opacity=".25"/>
            <stop offset="54%" stop-color="gray" stop-opacity=".12"/>
            <stop offset="100%" stop-color="gray" stop-opacity=".1"/>
        </linearGradient>
        <linearGradient id="prefix__d" x1="49.992%" x2="49.992%" y1="100.011%" y2=".019%">
            <stop offset="0%" stop-color="gray" stop-opacity=".25"/>
            <stop offset="54%" stop-color="gray" stop-opacity=".12"/>
            <stop offset="100%" stop-color="gray" stop-opacity=".1"/>
        </linearGradient>
        <linearGradient id="prefix__e" x1="49.984%" x2="49.984%" y1="100.004%" y2="-.031%">
            <stop offset="0%" stop-color="gray" stop-opacity=".25"/>
            <stop offset="54%" stop-color="gray" stop-opacity=".12"/>
            <stop offset="100%" stop-color="gray" stop-opacity=".1"/>
        </linearGradient>
        <linearGradient id="prefix__f" x1="49.958%" x2="49.958%" y1="100.082%" y2=".008%">
            <stop offset="0%" stop-color="gray" stop-opacity=".25"/>
            <stop offset="54%" stop-color="gray" stop-opacity=".12"/>
            <stop offset="100%" stop-color="gray" stop-opacity=".1"/>
        </linearGradient>
    </defs>
    <g fill="none">
        <path fill="url(#prefix__a)" d="M9 2H127V144H9z"/>
        <path fill="#FFF" d="M11 4H126V142H11z"/>
        <path fill="#C0BCCF" d="M55 19H101V21H55zM55 27H101V29H55z"/>
        <path fill="#2488CC" d="M67 34H91V36H67z"/>
        <path fill="#C0BCCF" d="M55 65H101V67H55zM55 72H101V74H55z" opacity=".5"/>
        <path fill="#2488CC" d="M67 79H91V81H67z" opacity=".5"/>
        <path fill="#C0BCCF" d="M55 110H101V112H55zM55 117H101V119H55z" opacity=".5"/>
        <path fill="#2488CC" d="M67 124H91V126H67z" opacity=".5"/>
        <g opacity=".5" transform="translate(17 59)">
            <path fill="#C0BCCF" d="M25.863 13.084c.006 3.08-1.097 6.061-3.106 8.397-.099.116-.202.23-.306.342-.052.058-.105.115-.16.17-.427.45-.888.869-1.377 1.251l-.034.025c-.756.593-1.578 1.097-2.448 1.503-.447.21-.906.394-1.374.55l-.173.056c-.106.036-.217.068-.325.098l-.043.013c-2.33.666-4.798.666-7.127 0h-.019c-.19-.055-.38-.111-.554-.174l-.161-.057c-.614-.216-1.21-.48-1.784-.79l-.036-.019c-.911-.493-1.76-1.094-2.528-1.79l-.063-.058c-.392-.355-.76-.735-1.102-1.139-.046-.05-.09-.104-.133-.157-.084-.099-.163-.201-.243-.304C-.694 16.546-.86 10.36 2.357 5.724 5.576 1.09 11.43-.917 16.815.768c5.384 1.686 9.05 6.674 9.05 12.316z"/>
            <path fill="url(#prefix__b)" d="M22.332 17.437l-.98-.44c.015-.149.022-.299.02-.448.006-.127.006-.253 0-.38-.098-.998-.733-1.867-1.183-2.78-.412-.833-.673-1.733-.773-2.657-.12-1.139 0-2.319-.417-3.39-.34-.863-1.012-1.584-1.73-2.222-.808-.757-1.752-1.356-2.781-1.763-1.052-.38-2.26-.476-3.312-.089-.949.35-1.68 1.046-2.385 1.723-.513.452-.966.967-1.348 1.534-.43.706-.615 1.518-.759 2.319-.227 1.282-.382 2.576-.467 3.875-.074 1.084-.19 2.314-1.116 2.978-.451.324-1.087.507-1.294.998-.059.148-.082.307-.068.465-.006.132.004.263.028.393.013.076.029.15.048.226-.266.66-.49 1.337-.668 2.027-.139.512-.266 1.015-.38 1.503h.471l1.768.041h.025l1.898.044h.01l1.768.042h.044l.51.036h.167l7.073.163h.038l.471.011h.165l1.416.033 2.088.047h.015l1.571.038h.49l-.084-1.647c.346-2.522-.34-2.68-.34-2.68zm-7.947-.201c0 1.397-1.495 3.107-1.495 3.107l-1.505-2.05.055-.08 1.45 1.974s1.495-1.708 1.495-3.107c.035-.07.075-.14.12-.205l.034.107c-.057.08-.109.165-.154.254zm2.3 5.48c0-.07 0-.142-.013-.212s-.011-.133-.02-.2l-.027-.204c-.01-.068-.023-.135-.036-.203l-.042-.203c0-.023-.01-.044-.015-.068-.021-.09-.044-.179-.068-.268-.025-.09-.04-.144-.063-.214 0-.033-.02-.065-.03-.095-.012-.03-.033-.103-.05-.154l-.034-.099c-.015-.043-.03-.089-.047-.133-.029-.08-.06-.157-.09-.237-.03-.08-.062-.157-.095-.235-.064-.16-.134-.317-.204-.477-.276-.614-.585-1.22-.87-1.82-.152-.313-.288-.635-.406-.964l-.036.048c-.057.081-.109.167-.154.256 0 1.397-1.495 3.107-1.495 3.107l-1.505-2.05-1.317 1.898c-.19.095-.38.417-.528.877-.041.123-.081.26-.12.402-.026.097-.05.19-.073.298-.014.051-.025.102-.036.156l-.035.16v.026c-.022.11-.045.224-.066.34-.02.115-.045.248-.066.379-.016.082-.029.164-.04.245-.027.157-.05.317-.072.476-.014.093-.027.19-.038.275l-.046.353c.097.29.205.57.317.862.071.153.113.319.123.488 2.335.622 4.792.622 7.127 0v-.018c-.035-.158-.05-.32-.046-.483.039-.457.102-.91.19-1.36.028-.22.04-.444.036-.667v-.08c-.006-.072-.008-.137-.01-.2v-.001zm0 0c0-.07 0-.142-.013-.212s-.011-.133-.02-.2l-.027-.204c-.01-.068-.023-.135-.036-.203l-.042-.203c0-.023-.01-.044-.015-.068-.021-.09-.044-.179-.068-.268-.025-.09-.04-.144-.063-.214 0-.033-.02-.065-.03-.095-.012-.03-.033-.103-.05-.154l-.034-.099c-.015-.043-.03-.089-.047-.133-.029-.08-.06-.157-.09-.237-.03-.08-.062-.157-.095-.235-.064-.16-.134-.317-.204-.477-.276-.614-.585-1.22-.87-1.82-.152-.313-.288-.635-.406-.964l-.036.048c-.057.081-.109.167-.154.256 0 1.397-1.495 3.107-1.495 3.107l-1.505-2.05-1.317 1.898c-.19.095-.38.417-.528.877-.041.123-.081.26-.12.402-.026.097-.05.19-.073.298-.014.051-.025.102-.036.156l-.035.16v.026c-.022.11-.045.224-.066.34-.02.115-.045.248-.066.379-.016.082-.029.164-.04.245-.027.157-.05.317-.072.476-.014.093-.027.19-.038.275l-.046.353c.097.29.205.57.317.862.071.153.113.319.123.488 2.335.622 4.792.622 7.127 0v-.018c-.035-.158-.05-.32-.046-.483.039-.457.102-.91.19-1.36.028-.22.04-.444.036-.667v-.08c-.006-.072-.008-.137-.01-.2v-.001zm0 0c0-.07 0-.142-.013-.212s-.011-.133-.02-.2l-.027-.204c-.01-.068-.023-.135-.036-.203l-.042-.203c0-.023-.01-.044-.015-.068-.021-.09-.044-.179-.068-.268-.025-.09-.04-.144-.063-.214 0-.033-.02-.065-.03-.095-.012-.03-.033-.103-.05-.154l-.034-.099c-.015-.043-.03-.089-.047-.133-.029-.08-.06-.157-.09-.237-.03-.08-.062-.157-.095-.235-.064-.16-.134-.317-.204-.477-.276-.614-.585-1.22-.87-1.82-.152-.313-.288-.635-.406-.964l-.036.048c-.057.081-.109.167-.154.256 0 1.397-1.495 3.107-1.495 3.107l-1.505-2.05-1.317 1.898c-.19.095-.38.417-.528.877-.041.123-.081.26-.12.402-.026.097-.05.19-.073.298-.014.051-.025.102-.036.156l-.035.16v.026c-.022.11-.045.224-.066.34-.02.115-.045.248-.066.379-.016.082-.029.164-.04.245-.027.157-.05.317-.072.476-.014.093-.027.19-.038.275l-.046.353c.097.29.205.57.317.862.071.153.113.319.123.488 2.335.622 4.792.622 7.127 0v-.018c-.035-.158-.05-.32-.046-.483.039-.457.102-.91.19-1.36.028-.22.04-.444.036-.667v-.08c-.006-.072-.008-.137-.01-.2v-.001zm0 0c0-.07 0-.142-.013-.212s-.011-.133-.02-.2l-.027-.204c-.01-.068-.023-.135-.036-.203l-.042-.203c0-.023-.01-.044-.015-.068-.021-.09-.044-.179-.068-.268-.025-.09-.04-.144-.063-.214 0-.033-.02-.065-.03-.095-.012-.03-.033-.103-.05-.154l-.034-.099c-.015-.043-.03-.089-.047-.133-.029-.08-.06-.157-.09-.237-.03-.08-.062-.157-.095-.235-.064-.16-.134-.317-.204-.477-.276-.614-.585-1.22-.87-1.82-.152-.313-.288-.635-.406-.964l-.036.048c-.057.081-.109.167-.154.256 0 1.397-1.495 3.107-1.495 3.107l-1.505-2.05-1.317 1.898c-.19.095-.38.417-.528.877-.041.123-.081.26-.12.402-.026.097-.05.19-.073.298-.014.051-.025.102-.036.156l-.035.16v.026c-.022.11-.045.224-.066.34-.02.115-.045.248-.066.379-.016.082-.029.164-.04.245-.027.157-.05.317-.072.476-.014.093-.027.19-.038.275l-.046.353c.097.29.205.57.317.862.071.153.113.319.123.488 2.335.622 4.792.622 7.127 0v-.018c-.035-.158-.05-.32-.046-.483.039-.457.102-.91.19-1.36.028-.22.04-.444.036-.667v-.08c-.006-.072-.008-.137-.01-.2v-.001z"/>
            <path fill="#493545" d="M8.024 9.48H16.753999999999998V15.363H8.024z"/>
            <path fill="#C77485" d="M18.204 15.968l-3.653 5.147-3.819-.332s-4.982.33-1.66-3.486c1.596-1.836 2.117-3.365 2.23-4.456.12-1.18-.238-1.853-.238-1.853l4.15-.497c-.187.56-.21 1.16-.068 1.733.52 2.156 3.058 3.744 3.058 3.744z"/>
            <path fill="#000" d="M15.145 12.218c-1.1.832-2.54 1.064-3.845.619.121-1.18-.238-1.852-.238-1.852l4.15-.498c-.186.559-.21 1.16-.067 1.731z" opacity=".1"/>
            <circle cx="12.641" cy="8.743" r="4.151" fill="#C77485"/>
            <path fill="#000" d="M18.052 16.18l-.097-.379-.083-.334-.124-.493-.022-.091-.02-.076s.1-.298-.552-.201l-.121.02c-.103.021-.222.05-.359.088l-.123.038-.163.05c-.517.17-.988.454-1.378.832-.175.168-.33.355-.461.558-.014.02-.023.036-.035.051-.044.07-.084.144-.12.22 0 1.496-1.495 3.322-1.495 3.322l-1.459-2.109-.028-.042-.348-.504-.123-.164-.042-.057-.759-1.019-.19-.254-.062-.085-.093-.124-.219-.29-.854.5-1.138.663-.665 4.318v.12l.021.356.139 2.346v.032l-.243.972.036.019c.573.309 1.17.573 1.784.79l.161.056c.19.063.368.12.554.175.007.028.012.056.016.085v-.081c2.328.665 4.797.665 7.126 0l.043-.014c.109-.03.219-.062.325-.098l.173-.055c.468-.157.927-.34 1.374-.55l.16-3.398.113-2.45v-.14l-.649-2.602z" opacity=".1"/>
            <path fill="#FFF" d="M16.686 22.49c0-.075 0-.15-.014-.227-.013-.076-.011-.142-.02-.214-.01-.072-.018-.144-.027-.217-.01-.072-.023-.144-.036-.216l-.042-.216c0-.025-.01-.048-.015-.072-.021-.095-.044-.19-.068-.287-.025-.097-.04-.154-.063-.23 0-.034-.02-.068-.03-.1-.012-.032-.033-.11-.05-.165l-.034-.107c-.015-.047-.03-.094-.047-.142-.029-.085-.06-.169-.09-.254-.03-.086-.062-.17-.095-.253-.064-.17-.134-.34-.204-.508-.276-.657-.585-1.304-.87-1.946-.153-.336-.288-.68-.406-1.03l-.036.051c-.058.088-.109.179-.154.274 0 1.493-1.495 3.32-1.495 3.32l-1.505-2.191-1.317 2.025c-.19.1-.38.446-.528.937-.041.133-.081.277-.12.431-.026.102-.05.21-.073.319-.014.055-.025.11-.036.167l-.035.173v.026c-.022.118-.045.24-.066.363-.02.123-.045.265-.066.4-.016.087-.029.175-.04.262-.027.169-.05.34-.072.509-.014.098-.027.19-.038.294l-.046.38c.097.31.205.618.317.92.072.165.113.342.123.522 2.33.665 4.798.665 7.127 0v-.02c-.035-.17-.05-.344-.046-.517.039-.487.102-.972.19-1.452.028-.237.04-.475.036-.714V22.7c-.006-.072-.008-.14-.01-.21zm0 0c0-.075 0-.15-.014-.227-.013-.076-.011-.142-.02-.214-.01-.072-.018-.144-.027-.217-.01-.072-.023-.144-.036-.216l-.042-.216c0-.025-.01-.048-.015-.072-.021-.095-.044-.19-.068-.287-.025-.097-.04-.154-.063-.23 0-.034-.02-.068-.03-.1-.012-.032-.033-.11-.05-.165l-.034-.107c-.015-.047-.03-.094-.047-.142-.029-.085-.06-.169-.09-.254-.03-.086-.062-.17-.095-.253-.064-.17-.134-.34-.204-.508-.276-.657-.585-1.304-.87-1.946-.153-.336-.288-.68-.406-1.03l-.036.051c-.058.088-.109.179-.154.274 0 1.493-1.495 3.32-1.495 3.32l-1.505-2.191-1.317 2.025c-.19.1-.38.446-.528.937-.041.133-.081.277-.12.431-.026.102-.05.21-.073.319-.014.055-.025.11-.036.167l-.035.173v.026c-.022.118-.045.24-.066.363-.02.123-.045.265-.066.4-.016.087-.029.175-.04.262-.027.169-.05.34-.072.509-.014.098-.027.19-.038.294l-.046.38c.097.31.205.618.317.92.072.165.113.342.123.522 2.33.665 4.798.665 7.127 0v-.02c-.035-.17-.05-.344-.046-.517.039-.487.102-.972.19-1.452.028-.237.04-.475.036-.714V22.7c-.006-.072-.008-.14-.01-.21zm0 0c0-.075 0-.15-.014-.227-.013-.076-.011-.142-.02-.214-.01-.072-.018-.144-.027-.217-.01-.072-.023-.144-.036-.216l-.042-.216c0-.025-.01-.048-.015-.072-.021-.095-.044-.19-.068-.287-.025-.097-.04-.154-.063-.23 0-.034-.02-.068-.03-.1-.012-.032-.033-.11-.05-.165l-.034-.107c-.015-.047-.03-.094-.047-.142-.029-.085-.06-.169-.09-.254-.03-.086-.062-.17-.095-.253-.064-.17-.134-.34-.204-.508-.276-.657-.585-1.304-.87-1.946-.153-.336-.288-.68-.406-1.03l-.036.051c-.058.088-.109.179-.154.274 0 1.493-1.495 3.32-1.495 3.32l-1.505-2.191-1.317 2.025c-.19.1-.38.446-.528.937-.041.133-.081.277-.12.431-.026.102-.05.21-.073.319-.014.055-.025.11-.036.167l-.035.173v.026c-.022.118-.045.24-.066.363-.02.123-.045.265-.066.4-.016.087-.029.175-.04.262-.027.169-.05.34-.072.509-.014.098-.027.19-.038.294l-.046.38c.097.31.205.618.317.92.072.165.113.342.123.522 2.33.665 4.798.665 7.127 0v-.02c-.035-.17-.05-.344-.046-.517.039-.487.102-.972.19-1.452.028-.237.04-.475.036-.714V22.7c-.006-.072-.008-.14-.01-.21zm2.011-3.561l-.677-2.705-.116-.463-.032-.127-.165-.66v-.017c.004-.03-.001-.06-.014-.086-.024-.05-.087-.1-.233-.114-.056-.004-.112-.004-.167 0-.165.017-.328.047-.488.091-.078.021-.161.044-.25.073l-.164.05h-.015c-.437.144-.843.37-1.195.665-.233.194-.438.42-.608.672l-.036.051c-.057.087-.109.179-.153.273 0 1.494-1.496 3.322-1.496 3.322l-1.505-2.192-.085-.124-.016-.02-.218-.321-.165-.22-.044-.057-.778-1.039-.246-.335v-.012l-.086-.116-.163-.216-.57.332-1.423.83-.656 4.271v.046l.019.311.14 2.378v.135l-.214.856c.573.31 1.17.573 1.784.79l.16.056c.19.063.37.12.555.175.007.028.012.057.015.085v-.081c2.33.665 4.798.665 7.127 0l.043-.014c.108-.03.218-.062.325-.098l.172-.055c.469-.157.928-.34 1.374-.55l.158-3.394.114-2.423-.008-.023zm-9.333 6.553c.007.028.012.057.015.085v-.081l-.015-.004zm7.322-2.991c0-.076 0-.152-.014-.228-.013-.076-.011-.142-.02-.214-.01-.072-.018-.144-.027-.217-.01-.072-.023-.144-.036-.216l-.042-.216c0-.025-.01-.048-.015-.072-.021-.095-.044-.19-.068-.287-.025-.097-.04-.154-.063-.23 0-.034-.02-.068-.03-.1-.012-.032-.033-.11-.05-.165l-.034-.107c-.015-.047-.03-.094-.047-.142-.029-.085-.06-.169-.09-.254-.03-.086-.062-.17-.095-.253-.064-.17-.134-.34-.204-.508-.276-.657-.585-1.304-.87-1.946-.153-.336-.288-.68-.406-1.03l-.036.051c-.058.088-.109.179-.154.274 0 1.493-1.495 3.32-1.495 3.32l-1.505-2.191-1.317 2.025c-.19.1-.38.446-.528.937-.041.133-.081.277-.12.431-.026.102-.05.21-.073.319-.014.055-.025.11-.036.167l-.035.173v.026c-.022.118-.045.24-.066.363-.02.123-.045.265-.066.4-.016.087-.029.175-.04.262-.027.169-.05.34-.072.509-.014.098-.027.19-.038.294l-.046.38c.097.31.205.618.317.92.072.165.113.342.123.522 2.33.665 4.798.665 7.127 0v-.02c-.035-.17-.05-.344-.046-.517.039-.487.102-.972.19-1.452.028-.237.04-.475.036-.714V22.7c-.006-.072-.008-.14-.01-.21zm0 0c0-.076 0-.152-.014-.228-.013-.076-.011-.142-.02-.214-.01-.072-.018-.144-.027-.217-.01-.072-.023-.144-.036-.216l-.042-.216c0-.025-.01-.048-.015-.072-.021-.095-.044-.19-.068-.287-.025-.097-.04-.154-.063-.23 0-.034-.02-.068-.03-.1-.012-.032-.033-.11-.05-.165l-.034-.107c-.015-.047-.03-.094-.047-.142-.029-.085-.06-.169-.09-.254-.03-.086-.062-.17-.095-.253-.064-.17-.134-.34-.204-.508-.276-.657-.585-1.304-.87-1.946-.153-.336-.288-.68-.406-1.03l-.036.051c-.058.088-.109.179-.154.274 0 1.493-1.495 3.32-1.495 3.32l-1.505-2.191-1.317 2.025c-.19.1-.38.446-.528.937-.041.133-.081.277-.12.431-.026.102-.05.21-.073.319-.014.055-.025.11-.036.167l-.035.173v.026c-.022.118-.045.24-.066.363-.02.123-.045.265-.066.4-.016.087-.029.175-.04.262-.027.169-.05.34-.072.509-.014.098-.027.19-.038.294l-.046.38c.097.31.205.618.317.92.072.165.113.342.123.522 2.33.665 4.798.665 7.127 0v-.02c-.035-.17-.05-.344-.046-.517.039-.487.102-.972.19-1.452.028-.237.04-.475.036-.714V22.7c-.006-.072-.008-.14-.01-.21zm0 0c0-.076 0-.152-.014-.228-.013-.076-.011-.142-.02-.214-.01-.072-.018-.144-.027-.217-.01-.072-.023-.144-.036-.216l-.042-.216c0-.025-.01-.048-.015-.072-.021-.095-.044-.19-.068-.287-.025-.097-.04-.154-.063-.23 0-.034-.02-.068-.03-.1-.012-.032-.033-.11-.05-.165l-.034-.107c-.015-.047-.03-.094-.047-.142-.029-.085-.06-.169-.09-.254-.03-.086-.062-.17-.095-.253-.064-.17-.134-.34-.204-.508-.276-.657-.585-1.304-.87-1.946-.153-.336-.288-.68-.406-1.03l-.036.051c-.058.088-.109.179-.154.274 0 1.493-1.495 3.32-1.495 3.32l-1.505-2.191-1.317 2.025c-.19.1-.38.446-.528.937-.041.133-.081.277-.12.431-.026.102-.05.21-.073.319-.014.055-.025.11-.036.167l-.035.173v.026c-.022.118-.045.24-.066.363-.02.123-.045.265-.066.4-.016.087-.029.175-.04.262-.027.169-.05.34-.072.509-.014.098-.027.19-.038.294l-.046.38c.097.31.205.618.317.92.072.165.113.342.123.522 2.33.665 4.798.665 7.127 0v-.02c-.035-.17-.05-.344-.046-.517.039-.487.102-.972.19-1.452.028-.237.04-.475.036-.714V22.7c-.006-.072-.008-.14-.01-.21zm0 0c0-.076 0-.152-.014-.228-.013-.076-.011-.142-.02-.214-.01-.072-.018-.144-.027-.217-.01-.072-.023-.144-.036-.216l-.042-.216c0-.025-.01-.048-.015-.072-.021-.095-.044-.19-.068-.287-.025-.097-.04-.154-.063-.23 0-.034-.02-.068-.03-.1-.012-.032-.033-.11-.05-.165l-.034-.107c-.015-.047-.03-.094-.047-.142-.029-.085-.06-.169-.09-.254-.03-.086-.062-.17-.095-.253-.064-.17-.134-.34-.204-.508-.276-.657-.585-1.304-.87-1.946-.153-.336-.288-.68-.406-1.03l-.036.051c-.058.088-.109.179-.154.274 0 1.493-1.495 3.32-1.495 3.32l-1.505-2.191-1.317 2.025c-.19.1-.38.446-.528.937-.041.133-.081.277-.12.431-.026.102-.05.21-.073.319-.014.055-.025.11-.036.167l-.035.173v.026c-.022.118-.045.24-.066.363-.02.123-.045.265-.066.4-.016.087-.029.175-.04.262-.027.169-.05.34-.072.509-.014.098-.027.19-.038.294l-.046.38c.097.31.205.618.317.92.072.165.113.342.123.522 2.33.665 4.798.665 7.127 0v-.02c-.035-.17-.05-.344-.046-.517.039-.487.102-.972.19-1.452.028-.237.04-.475.036-.714V22.7c-.006-.072-.008-.14-.01-.21zm0 0c0-.076 0-.152-.014-.228-.013-.076-.011-.142-.02-.214-.01-.072-.018-.144-.027-.217-.01-.072-.023-.144-.036-.216l-.042-.216c0-.025-.01-.048-.015-.072-.021-.095-.044-.19-.068-.287-.025-.097-.04-.154-.063-.23 0-.034-.02-.068-.03-.1-.012-.032-.033-.11-.05-.165l-.034-.107c-.015-.047-.03-.094-.047-.142-.029-.085-.06-.169-.09-.254-.03-.086-.062-.17-.095-.253-.064-.17-.134-.34-.204-.508-.276-.657-.585-1.304-.87-1.946-.153-.336-.288-.68-.406-1.03l-.036.051c-.058.088-.109.179-.154.274 0 1.493-1.495 3.32-1.495 3.32l-1.505-2.191-1.317 2.025c-.19.1-.38.446-.528.937-.041.133-.081.277-.12.431-.026.102-.05.21-.073.319-.014.055-.025.11-.036.167l-.035.173v.026c-.022.118-.045.24-.066.363-.02.123-.045.265-.066.4-.016.087-.029.175-.04.262-.027.169-.05.34-.072.509-.014.098-.027.19-.038.294l-.046.38c.097.31.205.618.317.92.072.165.113.342.123.522 2.33.665 4.798.665 7.127 0v-.02c-.035-.17-.05-.344-.046-.517.039-.487.102-.972.19-1.452.028-.237.04-.475.036-.714V22.7c-.006-.072-.008-.14-.01-.21zm0 0c0-.076 0-.152-.014-.228-.013-.076-.011-.142-.02-.214-.01-.072-.018-.144-.027-.217-.01-.072-.023-.144-.036-.216l-.042-.216c0-.025-.01-.048-.015-.072-.021-.095-.044-.19-.068-.287-.025-.097-.04-.154-.063-.23 0-.034-.02-.068-.03-.1-.012-.032-.033-.11-.05-.165l-.034-.107c-.015-.047-.03-.094-.047-.142-.029-.085-.06-.169-.09-.254-.03-.086-.062-.17-.095-.253-.064-.17-.134-.34-.204-.508-.276-.657-.585-1.304-.87-1.946-.153-.336-.288-.68-.406-1.03l-.036.051c-.058.088-.109.179-.154.274 0 1.493-1.495 3.32-1.495 3.32l-1.505-2.191-1.317 2.025c-.19.1-.38.446-.528.937-.041.133-.081.277-.12.431-.026.102-.05.21-.073.319-.014.055-.025.11-.036.167l-.035.173v.026c-.022.118-.045.24-.066.363-.02.123-.045.265-.066.4-.016.087-.029.175-.04.262-.027.169-.05.34-.072.509-.014.098-.027.19-.038.294l-.046.38c.097.31.205.618.317.92.072.165.113.342.123.522 2.33.665 4.798.665 7.127 0v-.02c-.035-.17-.05-.344-.046-.517.039-.487.102-.972.19-1.452.028-.237.04-.475.036-.714V22.7c-.006-.072-.008-.14-.01-.21zm0 0c0-.076 0-.152-.014-.228-.013-.076-.011-.142-.02-.214-.01-.072-.018-.144-.027-.217-.01-.072-.023-.144-.036-.216l-.042-.216c0-.025-.01-.048-.015-.072-.021-.095-.044-.19-.068-.287-.025-.097-.04-.154-.063-.23 0-.034-.02-.068-.03-.1-.012-.032-.033-.11-.05-.165l-.034-.107c-.015-.047-.03-.094-.047-.142-.029-.085-.06-.169-.09-.254-.03-.086-.062-.17-.095-.253-.064-.17-.134-.34-.204-.508-.276-.657-.585-1.304-.87-1.946-.153-.336-.288-.68-.406-1.03l-.036.051c-.058.088-.109.179-.154.274 0 1.493-1.495 3.32-1.495 3.32l-1.505-2.191-1.317 2.025c-.19.1-.38.446-.528.937-.041.133-.081.277-.12.431-.026.102-.05.21-.073.319-.014.055-.025.11-.036.167l-.035.173v.026c-.022.118-.045.24-.066.363-.02.123-.045.265-.066.4-.016.087-.029.175-.04.262-.027.169-.05.34-.072.509-.014.098-.027.19-.038.294l-.046.38c.097.31.205.618.317.92.072.165.113.342.123.522 2.33.665 4.798.665 7.127 0v-.02c-.035-.17-.05-.344-.046-.517.039-.487.102-.972.19-1.452.028-.237.04-.475.036-.714V22.7c-.006-.072-.008-.14-.01-.21zm0 0c0-.076 0-.152-.014-.228-.013-.076-.011-.142-.02-.214-.01-.072-.018-.144-.027-.217-.01-.072-.023-.144-.036-.216l-.042-.216c0-.025-.01-.048-.015-.072-.021-.095-.044-.19-.068-.287-.025-.097-.04-.154-.063-.23 0-.034-.02-.068-.03-.1-.012-.032-.033-.11-.05-.165l-.034-.107c-.015-.047-.03-.094-.047-.142-.029-.085-.06-.169-.09-.254-.03-.086-.062-.17-.095-.253-.064-.17-.134-.34-.204-.508-.276-.657-.585-1.304-.87-1.946-.153-.336-.288-.68-.406-1.03l-.036.051c-.058.088-.109.179-.154.274 0 1.493-1.495 3.32-1.495 3.32l-1.505-2.191-1.317 2.025c-.19.1-.38.446-.528.937-.041.133-.081.277-.12.431-.026.102-.05.21-.073.319-.014.055-.025.11-.036.167l-.035.173v.026c-.022.118-.045.24-.066.363-.02.123-.045.265-.066.4-.016.087-.029.175-.04.262-.027.169-.05.34-.072.509-.014.098-.027.19-.038.294l-.046.38c.097.31.205.618.317.92.072.165.113.342.123.522 2.33.665 4.798.665 7.127 0v-.02c-.035-.17-.05-.344-.046-.517.039-.487.102-.972.19-1.452.028-.237.04-.475.036-.714V22.7c-.006-.072-.008-.14-.01-.21z"/>
            <path fill="#000" d="M11.412 17.633l-.128-.018c-.192-.026-.382-.064-.569-.113l-.07-.02c-.463-.13-.97-.366-1.084-.78-.034-.133-.03-.273.012-.404.063-.225.15-.444.258-.652v-.012c.014-.03.03-.058.047-.085.157-.306.393-.564.685-.746l-.228.036-1.928.313-2.989.482s-.531-.106-1.254 1.887c0 .024-.017.047-.025.074-.174.487-.359 1.097-.548 1.858-.131.527-.25 1.045-.36 1.548l-.096.45c.342.403.71.784 1.103 1.139l.062.058c.768.696 1.617 1.297 2.528 1.79l.036.02c.574.308 1.17.572 1.784.789l.162.057c.034-.352.072-.74.117-1.14 0-.039 0-.079.015-.119l.046-.38c.011-.096.025-.19.038-.293.023-.17.046-.34.072-.51.011-.086.025-.174.04-.261.02-.135.044-.27.066-.4.023-.131.044-.245.067-.363v-.026l.034-.173c.011-.057.023-.112.036-.167.023-.108.047-.217.074-.319.038-.154.078-.298.12-.43.151-.492.328-.838.527-.938l1.317-2.025.055-.086.025-.038-.047-.003z" opacity=".1"/>
            <path fill="#444176" d="M11.3 17.636l-1.4 2.149c-.189.096-.367.432-.517.909-.044.14-.088.294-.13.455-.188.82-.331 1.649-.428 2.484 0 .038 0 .076-.015.114-.065.528-.118 1.046-.162 1.503-.614-.216-1.21-.48-1.784-.79l-.036-.018c-.91-.493-1.76-1.094-2.528-1.79l-.062-.059c-.392-.355-.76-.735-1.103-1.138-.045-.051-.089-.105-.133-.158l.065-.296c.108-.503.228-1.019.359-1.545.172-.72.388-1.43.645-2.125.007-.02.015-.041.024-.06.672-1.73 1.156-1.633 1.156-1.633l3.156-.509 1.993-.322-.063.036c-.22.156-.406.355-.548.584l-.055.093c-.023.036-.044.076-.067.116-.11.212-.198.434-.261.664-.06.18-.043.376.045.543.19.368.729.57 1.171.68l.074.018c.199.045.4.077.604.095z"/>
            <path fill="#000" d="M22.267 21.472l-.078-1.685c.332-2.657-.332-2.822-.332-2.822l-.79-.38h-.02l-3.175-1.54-.124-.06-.038-.017-.413-.201-.262-.127-.49-.238-.165-.08v.659c0 .19.017.412.032.67.034.65.097 1.518.209 2.543.063.594.142 1.243.241 1.94.059.412.1.822.127 1.222.086 1.348.044 2.702-.125 4.042l.173-.055c.468-.156.927-.34 1.374-.55.87-.406 1.692-.91 2.448-1.503l.034-.025c.49-.382.95-.8 1.378-1.25l-.004-.543z" opacity=".1"/>
            <path fill="#444176" d="M22.434 21.472l-.078-1.69c.332-2.656-.332-2.821-.332-2.821l-.949-.46h-.019l-3.184-1.544-.146-.07-.029-.014-.233-.114-.31-.15-.61-.296V14.917c0 .19.016.438.033.721.033.605.09 1.399.19 2.342.068.647.154 1.366.266 2.14.058.414.1.824.125 1.228.085 1.33.045 2.664-.118 3.986.469-.157.928-.34 1.374-.55.871-.407 1.692-.91 2.449-1.504l.034-.024c.49-.383.95-.8 1.378-1.25.055-.057.108-.113.159-.172v-.362z"/>
            <path fill="#000" d="M9.015 4.19c-.19.262-.175.623-.26.95-.203.741-1.008 1.206-1.192 1.954-.108.437.017.9-.057 1.344-.135.818-.883 1.372-1.3 2.087-.429.747-.493 1.649-.173 2.448.098.2.178.406.241.62.048.316.028.64-.059.948-.142.676-.288 1.42.038 2.029.275.514.847.816 1.422.91.58.066 1.168.04 1.74-.079.628-.097 1.272-.209 1.818-.531l-2.055-4.961c-.207-.501-.42-1.02-.418-1.562.017-.4.104-.795.256-1.165.398-1.074.976-2.072 1.709-2.951.297.345.275.87.523 1.254.22.283.513.502.847.632.974.475 1.974.893 2.996 1.252.13.017.244.097.303.215.059.117.055.256-.01.37l-.775 3.196c-.17.704-.32 1.518.118 2.088.438.569 1.427.838 1.433 1.573-.008.116-.008.233 0 .349.051.344.46.509.806.526 1.178.023 2.199-.81 2.413-1.968.19-1.257-.642-2.414-.99-3.638-.584-2.06.19-4.475-.958-6.284-.93-1.467-2.624-1.866-4.234-2.048-1.129-.133-3.387-.607-4.182.442z" opacity=".1"/>
            <path fill="#493545" d="M9.015 4c-.19.262-.175.623-.26.95-.203.742-1.008 1.206-1.192 1.954-.108.437.017.9-.057 1.344-.135.818-.883 1.372-1.3 2.087-.429.747-.493 1.65-.173 2.449.098.199.178.406.241.618.048.317.028.64-.059.95-.142.675-.288 1.419.038 2.028.275.514.847.816 1.422.91.58.067 1.168.04 1.74-.079.628-.097 1.272-.209 1.818-.531l-2.055-4.961c-.207-.501-.42-1.02-.418-1.562.017-.4.104-.795.256-1.165.398-1.074.976-2.072 1.709-2.951.297.345.275.87.523 1.254.22.284.513.502.847.632.974.475 1.974.893 2.996 1.253.13.016.244.096.303.214.059.117.055.256-.01.37l-.775 3.196c-.17.704-.32 1.518.118 2.088.438.57 1.427.839 1.433 1.573-.008.116-.008.233 0 .35.051.343.46.508.806.525 1.178.023 2.199-.81 2.413-1.968.19-1.256-.642-2.414-.99-3.638-.584-2.06.19-4.475-.958-6.284-.93-1.467-2.624-1.865-4.234-2.048-1.129-.132-3.387-.607-4.182.443z"/>
        </g>
        <g opacity=".5" transform="translate(17 105)">
            <path fill="#C0BCCF" d="M25.863 13.084c.006 3.08-1.097 6.061-3.106 8.397-.099.116-.202.23-.306.342-.052.058-.105.115-.16.17-.427.45-.888.869-1.377 1.251l-.034.025c-.756.593-1.578 1.097-2.448 1.503-.447.21-.906.394-1.374.55l-.173.056c-.106.036-.217.068-.325.098l-.043.013c-2.33.666-4.798.666-7.127 0h-.019c-.19-.055-.38-.111-.554-.174l-.161-.057c-.614-.216-1.21-.48-1.784-.79l-.036-.019c-.911-.493-1.76-1.094-2.528-1.79l-.063-.058c-.392-.355-.76-.735-1.102-1.139-.046-.05-.09-.104-.133-.157-.084-.099-.163-.201-.243-.304C-.694 16.546-.86 10.36 2.357 5.724 5.576 1.09 11.43-.917 16.815.768c5.384 1.686 9.05 6.674 9.05 12.316z"/>
            <path fill="url(#prefix__c)" d="M22.434 21.4l-.078-1.708c.332-2.7-.332-2.87-.332-2.87l-.949-.467-.019-.01-3.184-1.569-.146-.072-.02-.078s.063-.19-.252-.222c-.06-.153-.088-.318-.08-.484.033-.364.308-.65.522-.948.548-.811.771-1.798.625-2.766-.15-.958-.511-1.871-1.06-2.672l-.06-.089c.074-.273.112-.555.112-.839 0-2.184-2.21-3.955-4.934-3.955-2.467 0-4.523 1.46-4.88 3.363-.056.074-.106.153-.15.235-.5.938.274 1.638.298 2.574.018.645-.415 1.197-.759 1.744-.343.547-.597 1.273-.244 1.812.115.179.29.314.394.5.367.647-.243 1.389-.465 2.099-.025.082-.046.167-.06.252l-1.466.24s-.483-.1-1.155 1.658c-.01.02-.018.041-.025.062-.257.708-.473 1.43-.645 2.162-.131.535-.25 1.059-.359 1.57-.023.1-.044.2-.064.301.043.053.087.108.132.16.342.41.71.799 1.103 1.161l.063.06c.766.707 1.615 1.318 2.528 1.82l.036.02c.572.314 1.169.582 1.784.803l.16.057c.19.064.369.121.555.178.007.029.012.058.015.087v-.083c2.327.676 4.8.676 7.126 0l.044-.014c.108-.03.218-.064.325-.1l.172-.055c.469-.16.928-.347 1.374-.56.872-.414 1.694-.926 2.449-1.528l.034-.024c.49-.39.95-.815 1.377-1.272.056-.056.11-.113.16-.173l-.002-.36z"/>
            <path fill="#444176" d="M7.847 9.096c.018.636-.415 1.179-.759 1.708-.343.53-.597 1.253-.244 1.782.115.175.29.31.394.492.367.636-.243 1.366-.465 2.065-.256.806.042 1.708.581 2.362.539.655 1.283 1.097 2.034 1.486 1.58.842 3.277 1.446 5.033 1.792.919.169 1.898.245 2.76-.123 1.23-.565 1.915-1.898 1.657-3.227-.219-.998-.95-1.8-1.329-2.744-.088-.185-.131-.389-.125-.594.032-.359.307-.64.522-.93.538-.79.757-1.755.615-2.7-.15-.946-.512-1.845-1.06-2.63-.195-.327-.453-.61-.758-.836-.414-.279-.927-.359-1.42-.429-2.061-.288-4.196-.603-6.274-.71-.657-.034-1.139.095-1.463.71-.496.917.277 1.606.301 2.526z"/>
            <path fill="#C77485" d="M18.462 15.55l-3.911 5.563-3.819-.332s-.125 1.328-1.66-3.486c-.858-2.693.886-1.758 1.23-2.503.343-.746.948-1.405 1-1.955.12-1.18-.238-1.852-.238-1.852l4.15-.498c-.187.56-.21 1.16-.068 1.733.52 2.16 3.316 3.33 3.316 3.33z"/>
            <ellipse cx="12.579" cy="6.918" fill="#444176" rx="4.934" ry="3.891"/>
            <path fill="#000" d="M15.145 12.218c-1.1.832-2.54 1.064-3.845.619.121-1.18-.238-1.852-.238-1.852l4.15-.498c-.186.559-.21 1.16-.067 1.731z" opacity=".1"/>
            <circle cx="12.641" cy="8.743" r="4.151" fill="#C77485"/>
            <path fill="#000" d="M18.052 16.18l-.097-.379-.083-.334-.124-.493-.022-.091-.02-.076s.1-.298-.552-.201l-.121.02c-.103.021-.222.05-.359.088l-.123.038-.163.05c-.517.17-.988.454-1.378.832-.175.168-.33.355-.461.558-.014.02-.023.036-.035.051-.044.07-.084.144-.12.22 0 1.496-1.495 3.322-1.495 3.322l-1.459-2.109-.028-.042-.348-.504-.123-.164-.042-.057-.759-1.019-.19-.254-.062-.085-.093-.124-.219-.29-.854.5-1.138.663-.665 4.318v.12l.021.356.139 2.346v.032l-.243.972.036.019c.573.309 1.17.573 1.784.79l.161.056c.19.063.368.12.554.175.007.028.012.056.016.085v-.081c2.328.665 4.797.665 7.126 0l.043-.014c.109-.03.219-.062.325-.098l.173-.055c.468-.157.927-.34 1.374-.55l.16-3.398.113-2.45v-.14l-.649-2.602z" opacity=".1"/>
            <path fill="#444176" d="M16.686 22.49c0-.075 0-.15-.014-.227-.013-.076-.011-.142-.02-.214-.01-.072-.018-.144-.027-.217-.01-.072-.023-.144-.036-.216l-.042-.216c0-.025-.01-.048-.015-.072-.021-.095-.044-.19-.068-.287-.025-.097-.04-.154-.063-.23 0-.034-.02-.068-.03-.1-.012-.032-.033-.11-.05-.165l-.034-.107c-.015-.047-.03-.094-.047-.142-.029-.085-.06-.169-.09-.254-.03-.086-.062-.17-.095-.253-.064-.17-.134-.34-.204-.508-.276-.657-.585-1.304-.87-1.946-.153-.336-.288-.68-.406-1.03l-.036.051c-.058.088-.109.179-.154.274 0 1.493-1.495 3.32-1.495 3.32l-1.505-2.191-1.317 2.025c-.19.1-.38.446-.528.937-.041.133-.081.277-.12.431-.026.102-.05.21-.073.319-.014.055-.025.11-.036.167l-.035.173v.026c-.022.118-.045.24-.066.363-.02.123-.045.265-.066.4-.016.087-.029.175-.04.262-.027.169-.05.34-.072.509-.014.098-.027.19-.038.294l-.046.38c.097.31.205.618.317.92.072.165.113.342.123.522 2.33.665 4.798.665 7.127 0v-.02c-.035-.17-.05-.344-.046-.517.039-.487.102-.972.19-1.452.028-.237.04-.475.036-.714V22.7c-.006-.072-.008-.14-.01-.21zm0 0c0-.075 0-.15-.014-.227-.013-.076-.011-.142-.02-.214-.01-.072-.018-.144-.027-.217-.01-.072-.023-.144-.036-.216l-.042-.216c0-.025-.01-.048-.015-.072-.021-.095-.044-.19-.068-.287-.025-.097-.04-.154-.063-.23 0-.034-.02-.068-.03-.1-.012-.032-.033-.11-.05-.165l-.034-.107c-.015-.047-.03-.094-.047-.142-.029-.085-.06-.169-.09-.254-.03-.086-.062-.17-.095-.253-.064-.17-.134-.34-.204-.508-.276-.657-.585-1.304-.87-1.946-.153-.336-.288-.68-.406-1.03l-.036.051c-.058.088-.109.179-.154.274 0 1.493-1.495 3.32-1.495 3.32l-1.505-2.191-1.317 2.025c-.19.1-.38.446-.528.937-.041.133-.081.277-.12.431-.026.102-.05.21-.073.319-.014.055-.025.11-.036.167l-.035.173v.026c-.022.118-.045.24-.066.363-.02.123-.045.265-.066.4-.016.087-.029.175-.04.262-.027.169-.05.34-.072.509-.014.098-.027.19-.038.294l-.046.38c.097.31.205.618.317.92.072.165.113.342.123.522 2.33.665 4.798.665 7.127 0v-.02c-.035-.17-.05-.344-.046-.517.039-.487.102-.972.19-1.452.028-.237.04-.475.036-.714V22.7c-.006-.072-.008-.14-.01-.21zm0 0c0-.075 0-.15-.014-.227-.013-.076-.011-.142-.02-.214-.01-.072-.018-.144-.027-.217-.01-.072-.023-.144-.036-.216l-.042-.216c0-.025-.01-.048-.015-.072-.021-.095-.044-.19-.068-.287-.025-.097-.04-.154-.063-.23 0-.034-.02-.068-.03-.1-.012-.032-.033-.11-.05-.165l-.034-.107c-.015-.047-.03-.094-.047-.142-.029-.085-.06-.169-.09-.254-.03-.086-.062-.17-.095-.253-.064-.17-.134-.34-.204-.508-.276-.657-.585-1.304-.87-1.946-.153-.336-.288-.68-.406-1.03l-.036.051c-.058.088-.109.179-.154.274 0 1.493-1.495 3.32-1.495 3.32l-1.505-2.191-1.317 2.025c-.19.1-.38.446-.528.937-.041.133-.081.277-.12.431-.026.102-.05.21-.073.319-.014.055-.025.11-.036.167l-.035.173v.026c-.022.118-.045.24-.066.363-.02.123-.045.265-.066.4-.016.087-.029.175-.04.262-.027.169-.05.34-.072.509-.014.098-.027.19-.038.294l-.046.38c.097.31.205.618.317.92.072.165.113.342.123.522 2.33.665 4.798.665 7.127 0v-.02c-.035-.17-.05-.344-.046-.517.039-.487.102-.972.19-1.452.028-.237.04-.475.036-.714V22.7c-.006-.072-.008-.14-.01-.21zm2.011-3.561l-.677-2.705-.116-.463-.032-.127-.165-.66v-.017c.004-.03-.001-.06-.014-.086-.024-.05-.087-.1-.233-.114-.056-.004-.112-.004-.167 0-.165.017-.328.047-.488.091-.078.021-.161.044-.25.073l-.164.05h-.015c-.437.144-.843.37-1.195.665-.233.194-.438.42-.608.672l-.036.051c-.057.087-.109.179-.153.273 0 1.494-1.496 3.322-1.496 3.322l-1.505-2.192-.085-.124-.016-.02-.218-.321-.165-.22-.044-.057-.778-1.039-.246-.335v-.012l-.086-.116-.163-.216-.57.332-1.423.83-.656 4.271v.046l.019.311.14 2.378v.135l-.214.856c.573.31 1.17.573 1.784.79l.16.056c.19.063.37.12.555.175.007.028.012.057.015.085v-.081c2.33.665 4.798.665 7.127 0l.043-.014c.108-.03.218-.062.325-.098l.172-.055c.469-.157.928-.34 1.374-.55l.158-3.394.114-2.423-.008-.023zm-9.333 6.553c.007.028.012.057.015.085v-.081l-.015-.004zm7.322-2.991c0-.076 0-.152-.014-.228-.013-.076-.011-.142-.02-.214-.01-.072-.018-.144-.027-.217-.01-.072-.023-.144-.036-.216l-.042-.216c0-.025-.01-.048-.015-.072-.021-.095-.044-.19-.068-.287-.025-.097-.04-.154-.063-.23 0-.034-.02-.068-.03-.1-.012-.032-.033-.11-.05-.165l-.034-.107c-.015-.047-.03-.094-.047-.142-.029-.085-.06-.169-.09-.254-.03-.086-.062-.17-.095-.253-.064-.17-.134-.34-.204-.508-.276-.657-.585-1.304-.87-1.946-.153-.336-.288-.68-.406-1.03l-.036.051c-.058.088-.109.179-.154.274 0 1.493-1.495 3.32-1.495 3.32l-1.505-2.191-1.317 2.025c-.19.1-.38.446-.528.937-.041.133-.081.277-.12.431-.026.102-.05.21-.073.319-.014.055-.025.11-.036.167l-.035.173v.026c-.022.118-.045.24-.066.363-.02.123-.045.265-.066.4-.016.087-.029.175-.04.262-.027.169-.05.34-.072.509-.014.098-.027.19-.038.294l-.046.38c.097.31.205.618.317.92.072.165.113.342.123.522 2.33.665 4.798.665 7.127 0v-.02c-.035-.17-.05-.344-.046-.517.039-.487.102-.972.19-1.452.028-.237.04-.475.036-.714V22.7c-.006-.072-.008-.14-.01-.21zm0 0c0-.076 0-.152-.014-.228-.013-.076-.011-.142-.02-.214-.01-.072-.018-.144-.027-.217-.01-.072-.023-.144-.036-.216l-.042-.216c0-.025-.01-.048-.015-.072-.021-.095-.044-.19-.068-.287-.025-.097-.04-.154-.063-.23 0-.034-.02-.068-.03-.1-.012-.032-.033-.11-.05-.165l-.034-.107c-.015-.047-.03-.094-.047-.142-.029-.085-.06-.169-.09-.254-.03-.086-.062-.17-.095-.253-.064-.17-.134-.34-.204-.508-.276-.657-.585-1.304-.87-1.946-.153-.336-.288-.68-.406-1.03l-.036.051c-.058.088-.109.179-.154.274 0 1.493-1.495 3.32-1.495 3.32l-1.505-2.191-1.317 2.025c-.19.1-.38.446-.528.937-.041.133-.081.277-.12.431-.026.102-.05.21-.073.319-.014.055-.025.11-.036.167l-.035.173v.026c-.022.118-.045.24-.066.363-.02.123-.045.265-.066.4-.016.087-.029.175-.04.262-.027.169-.05.34-.072.509-.014.098-.027.19-.038.294l-.046.38c.097.31.205.618.317.92.072.165.113.342.123.522 2.33.665 4.798.665 7.127 0v-.02c-.035-.17-.05-.344-.046-.517.039-.487.102-.972.19-1.452.028-.237.04-.475.036-.714V22.7c-.006-.072-.008-.14-.01-.21zm0 0c0-.076 0-.152-.014-.228-.013-.076-.011-.142-.02-.214-.01-.072-.018-.144-.027-.217-.01-.072-.023-.144-.036-.216l-.042-.216c0-.025-.01-.048-.015-.072-.021-.095-.044-.19-.068-.287-.025-.097-.04-.154-.063-.23 0-.034-.02-.068-.03-.1-.012-.032-.033-.11-.05-.165l-.034-.107c-.015-.047-.03-.094-.047-.142-.029-.085-.06-.169-.09-.254-.03-.086-.062-.17-.095-.253-.064-.17-.134-.34-.204-.508-.276-.657-.585-1.304-.87-1.946-.153-.336-.288-.68-.406-1.03l-.036.051c-.058.088-.109.179-.154.274 0 1.493-1.495 3.32-1.495 3.32l-1.505-2.191-1.317 2.025c-.19.1-.38.446-.528.937-.041.133-.081.277-.12.431-.026.102-.05.21-.073.319-.014.055-.025.11-.036.167l-.035.173v.026c-.022.118-.045.24-.066.363-.02.123-.045.265-.066.4-.016.087-.029.175-.04.262-.027.169-.05.34-.072.509-.014.098-.027.19-.038.294l-.046.38c.097.31.205.618.317.92.072.165.113.342.123.522 2.33.665 4.798.665 7.127 0v-.02c-.035-.17-.05-.344-.046-.517.039-.487.102-.972.19-1.452.028-.237.04-.475.036-.714V22.7c-.006-.072-.008-.14-.01-.21zm0 0c0-.076 0-.152-.014-.228-.013-.076-.011-.142-.02-.214-.01-.072-.018-.144-.027-.217-.01-.072-.023-.144-.036-.216l-.042-.216c0-.025-.01-.048-.015-.072-.021-.095-.044-.19-.068-.287-.025-.097-.04-.154-.063-.23 0-.034-.02-.068-.03-.1-.012-.032-.033-.11-.05-.165l-.034-.107c-.015-.047-.03-.094-.047-.142-.029-.085-.06-.169-.09-.254-.03-.086-.062-.17-.095-.253-.064-.17-.134-.34-.204-.508-.276-.657-.585-1.304-.87-1.946-.153-.336-.288-.68-.406-1.03l-.036.051c-.058.088-.109.179-.154.274 0 1.493-1.495 3.32-1.495 3.32l-1.505-2.191-1.317 2.025c-.19.1-.38.446-.528.937-.041.133-.081.277-.12.431-.026.102-.05.21-.073.319-.014.055-.025.11-.036.167l-.035.173v.026c-.022.118-.045.24-.066.363-.02.123-.045.265-.066.4-.016.087-.029.175-.04.262-.027.169-.05.34-.072.509-.014.098-.027.19-.038.294l-.046.38c.097.31.205.618.317.92.072.165.113.342.123.522 2.33.665 4.798.665 7.127 0v-.02c-.035-.17-.05-.344-.046-.517.039-.487.102-.972.19-1.452.028-.237.04-.475.036-.714V22.7c-.006-.072-.008-.14-.01-.21zm0 0c0-.076 0-.152-.014-.228-.013-.076-.011-.142-.02-.214-.01-.072-.018-.144-.027-.217-.01-.072-.023-.144-.036-.216l-.042-.216c0-.025-.01-.048-.015-.072-.021-.095-.044-.19-.068-.287-.025-.097-.04-.154-.063-.23 0-.034-.02-.068-.03-.1-.012-.032-.033-.11-.05-.165l-.034-.107c-.015-.047-.03-.094-.047-.142-.029-.085-.06-.169-.09-.254-.03-.086-.062-.17-.095-.253-.064-.17-.134-.34-.204-.508-.276-.657-.585-1.304-.87-1.946-.153-.336-.288-.68-.406-1.03l-.036.051c-.058.088-.109.179-.154.274 0 1.493-1.495 3.32-1.495 3.32l-1.505-2.191-1.317 2.025c-.19.1-.38.446-.528.937-.041.133-.081.277-.12.431-.026.102-.05.21-.073.319-.014.055-.025.11-.036.167l-.035.173v.026c-.022.118-.045.24-.066.363-.02.123-.045.265-.066.4-.016.087-.029.175-.04.262-.027.169-.05.34-.072.509-.014.098-.027.19-.038.294l-.046.38c.097.31.205.618.317.92.072.165.113.342.123.522 2.33.665 4.798.665 7.127 0v-.02c-.035-.17-.05-.344-.046-.517.039-.487.102-.972.19-1.452.028-.237.04-.475.036-.714V22.7c-.006-.072-.008-.14-.01-.21zm0 0c0-.076 0-.152-.014-.228-.013-.076-.011-.142-.02-.214-.01-.072-.018-.144-.027-.217-.01-.072-.023-.144-.036-.216l-.042-.216c0-.025-.01-.048-.015-.072-.021-.095-.044-.19-.068-.287-.025-.097-.04-.154-.063-.23 0-.034-.02-.068-.03-.1-.012-.032-.033-.11-.05-.165l-.034-.107c-.015-.047-.03-.094-.047-.142-.029-.085-.06-.169-.09-.254-.03-.086-.062-.17-.095-.253-.064-.17-.134-.34-.204-.508-.276-.657-.585-1.304-.87-1.946-.153-.336-.288-.68-.406-1.03l-.036.051c-.058.088-.109.179-.154.274 0 1.493-1.495 3.32-1.495 3.32l-1.505-2.191-1.317 2.025c-.19.1-.38.446-.528.937-.041.133-.081.277-.12.431-.026.102-.05.21-.073.319-.014.055-.025.11-.036.167l-.035.173v.026c-.022.118-.045.24-.066.363-.02.123-.045.265-.066.4-.016.087-.029.175-.04.262-.027.169-.05.34-.072.509-.014.098-.027.19-.038.294l-.046.38c.097.31.205.618.317.92.072.165.113.342.123.522 2.33.665 4.798.665 7.127 0v-.02c-.035-.17-.05-.344-.046-.517.039-.487.102-.972.19-1.452.028-.237.04-.475.036-.714V22.7c-.006-.072-.008-.14-.01-.21zm0 0c0-.076 0-.152-.014-.228-.013-.076-.011-.142-.02-.214-.01-.072-.018-.144-.027-.217-.01-.072-.023-.144-.036-.216l-.042-.216c0-.025-.01-.048-.015-.072-.021-.095-.044-.19-.068-.287-.025-.097-.04-.154-.063-.23 0-.034-.02-.068-.03-.1-.012-.032-.033-.11-.05-.165l-.034-.107c-.015-.047-.03-.094-.047-.142-.029-.085-.06-.169-.09-.254-.03-.086-.062-.17-.095-.253-.064-.17-.134-.34-.204-.508-.276-.657-.585-1.304-.87-1.946-.153-.336-.288-.68-.406-1.03l-.036.051c-.058.088-.109.179-.154.274 0 1.493-1.495 3.32-1.495 3.32l-1.505-2.191-1.317 2.025c-.19.1-.38.446-.528.937-.041.133-.081.277-.12.431-.026.102-.05.21-.073.319-.014.055-.025.11-.036.167l-.035.173v.026c-.022.118-.045.24-.066.363-.02.123-.045.265-.066.4-.016.087-.029.175-.04.262-.027.169-.05.34-.072.509-.014.098-.027.19-.038.294l-.046.38c.097.31.205.618.317.92.072.165.113.342.123.522 2.33.665 4.798.665 7.127 0v-.02c-.035-.17-.05-.344-.046-.517.039-.487.102-.972.19-1.452.028-.237.04-.475.036-.714V22.7c-.006-.072-.008-.14-.01-.21zm0 0c0-.076 0-.152-.014-.228-.013-.076-.011-.142-.02-.214-.01-.072-.018-.144-.027-.217-.01-.072-.023-.144-.036-.216l-.042-.216c0-.025-.01-.048-.015-.072-.021-.095-.044-.19-.068-.287-.025-.097-.04-.154-.063-.23 0-.034-.02-.068-.03-.1-.012-.032-.033-.11-.05-.165l-.034-.107c-.015-.047-.03-.094-.047-.142-.029-.085-.06-.169-.09-.254-.03-.086-.062-.17-.095-.253-.064-.17-.134-.34-.204-.508-.276-.657-.585-1.304-.87-1.946-.153-.336-.288-.68-.406-1.03l-.036.051c-.058.088-.109.179-.154.274 0 1.493-1.495 3.32-1.495 3.32l-1.505-2.191-1.317 2.025c-.19.1-.38.446-.528.937-.041.133-.081.277-.12.431-.026.102-.05.21-.073.319-.014.055-.025.11-.036.167l-.035.173v.026c-.022.118-.045.24-.066.363-.02.123-.045.265-.066.4-.016.087-.029.175-.04.262-.027.169-.05.34-.072.509-.014.098-.027.19-.038.294l-.046.38c.097.31.205.618.317.92.072.165.113.342.123.522 2.33.665 4.798.665 7.127 0v-.02c-.035-.17-.05-.344-.046-.517.039-.487.102-.972.19-1.452.028-.237.04-.475.036-.714V22.7c-.006-.072-.008-.14-.01-.21z"/>
            <path fill="#000" d="M11.412 17.633l-.128-.018c-.192-.026-.382-.064-.569-.113l-.07-.02c-.463-.13-.97-.366-1.084-.78-.034-.133-.03-.273.012-.404.063-.225.15-.444.258-.652v-.012c.014-.03.03-.058.047-.085.157-.306.393-.564.685-.746l-.228.036-1.928.313-2.989.482s-.531-.106-1.254 1.887c0 .024-.017.047-.025.074-.174.487-.359 1.097-.548 1.858-.131.527-.25 1.045-.36 1.548l-.096.45c.342.403.71.784 1.103 1.139l.062.058c.768.696 1.617 1.297 2.528 1.79l.036.02c.574.308 1.17.572 1.784.789l.162.057c.034-.352.072-.74.117-1.14 0-.039 0-.079.015-.119l.046-.38c.011-.096.025-.19.038-.293.023-.17.046-.34.072-.51.011-.086.025-.174.04-.261.02-.135.044-.27.066-.4.023-.131.044-.245.067-.363v-.026l.034-.173c.011-.057.023-.112.036-.167.023-.108.047-.217.074-.319.038-.154.078-.298.12-.43.151-.492.328-.838.527-.938l1.317-2.025.055-.086.025-.038-.047-.003z" opacity=".1"/>
            <path fill="#F1D2D7" d="M11.3 17.636l-1.4 2.149c-.189.096-.367.432-.517.909-.044.14-.088.294-.13.455-.188.82-.331 1.649-.428 2.484 0 .038 0 .076-.015.114-.065.528-.118 1.046-.162 1.503-.614-.216-1.21-.48-1.784-.79l-.036-.018c-.91-.493-1.76-1.094-2.528-1.79l-.062-.059c-.392-.355-.76-.735-1.103-1.138-.045-.051-.089-.105-.133-.158l.065-.296c.108-.503.228-1.019.359-1.545.172-.72.388-1.43.645-2.125.007-.02.015-.041.024-.06.672-1.73 1.156-1.633 1.156-1.633l3.156-.509 1.993-.322-.063.036c-.22.156-.406.355-.548.584l-.055.093c-.023.036-.044.076-.067.116-.11.212-.198.434-.261.664-.06.18-.043.376.045.543.19.368.729.57 1.171.68l.074.018c.199.045.4.077.604.095z"/>
            <path fill="#000" d="M22.267 21.472l-.078-1.685c.332-2.657-.332-2.822-.332-2.822l-.79-.38h-.02l-3.175-1.54-.124-.06-.038-.017-.413-.201-.262-.127-.49-.238-.165-.08v.659c0 .19.017.412.032.67.034.65.097 1.518.209 2.543.063.594.142 1.243.241 1.94.059.412.1.822.127 1.222.086 1.348.044 2.702-.125 4.042l.173-.055c.468-.156.927-.34 1.374-.55.87-.406 1.692-.91 2.448-1.503l.034-.025c.49-.382.95-.8 1.378-1.25l-.004-.543z" opacity=".1"/>
            <path fill="#F1D2D7" d="M22.434 21.472l-.078-1.69c.332-2.656-.332-2.821-.332-2.821l-.949-.46h-.019l-3.184-1.544-.146-.07-.029-.014-.233-.114-.31-.15-.61-.296V14.917c0 .19.016.438.033.721.033.605.09 1.399.19 2.342.068.647.154 1.366.266 2.14.058.414.1.824.125 1.228.085 1.33.045 2.664-.118 3.986.469-.157.928-.34 1.374-.55.871-.407 1.692-.91 2.449-1.504l.034-.024c.49-.383.95-.8 1.378-1.25.055-.057.108-.113.159-.172v-.362z"/>
            <path fill="#000" d="M11.728 7.529c.593-.101 1.188-.317 1.777-.19.493.102.905.43 1.357.658.436.22.913.346 1.4.37.178.024.359-.012.515-.1.235-.163.27-.497.23-.782-.115-.809-.62-1.503-1.14-2.133-.207-.27-.447-.512-.713-.723-.681-.503-1.583-.589-2.427-.55-.964.043-1.944.229-2.78.713-.57.326-1.876 1.355-1.422 2.099.476.778 2.458.765 3.203.638z" opacity=".1"/>
            <path fill="#444176" d="M11.728 7.339c.593-.1 1.188-.317 1.777-.19.493.103.905.43 1.357.659.436.219.913.345 1.4.37.178.023.359-.012.515-.1.235-.164.27-.498.23-.783-.115-.808-.62-1.503-1.14-2.133-.207-.27-.447-.512-.713-.723-.681-.503-1.583-.588-2.427-.55-.964.043-1.944.23-2.78.713-.57.327-1.876 1.355-1.422 2.1.476.777 2.458.764 3.203.637z"/>
        </g>
        <path fill="url(#prefix__d)" d="M79.472 103.154h.029c.042 1.258.224 2.396.573 2.712.834.751 4.29-.752 4.053-1.66-.047-.188-.128-.496-.23-.885.934-.115 1.731-.376 2.048-.913l.6 1.818.043.13h.046c.395 3.685 1.292 11.337 2.009 12.363.956 1.358 2.055 7.242 2.055 7.242l2.055 12.072s.792 6.95 1.266 7.701c.138.144.32.237.52.265-.277.815-.675 1.768-1.147 2.3-.956 1.055-2.214 3.168-3.321 3.018-1.107-.15-1.422 2.113.633 2.413 1.137.168 2.952-.035 4.345-.25 0 .605.428 1.3 1.505 1.458 2.055.303 6.324-.603 6.324-.603s3.632-1.502 3.795-2.566c.114-.77-.442-3.861-.752-5.482.574-.904-.038-8.7-.038-8.7l-1.107-14.939s.633-8.298 0-9.808c-.396-.94-.543-5.26-.598-8.35l.765.05c.043-.052.083-.107.118-.164l.191.013s.956-1.056.159-2.716c-.587-1.234-.476-6.805-.382-9.58l.112-1.314c.042-.04.074-.089.094-.143 1.483-.197 2.924-.625 4.269-1.27.406-.165.783-.39 1.12-.668.792-.752.316-5.282-1.265-12.072-1.581-6.79-3.004-6.187-3.004-6.187s-3.795-.303-5.534-2.566c-1.74-2.264-2.908-2.234-2.908-2.234-.044-.296-.075-.576-.096-.837 0-.098-.015-.188-.02-.286.59-.54 1.042-1.212 1.315-1.959.355-.188.793-.25 1.133-.486.087-.062.166-.134.235-.214.342-.31.558-.729.61-1.182.055-.495.03-.994-.07-1.482-.12-.721-.299-1.46-.727-2.027-.428-.567-1.069-.909-1.686-1.226-1.672-.863-3.349-1.717-5.03-2.562-.328-.197-.695-.325-1.076-.376-.673-.037-1.277.415-1.82.845-.217.168-.424.347-.622.536-.167.146-.32.308-.456.482-.635.836-.905 2.41-.626 3.455.088.33.278.426.51.422-.345.676-.525 1.422-.525 2.18.008 1.683.888 3.246 2.334 4.148 0 .106 0 .209.01.308.008.386-.005.771-.038 1.156 0 0-4.206 2.233-4.678 3.288-.473 1.056-2.214 1.811-2.214 1.811s-3.32 1.66-3.32 7.545l-1.74 8.299L79 101.32s.218-.188.574-.454c-.012.105-.022.214-.031.325-.047.605-.063 1.213-.048 1.82l-.023.143zm21.24 41.005c-.065.242-.16.563-.281.94-.054-.313-.107-.62-.16-.914.137-.013.284-.02.44-.026z"/>
        <path fill="#53526B" d="M95.457 142.466s-.599 2.796-1.502 3.881c-.903 1.086-2.087 3.262-3.13 3.106-1.045-.156-1.347 2.174.598 2.484 1.946.31 5.974-.62 5.974-.62s3.44-1.56 3.589-2.64c.148-1.08-.898-6.677-.898-6.677l-4.63.466z"/>
        <path fill="#000" d="M95.457 142.466s-.599 2.796-1.502 3.881c-.903 1.086-2.087 3.262-3.13 3.106-1.045-.156-1.347 2.174.598 2.484 1.946.31 5.974-.62 5.974-.62s3.44-1.56 3.589-2.64c.148-1.08-.898-6.677-.898-6.677l-4.63.466z" opacity=".05"/>
        <path fill="#53526B" d="M100.456 143.468s-.599 2.795-1.501 3.88c-.903 1.086-2.09 3.262-3.132 3.106-1.041-.156-1.345 2.173.599 2.483 1.944.31 5.978-.622 5.978-.622s3.437-1.56 3.586-2.64c.148-1.079-.897-6.675-.897-6.675l-4.633.468z"/>
        <path fill="#5F5D7E" d="M88 103s1.18 12.715 2.066 14.046c.886 1.33 1.918 7.097 1.918 7.097l1.918 11.827s.742 6.802 1.18 7.54c.44.74 5.918.422 5.918.422l-3.406-39.16L88 103z"/>
        <path fill="#000" d="M88 103s1.18 12.715 2.066 14.046c.886 1.33 1.918 7.097 1.918 7.097l1.918 11.827s.742 6.802 1.18 7.54c.44.74 5.918.422 5.918.422l-3.406-39.16L88 103z" opacity=".05"/>
        <path fill="#5F5D7E" d="M85 96l.39 1.249 2.106 6.746.041.129h.011c.283.064 6.252 1.449 7.54 1.874.07.022.138.047.204.077.598.3 1.343 11.134 1.343 11.134s.447 10.232.749 10.984c.301.752 1.498 16.247 2.237 15.797.74-.45 6.114 0 6.114 0 .597-.602 0-8.726 0-8.726l-1.06-14.893s.597-8.275 0-9.78c-.597-1.506-.597-11.585-.597-11.585L91.871 97.08l-1.18-.19L85 96z"/>
        <path fill="#000" d="M85 97.417l2.144 6.616.051.13c.288.062 6.363 1.42 7.674 1.837H95l-3.394-8.748L91.51 97l-1.103.069-5.406.348z" opacity=".02"/>
        <path fill="#000" d="M99.378 66s-5.44 5.962-8.821 1.042l-3.234 2.237.59 3.428L86 98.638s4.998-.15 8.525 1.043c2.006.721 4.242.198 5.733-1.342l-.581-22.8L101 68.533 99.378 66z" opacity=".1"/>
        <path fill="#53526B" d="M99.378 66s-5.44 5.962-8.821 1.042l-3.234 2.237.59 3.428L86 98.638s4.998-.15 8.525 1.043c2.006.721 4.242.198 5.733-1.342l-.581-22.8L101 68.533 99.378 66z"/>
        <g fill="#E82127">
            <path d="M1.777.373L1.777.931 1.473.931 1.473.56.361.56.361.931.055.931.055.374 1.777.373M1.505.193H.331C.174.171.05.1.01.01h1.811C1.782.1 1.66.17 1.503.193" transform="translate(87 93)"/>
            <g>
                <path d="M2.052.016c-.04.09-.162.16-.317.183h-.494l-.025.005v.73H.912v-.73L.884.2H.39C.235.175.114.106.072.016h1.98" transform="translate(87 93) translate(10.072)"/>
            </g>
        </g>
        <path fill="#D6DBE6" d="M88 98s0 3.575-.894 5.087c-.894 1.512-6.106.69-6.106.69l1.042-5.087L88 98z"/>
        <path fill="#FDC2CC" d="M81.5 105.802c.719.73 3.695-.73 3.49-1.6-.144-.615-.646-2.816-.932-4.065l-.198-.878s-1.744-.583-2.36 0c-.223.212-.38 1.046-.454 2.054-.126 1.75.002 4.025.455 4.489zM89 69.016L94.06 73s7.517-.443 5.638-4.132c-.818-1.622-1.311-3.395-1.452-5.214-.061-.67-.061-1.346 0-2.017 0 0-6.94-6.485-6.073.885.069.566.109 1.135.12 1.705.104 5.532-3.293 4.79-3.293 4.79z"/>
        <path fill="#000" d="M92.073 62.506c.067.562.106 1.128.117 1.694.76.524 1.653.802 2.565.8 1.264 0 2.194-1.279 3.034-2.128-.094-1.218.211-1.247.211-1.247s-6.774-6.455-5.927.88z" opacity=".1"/>
        <circle cx="95" cy="60" r="5" fill="#FDC2CC"/>
        <path fill="#000" d="M98.242 64s.868.076 2.603 2.347c1.736 2.27 5.521 2.575 5.521 2.575s1.42-.607 2.998 6.209c1.577 6.815 2.05 11.358 1.262 12.115-.789.757-3.945 1.82-5.53 1.82 0 0-.473 9.541.316 11.207.788 1.666-.159 2.727-.159 2.727l-6.933-.455s-2.368-2.877-2.841-7.874c-.473-4.998-2.05-19.236-1.262-20.902.789-1.666 4.26-5.907 4.103-6.361-.157-.455-.078-3.408-.078-3.408z" opacity=".1"/>
        <path fill="#D6DBE6" d="M97.942 64s1.167-.03 2.903 2.19c1.736 2.22 5.52 2.516 5.52 2.516s1.421-.592 2.998 6.067c1.578 6.659 2.051 11.098 1.262 11.837-.788.74-3.945 1.776-5.522 1.776 0 0-.474 9.322.315 10.95.789 1.627-.158 2.664-.158 2.664l-6.936-.444s-2.367-2.811-2.841-7.694c-.474-4.883-2.055-18.792-1.266-20.412.788-1.62 4.26-5.771 4.103-6.215-.156-.444-.378-3.235-.378-3.235z"/>
        <path fill="#000" d="M81 101c.649-.46 1.873-1.175 3-1.017l-.198-.76s-1.736-.503-2.35 0c-.226.184-.38.904-.452 1.777zM91.29 65s-3.864 2.508-4.32 3.573c-.454 1.065-2.121 1.825-2.121 1.825s-3.182 1.672-3.182 7.6L80 86.359 87.578 97s.91-10.641 1.364-13.226c.455-2.584 1.06-7.444 1.06-7.444s2.274-2.888 1.97-3.647c-.305-.76-.681-7.683-.681-7.683z" opacity=".1"/>
        <path fill="#D6DBE6" d="M91.468 65s-3.932 2.247-4.374 3.308c-.441 1.062-2.07 1.822-2.07 1.822s-3.103 1.67-3.103 7.588l-1.626 8.347L80 102s2.662-2.58 4.583-1.366c1.921 1.214 3.104-3.947 3.104-3.947s.887-10.624 1.33-13.204c.444-2.58 1.034-7.432 1.034-7.432s2.219-2.883 1.922-3.642c-.297-.758-.505-7.409-.505-7.409z"/>
        <path fill="#000" d="M90.665 53.712c.244-.324.525-.615.838-.866.495-.431 1.042-.882 1.657-.844.347.049.68.174.979.367 1.53.844 3.055 1.697 4.576 2.558.561.318 1.141.655 1.533 1.226.392.571.551 1.305.661 2.024.093.487.115.986.066 1.48-.045.484-.27.93-.626 1.243-.41.312-.971.314-1.315.722-.198.237-.285.568-.426.855-.14.288-.385.568-.663.517-.278-.051-.446-.36-.486-.672-.018-.316 0-.634.052-.946.055-.567-.014-1.169-.328-1.59-.217-.288-.528-.462-.737-.757-.503-.712-.273-1.892-.824-2.56-.326-.355-.809-.5-1.265-.378-.446.098-.854.351-1.264.567-.554.293-1.134.527-1.733.7-.502.144-1.083.488-1.255-.212-.262-1.027-.018-2.6.56-3.434z" opacity=".1"/>
        <path fill="#865A61" d="M90.666 53.712c.243-.324.525-.615.838-.866.495-.431 1.042-.882 1.656-.844.348.049.681.174.98.367 1.527.844 2.797.046 4.575 2.558.38.537 1.141.655 1.533 1.226.392.571.551 1.305.661 2.024.093.487.115.986.066 1.48-.045.484-.27.93-.625 1.243-.41.312-.972.314-1.316.722-.198.237-.285.568-.426.855-.14.288-.385.568-.663.517-.278-.051-.446-.36-.486-.672-.017-.316 0-.634.053-.946.054-.567-.015-1.169-.329-1.59-.217-.288-.527-.462-.737-.757-.502-.712-.273-1.892-.824-2.56-.325-.355-.808-.5-1.264-.378-.446.098-.855.351-1.265.567-.554.293-1.134.527-1.732.7-.502.144-1.084.488-1.255-.212-.264-1.027-.018-2.601.56-3.434z"/>
        <path fill="#000" d="M104.904 76s2.073 4.958.517 7L102 82.268s3.11.875 2.644-.876c-.467-1.75.26-5.392.26-5.392zM106 88.534s-4.703.266-6-.534c1.708 1.072 3.725 1.76 5.853 2l.147-1.466zM87 80s-2.136 6.716-1.993 7.737c.143 1.021.427 12.263.427 12.263l.427-.147-.143-12.262L87 80z" opacity=".1"/>
        <path fill="url(#prefix__e)" d="M105.071 87.676L53.975 46.11c-.6-.606-1.416-.946-2.265-.945H49.54c9.006-11.65 7.477-28.362-3.49-38.15C35.083-2.775 18.465-2.26 8.113 8.19-2.237 18.64-2.748 35.415 6.95 46.485 16.645 57.555 33.2 59.1 44.742 50.008v2.19c-.001.857.335 1.68.936 2.286L96.774 96.05c.597.608 1.41.95 2.26.95.847 0 1.66-.342 2.258-.95l3.766-3.798c1.25-1.262 1.257-3.307.013-4.576zm-77.387-42.51c-9.421 0-17.059-7.71-17.059-17.22 0-9.51 7.638-17.22 17.059-17.22 9.42 0 17.058 7.71 17.058 17.22.003 4.568-1.793 8.95-4.992 12.181-3.2 3.23-7.54 5.045-12.066 5.042v-.004z"/>
        <path fill="#2488CC" d="M106.071 87.676L54.975 46.11c-.6-.606-1.416-.946-2.265-.945H50.54c9.006-11.65 7.477-28.362-3.49-38.15C36.083-2.775 19.465-2.26 9.113 8.19-1.237 18.64-1.748 35.415 7.95 46.485 17.645 57.555 34.2 59.1 45.742 50.008v2.19c-.001.857.335 1.68.936 2.286L97.774 96.05c.597.608 1.41.95 2.26.95.847 0 1.66-.342 2.258-.95l3.766-3.798c1.25-1.262 1.257-3.307.013-4.576zm-77.387-42.51c-9.421 0-17.059-7.71-17.059-17.22 0-9.51 7.638-17.22 17.059-17.22 9.42 0 17.058 7.71 17.058 17.22.003 4.568-1.793 8.95-4.992 12.181-3.2 3.23-7.54 5.045-12.066 5.042v-.004z"/>
        <path fill="#FDC2CC" d="M102 83.77s-6.873-8.605-5.907-2.7c.69 4.2 3.296 6.45 4.532 6.9 1.237.45 1.375-4.2 1.375-4.2z"/>
        <path fill="#D6DBE6" d="M104.79 76s.147 5.603.872 6.36c.726.756-.436 1.665-.436 1.665l-2.904-.76s.73 4.996-2.322 4.391c0 0 2.033 1.968 4.065 2.272 2.033.304 1.887-.454 1.887-.454L109 85.688 104.79 76z"/>
        <path fill="#D6DBE6" d="M105.431 89L108 88.29 107.657 86.8 106.067 86 104 87.2z"/>
        <path fill="#C0BCCF" d="M17 27.5c-.005 2.705.872 5.337 2.496 7.499.164.219.335.43.513.638.096.112.195.222.296.33.05.057.102.112.155.166.414.436.86.841 1.334 1.212l.033.024c.733.574 1.528 1.063 2.372 1.456.432.204.877.382 1.33.533l.168.054c.103.035.21.066.314.095l.042.013c.054.015.107.031.162.044 1.068.29 2.17.437 3.278.436.183 0 .376 0 .564-.013.982-.042 1.955-.201 2.899-.474h.018c.175-.052.348-.105.519-.164h.018l.156-.055c.595-.21 1.173-.465 1.728-.765l.035-.018.184-.101c.815-.458 1.576-1.006 2.268-1.633l.061-.057c.38-.344.737-.713 1.068-1.103l.039-.046.09-.107c.08-.096.158-.195.235-.294 3.35-4.318 3.508-10.31.391-14.799-3.117-4.488-8.787-6.432-14-4.799-5.215 1.633-8.764 6.464-8.766 11.929z"/>
        <path fill="url(#prefix__f)" d="M19.86 31.61s2.774-.227 4.045-1.937c1.24-1.664 2.082-1.684 2.123-1.684.032-.222.055-.433.07-.63v-.028c-.05.04-.111.065-.175.075-.248.037-.466-.191-.59-.434-.096-.253-.222-.494-.377-.718-.306-.342-.808-.344-1.173-.605-.321-.263-.524-.637-.564-1.042-.02-.151-.028-.304-.023-.456-.006-.325.02-.65.079-.971.098-.604.243-1.221.59-1.697.348-.476 1.03-.578 1.368-1.028 1.585-2.107 2.715-1.438 4.079-2.145.264-.162.562-.267.872-.308.548-.031 1.036.348 1.477.709.281.211.534.456.752.729.393.534.613 1.429.594 2.212.01.291-.018.582-.086.866-.11.42-.405.392-.728.297.825 1.685.262 3.702-1.328 4.753v.234c-.005.29.005.581.03.87.032.017 3.073 1.688 3.417 2.481.344.793 1.62 1.367 1.62 1.367s1.4.73 2.068 3.018l-.04.046c-.338.394-.703.767-1.092 1.115l-.062.059c-.708.63-1.486 1.18-2.32 1.64-.061.034-.123.069-.189.102l-.036.018c-.567.302-1.158.56-1.767.771l-.16.057h-.019c-.175.06-.352.113-.53.164h-.02c-.964.274-1.96.435-2.965.477-.188.01-.376.013-.577.013-1.13.006-2.254-.136-3.344-.421-.056-.013-.11-.03-.165-.044l-.044-.013c-.107-.029-.216-.062-.321-.096l-.171-.053c-.467-.154-.923-.334-1.367-.54-.865-.397-1.679-.89-2.426-1.467l-.034-.023c-.486-.374-.942-.783-1.366-1.222-.053-.053-.106-.109-.158-.167-.103-.11-.205-.22-.302-.334-.188-.21-.358-.423-.525-.643 1.006-3.742 1.86-3.366 1.86-3.366z"/>
        <path fill="#FDC2CC" d="M29.858 35L34 31.87s-2.775.583-2.696-3.76v-.044c0-.392.039-.823.096-1.296.711-5.797-4.97-.696-4.97-.696.05.513.05 1.03 0 1.543v.041c-.112 1.429-.514 2.821-1.182 4.096C23.706 34.65 29.858 35 29.858 35z"/>
        <path fill="#000" d="M28.424 27.394c.559.57.9 1.606 1.74 1.606.609.001 1.204-.186 1.71-.538 0-.334.031-.7.077-1.103.565-4.936-3.951-.593-3.951-.593s.484-.175.424.628z" opacity=".1"/>
        <ellipse cx="29" cy="24.5" fill="#FDC2CC" rx="4" ry="3.5"/>
        <path fill="#000" d="M32.395 19.557c-.223-.295-.48-.56-.767-.787-.448-.392-.947-.804-1.504-.768-.316.044-.619.158-.89.334-1.39.767-2.54.042-4.156 2.324-.345.489-1.037.603-1.394 1.116-.356.512-.5 1.185-.601 1.84-.084.443-.104.897-.06 1.346.043.441.25.847.575 1.13.372.283.884.285 1.196.656.157.242.286.504.383.778.127.261.349.508.602.47.253-.038.404-.325.44-.603.017-.287 0-.575-.047-.858-.048-.508.013-1.062.299-1.446.191-.263.479-.42.669-.687.456-.645.249-1.728.749-2.327.298-.32.737-.449 1.15-.336.403.12.79.295 1.15.519.503.266 1.03.48 1.573.637.456.13.985.444 1.14-.201.244-.949.016-2.38-.507-3.137z" opacity=".1"/>
        <path fill="#865A61" d="M32.395 19.557c-.223-.295-.48-.56-.767-.787-.448-.392-.947-.804-1.504-.768-.316.044-.619.158-.89.334-1.39.767-2.54.042-4.156 2.324-.345.489-1.037.603-1.394 1.116-.356.512-.5 1.185-.601 1.84-.084.443-.104.897-.06 1.346.043.441.25.847.575 1.13.372.283.884.285 1.196.656.157.242.286.504.383.778.127.261.349.508.602.47.253-.038.404-.325.44-.603.017-.287 0-.575-.047-.858-.048-.508.013-1.062.299-1.446.191-.263.479-.42.669-.687.456-.645.249-1.728.749-2.327.298-.32.737-.449 1.15-.336.403.12.79.295 1.15.519.503.266 1.03.48 1.573.637.456.13.985.444 1.14-.201.244-.949.016-2.38-.507-3.137z"/>
        <path fill="#000" d="M25.059 36.583l-.077 2.96c1.118.305 2.272.458 3.431.457.193 0 .395 0 .591-.014 1.028-.044 2.047-.21 3.036-.497h.019c.183-.054.364-.11.543-.172h.019l.164-.058c.623-.22 1.228-.488 1.809-.802l.036-.02.193-.105-.298-3.99.475-2.737-2.602-1.776c-.146.212-.31.41-.49.594-.256.269-.557.492-.888.66-1.867.922-3.992-.544-5.049-1.45l-.24-.215c-.274-.248-.43-.418-.43-.418L24 31.013l1.059 5.57z" opacity=".1"/>
        <path fill="#53526B" d="M25.059 37.583l-.077 2.96c1.118.305 2.272.458 3.431.457.193 0 .395 0 .591-.014 1.028-.044 2.047-.21 3.036-.497h.019c.183-.054.364-.11.543-.172h.019l.164-.058c.623-.22 1.228-.488 1.809-.802l.036-.02.193-.105-.298-3.99.475-2.737-2.602-1.776c-.146.212-.31.41-.49.594-.256.269-.557.492-.888.66-1.867.922-3.992-.544-5.049-1.45l-.24-.215c-.274-.248-.43-.418-.43-.418L24 32.013l1.059 5.57z"/>
        <path fill="#555388" d="M18 34.971c.169.22.345.433.528.642.099.113.201.224.305.333.052.056.105.112.16.166.426.439.886.846 1.374 1.218l.034.024c.755.578 1.574 1.069 2.443 1.465.446.204.904.383 1.37.536l.173.053c.106.036.216.067.324.097l.044.012c.054.015.11.032.166.045 1.1.292 2.236.44 3.376.438.19 0 .389 0 .582-.013.148-2.359.19-4.252-.042-4.738-.138-.282-.295-.555-.468-.817-.935-1.468-2.65-3.676-2.558-3.955.036-.136.062-.275.078-.416.1-.728.2-2.061.2-2.061-.041 0-.89.02-2.137 1.68-1.28 1.705-4.074 1.932-4.074 1.932s-.854-.37-1.878 3.36zM32.41 37.531s.13 1.125.3 2.469h.017l.149-.057c.566-.218 1.116-.484 1.645-.795l.033-.019c.058-.034.116-.068.175-.105.776-.475 1.5-1.044 2.16-1.695l.058-.06c.361-.357.7-.74 1.016-1.145l.037-.048c-.625-2.366-1.925-3.11-1.925-3.11s-1.183-.588-1.507-1.41c-.323-.82-3.181-2.556-3.181-2.556v.013c0 .147-.046 1.494-.114 2.847-.044.88-.098 1.765-.161 2.326-.014.182-.044.363-.091.538-.222.579 1.39 2.807 1.39 2.807z"/>
    </g>
</svg>
