<svg xmlns="http://www.w3.org/2000/svg" width="157" height="140" viewBox="0 0 157 140">
    <g fill="none" fill-rule="evenodd">
        <circle cx="36" cy="8" r="7" fill="#2F2E41" fill-rule="nonzero"/>
        <path fill="#2F2E41" fill-rule="nonzero" d="M14 96l4.476-15 1.524.46s-1.81 11.227-4.667 14.08L14 96z"/>
        <path fill="#FFB9B9" fill-rule="nonzero" d="M31.187 11.969s.57 6.237-.758 7.992c-1.328 1.754.853 5.166.853 5.166L35.266 30l5.88-2.73.854-5.067-.57-3.51s-1.99-2.046-1.137-5.75-9.106-.974-9.106-.974z"/>
        <path fill="#000" fill-rule="nonzero" d="M31.187 11.969s.57 6.237-.758 7.992c-1.328 1.754.853 5.166.853 5.166L35.266 30l5.88-2.73.854-5.067-.57-3.51s-1.99-2.046-1.137-5.75-9.106-.974-9.106-.974z" opacity=".1"/>
        <path fill="#FFB9B9" fill-rule="nonzero" d="M34 126.412L34 130.029 40 131 39.455 125zM50.091 124.6L49 130.3 51.182 132 55 128.9 54.545 124z"/>
        <path fill="#2F2E41" fill-rule="nonzero" d="M40.12 130.958s-1.994-3.378-5.695-1.26c0 0-.664 3.734-1.328 4.02-.665.285-4.366 5.71 0 6.185 4.365.476 6.548-.952 6.548-.952s-.854.737.474.357c1.33-.381.76-2.474.76-2.474l-.76-5.876zM53.245 128.713s-2.977 2.078-3.457 1.134c-.48-.945-1.248-.85-1.248-.85s-2.689 9.967-.96 10.44c1.112.269 2.281.21 3.36-.172 0 0 2.305-1.587 2.305-.36 0 1.228 6.433 1.14 9.121 1.046 2.689-.095 1.249-2.078 1.249-2.078l-3.553-3.4-4.033-5.76s-1.824-1.605-2.784 0zM25 65.206l3.92 38.254s2.147 23.351 2.52 23.73c.374.38 2.8 1.614 8.121 0l-1.213-30.565 2.24-18.984 5.134 13.1s1.213 35.216 2.054 35.216c.84 0 5.973 1.708 7.187-.38 1.213-2.088 1.027-24.585 1.027-24.585s-.56-35.501-4.667-36.64c-4.108-1.14-26.323.854-26.323.854z"/>
        <circle cx="36.5" cy="9.5" r="6.5" fill="#FFB9B9" fill-rule="nonzero"/>
        <path fill="#575A89" fill-rule="nonzero" d="M36.526 28.242s-.666-4.04-.666-4.79c0-.752-2.952-1.222-2.952-1.222s-2.285-2.535-2.762-2.16c-.476.376-7.713 5.166-8.855 5.823-1.143.658-2.381 3.476-2.286 3.663.095.188 6 12.398 6 12.398s2.57 7.514.761 11.459c-1.81 3.944-4.095 11.74-.762 13.337 3.333 1.596 19.521 5.071 22.473 2.066 2.952-3.006 5.047-3.85 5.809-3.85.762 0-3.142-13.056-2.285-14.277.857-1.221-.381-8.829-.381-8.829L55 29.744s-.38-6.762-9.046-8.265L40.77 19l-4.244 9.242z"/>
        <path fill="#FFB9B9" fill-rule="nonzero" d="M19.275 67.188s-.49 4.501-.49 5.814c0 1.313-2.348 9.004 1.077 9.942 3.425.938 3.132-10.223 3.132-10.223V67l-3.72.188zM57.75 63s.644 4.362.322 5.31c-.322.95 3.112 9.2-1.503 9.674-4.614.474-3.434-9.863-3.434-9.863V63h4.615z"/>
        <path fill="#2F2E41" fill-rule="nonzero" d="M18 94l2.86-14h.887c1.261 1.5 1.596 3.492.887 5.273-1.183 3.09-2.17 8.727-2.17 8.727H18z"/>
        <path fill="#575A89" fill-rule="nonzero" d="M20.507 28l-1.448 1.128s-1.932 29.89-1.449 32.145c.483 2.256-1.738 5.452.193 5.734 1.931.282 4.249 1.504 5.311.752 1.062-.752 1.255-3.478 1.641-4.136.387-.658 1.063-8.46 1.063-8.46s2.027-7.8.772-13.628c-1.255-5.828-2.414-11.75-2.414-11.75L20.506 28zM50.63 26l4.165 3.759 3.169 19.66s1.992 15.323.452 15.516c-1.539.193-3.893-.289-4.889 0-.996.29-1.81-.482-1.81-.482s-1.087-6.168-1.087-6.264c0-.096-.725-7.132-.725-7.132L49 43.155l1.358-8.674L50.63 26z"/>
        <path fill="#3F3D56" fill-rule="nonzero" d="M30.845 115.175s-.636 1.77-1.513 4.179c-.408 1.12-.867 2.38-1.34 3.663-.304.83-.614 1.671-.918 2.492-.486 1.312-.958 2.573-1.37 3.655-.544 1.428-.986 2.547-1.223 3.07-1.077 2.368-20.757-1.422-22.323-2.37-1.567-.948-1.958-4.17-2.154-8.718l-.002-.071c-.026-.919.216-2.286.62-3.89.202-.802.445-1.663.715-2.556.363-1.2.774-2.456 1.204-3.707 1.846-5.373 4.023-10.625 4.023-10.625s3.818-2.559 5.189-4.264c1.37-1.706 8.91-3.033 8.91-3.033 2.154.095 7.05 8.15 9.007 10.614 1.959 2.464 1.175 11.561 1.175 11.561z"/>
        <circle cx="19" cy="100" r="1" fill="#2F2E41" fill-rule="nonzero"/>
        <circle cx="20.5" cy="100.5" r="1" fill="#2F2E41" fill-rule="nonzero"/>
        <path fill="#F2F2F2" fill-rule="nonzero" d="M28 119.365c-.393 1.111-.836 2.361-1.292 3.635L1 114.677c.35-1.19.746-2.436 1.16-3.677L28 119.365zM27 126.339c-.484 1.314-.955 2.577-1.366 3.661L.002 121.897c-.026-.92.216-2.29.619-3.897L27 126.339z"/>
        <path stroke="#2F2E41" stroke-width="3" d="M19 100s1.579 8.328.632 15.71C18.684 123.09 22 130 22 130"/>
        <path stroke="#2F2E41" stroke-width="3" d="M20 101s-3.545 13.365-3.636 15.247C16.273 118.13 14.818 131.588 13 133"/>
        <path fill="#2F2E41" fill-rule="nonzero" d="M31.49 5.855s-1.46-3.737.658-4.958l.584 1.652S38.062-.612 39.45.106l-1.314 1.725s6.207 0 6.645 2.37l-2.19.073S44.926 5.783 45 8.226l-4.673.287 2.263 1.294s-8.47 1.15-10.515-2.156l-.584-1.796z"/>
        <path fill="#2F2E41" fill-rule="nonzero" d="M30 6.235s1.709 3.5 3.987 2.625c2.279-.875 0-4.082 0-4.082L32.468 4 30 6.235z"/>
        <path fill="#2488CC" fill-rule="nonzero" d="M85.165 51.443L89.257 51.451 89.278 63.368 85.186 63.361z" transform="rotate(-49.17 87.222 57.406)"/>
        <path fill="#2488CC" fill-rule="nonzero" d="M142.713 106.96L146.805 106.967 146.824 117.531 142.733 117.524z" transform="rotate(-49.17 144.769 112.246)"/>
        <path fill="#3F3D56" fill-rule="nonzero" d="M156 83.999v.24c-.006.6-.023 1.2-.052 1.795-1.09 21.172-18.718 37.826-40.183 37.965-21.465.139-39.311-16.286-40.682-37.443C75.028 85.71 75 84.858 75 84c-.014-8.284 2.589-16.367 7.447-23.12.389-.544.793-1.078 1.212-1.603.29-.364.587-.72.887-1.074 14.222-16.639 39.305-18.99 56.441-5.29.488.39.967.792 1.436 1.203.375.329.743.665 1.105 1.01 7.126 6.731 11.512 15.805 12.331 25.51.094 1.11.141 2.232.141 3.364z"/>
        <path fill="#2488CC" fill-rule="nonzero" d="M116.822 130C92.107 130 72 109.707 72 84.763 71.985 73.351 76.26 62.357 83.96 54l.992.93c-7.467 8.104-11.612 18.766-11.598 29.833 0 24.19 19.5 43.87 43.468 43.87 11.769.04 23.042-4.775 31.206-13.33l.972.952c-8.418 8.82-20.043 13.786-32.178 13.745z"/>
        <path fill="#2488CC" fill-rule="nonzero" d="M111 128H123V140H111zM84.495 60.077c.02.008.038.019.054.032.214.178-.054.518-.022.8.038.359.514.438.873.474.36.038.814.33.644.651-.903.314-1.817.006-2.738-.352-4.766 6.766-7.32 14.864-7.306 23.164 0 .86.027 1.715.081 2.562.076.056.158.1.246.134.27.103.584.084.833.231.197.118.33.325.527.434.565.31 1.348-.287 1.875.084.137.125.266.258.387.398.486.425 1.286.14 1.849.458.362.205.548.614.743.984.484.927 1.268 1.838 2.303 1.911.326-.015.653-.004.978.033.32.074.633.354.581.679-.089.559.184 1.17.111 1.728-.132 1.022-1.568 1.47-1.69 2.492 0 .225-.012.45-.037.673-.065.267-.265.485-.335.752-.135.505.224 1.009.616 1.347.395.34.865.635 1.081 1.11.227.504.116 1.09.19 1.638.162 1.197 1.186 2.083 2.24 2.655.338.142.638.363.876.643.27.396.243.916.335 1.388.222 1.153 1.184 2.104 1.21 3.28.02.836-.44 1.594-.715 2.382-.284.826-.368 1.708-.246 2.573 1.54 1.319 3.179 2.517 4.9 3.585.093-.14.162-.295.203-.458.066-.37-.1-.743-.42-.938.291-.11.555-.281.776-.501.223-.231.279-.577.14-.867.477.06 1.041.09 1.355-.278.251-.295.235-.736.135-1.11-.137-.363-.228-.742-.27-1.128 1.102.054 2.207.016 3.303-.112-.159-.54-.52-.995-1.006-1.27.498-.085.949-.685 1.106-1.167.135-.492.143-1.012.021-1.508-.037-.127-.043-.262-.016-.392.08-.173.22-.31.395-.385.821-.477 1.643-.953 2.465-1.428.146-.075.28-.173.394-.292.257-.308.22-.768.087-1.147-.133-.38-.344-.736-.395-1.134-.151-1.192 1.114-2.048 1.54-3.17.146-.45.224-.917.233-1.388.035-.507.038-1.093-.346-1.418-.37-.313-.946-.242-1.332-.534-.354-.267-.476-.783-.862-.998-.352-.196-.79-.07-1.182-.163-.686-.161-1.119-.96-1.821-1.034-.395-.043-.844.153-1.168-.079-.286-.207-.297-.619-.351-.967-.197-1.114-1.06-1.986-2.163-2.187-.408-.065-.851-.04-1.2-.267-.351-.229-.51-.657-.789-.976-.443-.51-1.146-.692-1.803-.848-.892-.21-1.783-.42-2.673-.632-.473-.115-1.084-.174-1.34.245-.076.16-.13.33-.157.505-.198.645-.785 1.09-1.454 1.101-.224-.385-.586-.668-1.011-.79-.278-.048-.552-.113-.822-.197-.284-.14-.498-.393-.592-.697-.094-.305-.06-.636.095-.914.315-.569.214-1.28-.246-1.736-.454-.412-1.11-.513-1.722-.472-.16-.352.108-.747.395-1.003.29-.254.638-.505.7-.886.1-.6-.66-1.055-1.235-.878-.576.18-.944.744-1.187 1.3-.118.328-.279.64-.478.924-.209.288-.56.434-.908.377-.476-.123-.657-.693-.763-1.173-.168-.64-.254-1.301-.254-1.965.005-.67.268-1.312.736-1.788.786-.73 1.997-.66 3.06-.543-.236-.316-.201-.76.08-1.036.289-.258.685-.356 1.06-.261.32.067.609.24.819.493.302.37.389.875.616 1.295.23.422.743.782 1.162.556.365-.196.422-.703.333-1.11-.092-.403-.284-.798-.252-1.213.062-.787.876-1.264 1.592-1.589.716-.324 1.535-.763 1.649-1.548.005-.153.034-.304.086-.447.08-.128.19-.234.322-.306 2.09-1.393 4.217-2.805 6.606-3.565.124-.041.138.002.265-.028.178-.103.06-.39-.111-.504-.17-.114-.397-.204-.44-.406-.03-.147.056-.294.078-.444.011-.184-.069-.362-.213-.474-.145-.113-.336-.146-.509-.088-.192-.256.187-.553.495-.64.922-.255 1.869-.41 2.824-.464.11-.018.224 0 .322.055.146.141.156.373.024.528-.13.146-.274.278-.43.396-.316.31-.435.77-.308 1.196.5.257 1.04.521 1.595.431.551-.09 1.04-.717.781-1.216-.24-.466-.968-.572-1.092-1.082-.146-.597.692-1.128.503-1.712-.081-.256-.335-.409-.53-.591-.469-.466-.607-1.173-.349-1.783-.642.113-1.298-.094-1.762-.556-.422-.428-.757-1.107-1.357-1.085-.548.016-1.021.662-1.535.466-.127-.05-.26-.147-.381-.09-.081.053-.134.14-.143.237-.13.63.094 1.347-.246 1.892-.37.591-1.227.673-1.676 1.208-.243.289-.338.678-.562.984-.225.305-.697.501-.968.234.273-.564.122-1.242-.362-1.636-.249-.164-.518-.296-.8-.392-.315-.134-.615-.302-.895-.502-.139-.085-.252-.208-.327-.354-.059-.184-.051-.383.022-.562.279-.802.975-1.383 1.808-1.51.357-.049.773-.033 1.011-.308.124-.144.19-.365.373-.422.116-.025.236-.01.343.04l1.335.475c.15.069.313.096.476.079.167-.022.29-.171.279-.34-.044-.224-.384-.33-.352-.557.016-.074.055-.14.111-.19.976-1.048 2.365-1.6 3.787-1.508.167.28-.098.61-.322.847-.222.24-.4.666-.13.848.11.058.231.086.354.082.329.045.648.142.946.289.463.202.917.425 1.36.665-.065-.292-.054-.596.032-.883.101-.292.406-.458.703-.384.265.103.4.458.684.49.376.044.524-.518.367-.867-.156-.349-.47-.638-.494-1.022-.02-.256.078-.575-.125-.73-.072-.049-.154-.079-.24-.088-1.697-.313-3.396-.628-5.095-.943-.303-.057-.738-.014-.751.294-.008.175.146.347.078.505-.073.169-.31.155-.484.215-.267.122-.421.408-.378.7.046.284.155.554.319.789-.333-.14-.833-.164-1.165-.306-.048-.388-.147-.768-.292-1.131-.017-.117-.084-.22-.184-.282-.1-.062-.221-.077-.332-.04l-1.314.202c-.11.005-.215.046-.3.117-.17.183-.003.475-.008.725-.032.288-.242.523-.522.586-.275.057-.559.053-.832-.01l-1.838-.287c.542-.174 1.023-.499 1.39-.937.243-.29.372-.83.02-.965-.103-.03-.211-.038-.318-.025-.833.005-1.49-.695-2.268-.992-.244-.092-.503-.14-.765-.142l-.87 1.077zM155.948 86.771c-.195.265-.507.414-.833.4-.852-.075-1.211-1.317-2.055-1.457-.075-.02-.154-.012-.223.022-.125.069-.147.24-.155.382-.036.71-.066 1.449.21 2.104.4.958 1.437 1.762 1.219 2.778-1.17-.548-1.78-1.878-2.055-3.152-.278-1.275-.322-2.613-.817-3.82-.379.488-1.168.086-1.511-.426-.327-.485-.528-1.046-.844-1.54-.316-.49-.8-.93-1.377-.957-.607-.028-1.135.393-1.598.793-.403.3-.74.68-.994 1.118-.324.66-.24 1.437-.256 2.172-.016.793-.182 1.633-.718 2.216-.537.581-1.525.785-2.116.259-.285-.301-.489-.672-.59-1.077-.643-1.892-1.177-3.821-1.601-5.776-.098.446-.487 1.022-.857.76-.083-.071-.15-.16-.196-.259-.692-1.18-1.969-1.891-3.262-2.318-1.29-.424-2.648-.622-3.925-1.09-.716-.263-1.4-.608-2.039-1.027-.33.492-.368 1.128-.098 1.657.295.523.9.779 1.475.625.284-.093.523-.292.803-.39.28-.097.66-.05.782.225.12.262-.06.578.03.853.133.416.756.45.974.83.132.308.049.667-.204.886-.25.206-.527.379-.822.512-.915.515-1.565 1.393-2.366 2.076-.8.685-1.93 1.184-2.882.746.225-1.165-1.144-2.018-1.397-3.177-.084-.383-.04-.788-.158-1.16-.171-.54-.645-.908-1.032-1.315-.948-1.011-1.454-2.366-1.402-3.759.022-.479.11-.966 0-1.434-.106-.465-.49-.917-.963-.898-1.08.05-2.445.132-3.011-.8-.204-.334-.291-.821.003-1.077.232-.15.513-.198.781-.135l2.44.242c.568.055 1.183.102 1.673-.198s.703-1.102.248-1.457c-.33-.259-.923-.245-1.02-.655-.08-.344.296-.732.092-1.022-.145-.203-.471-.148-.67.006-.173.182-.362.349-.563.498-.39.204-.852.009-1.272-.124-.419-.132-.98-.143-1.181.251-.229.438.199 1.016-.025 1.456-.3.581-1.306.251-1.726.752-.479.573.327 1.432.167 2.164-.421.211-.92.183-1.315-.074-.388-.267-.6-.729-.55-1.2.038-.331.21-.67.095-.98-.123-.241-.327-.43-.574-.532-.79-.443-1.58-.885-2.369-1.324-.22.413.058.922.406 1.233.346.308.781.542 1.01.95.3.586.098 1.308-.463 1.646-.069.048-.156.064-.237.042-.076-.046-.13-.12-.152-.207-.417-1.082-1.045-2.147-2.047-2.712-1.005-.567-2.445-.449-3.104.501-.155.226-.26.485-.397.724-.721 1.27-2.273 1.87-3.721 1.831-.142.01-.283-.024-.406-.096-.234-.163-.223-.51-.188-.796l.153-1.211c.001-.247.095-.485.264-.664.27-.215.656-.08.999-.085.53-.024.989-.382 1.146-.895.14-.515-.013-1.066-.398-1.432-.155-.148-.364-.336-.283-.537.068-.112.18-.188.308-.209.612-.179 1.263-.226 1.865-.44.604-.212 1.19-.647 1.334-1.278.043-.193.062-.427.234-.523.086-.035.179-.054.272-.055.678-.098 1.17-.704 1.135-1.396.289-.204.694-.052.975.165.277.218.525.504.865.598.635.176 1.247-.394 1.906-.397.277 0 .563.1.822.003.264-.096.422-.36.623-.556.204-.198.558-.317.746-.105l-.16-1.192c.648.165 1.336.039 1.886-.347l-2.055-.702c-.072-.018-.139-.054-.193-.105-.15-.162 0-.415.12-.6.29-.443.34-1.173-.14-1.393-.326-.151-.7.03-1.012.207-.501.28-1.002.564-1.503.845-.046.289.302.454.517.647.269.24.363.623.237.963-.125.34-.444.567-.803.57.2.264.271.605.193.928l-1.01.075c-.113.022-.23-.001-.326-.066-.11-.097-.093-.268-.12-.41-.092-.35-.385-.61-.74-.653-.347-.04-.698-.007-1.032.096-.145.052-.304.048-.447-.01-.08-.055-.142-.134-.174-.227-.12-.384-.034-.803.229-1.106.261-.294.55-.562.86-.802.705-.623 1.222-1.434 1.495-2.34.555-.237 1.13-.556 1.687-.793.449-.21.92-.37 1.402-.476.455-.07.916-.093 1.375-.066.626.01 1.255.022 1.881.036.559-.024 1.117.057 1.647.24.515.214.97.68 1.005 1.24.021.13-.025.263-.123.35-.072.04-.154.06-.237.056-.52.016-.74.148-1.26.167.33.356.7.73 1.179.793.843.11 1.45-.773 1.84-1.541.029.406.373.715.776.696.208-.036.407-.115.585-.231 1.674-.926 3.55-1.416 5.458-1.426-.039-.303.155-.586.45-.656.388-.077.737.262.925.614.185.353.302.76.601 1.025.297.264.871.25.988-.13.115-.366-.264-.68-.577-.897-.315-.215-.645-.614-.433-.934 1.601-.36 3.215-.718 4.857-.79.279.009.557-.04.817-.143.264-.113.42-.392.38-.68-.732.173-1.495-.119-1.932-.738 1.685-.14 3.449-.264 5.069.118l1.418 1.217c-.27.284-.629.551-.433.835.131.132.315.195.498.173.343.006.686.014 1.027.014 7.04 6.812 11.375 15.994 12.184 25.814-.571-.022-1.097.71-1.023 1.35.087.74.615 1.335.993 1.974.063.103.12.211.169.322l-.052 1.817z"/>
        <circle cx="138" cy="67" r="4" fill="#3F3D56" fill-rule="nonzero"/>
        <circle cx="150" cy="54" r="5" fill="#FFF" fill-rule="nonzero"/>
        <path fill="#57B894" fill-rule="nonzero" d="M154.839 49.005c-2.833-2.72-7.369-2.665-10.131.123C141.945 51.917 138 66 138 66s14.201-4.232 16.964-7.02c2.763-2.789 2.707-7.255-.125-9.975zm-7.444 7.512c-.96-.923-1.263-2.326-.764-3.553.498-1.228 1.699-2.04 3.042-2.056 1.342-.016 2.563.766 3.092 1.98.53 1.216.263 2.625-.675 3.572-1.28 1.292-3.382 1.318-4.695.057z"/>
    </g>
</svg>
