<svg xmlns="http://www.w3.org/2000/svg" width="29" height="23">
    <path fill="#080D1B" fill-rule="evenodd" d="M27.362.815A11.49 11.49 0 0 1 23.736 2.2 5.692 5.692 0 0 0 19.571.398a5.706 5.706 0 0 0-5.561 7A16.206 16.206 0 0 1 2.246 1.44a5.668 5.668 0 0 0-.772 2.866 5.698 5.698 0 0 0 2.539 4.746 5.71 5.71 0 0 1-2.585-.716v.071a5.71 5.71 0 0 0 4.577 5.592 5.763 5.763 0 0 1-2.578.097 5.718 5.718 0 0 0 5.331 3.961 11.466 11.466 0 0 1-7.088 2.439c-.461 0-.915-.027-1.362-.078a16.173 16.173 0 0 0 8.749 2.561c10.498 0 16.239-8.688 16.239-16.223l-.019-.739A11.502 11.502 0 0 0 28.13 3.07a11.41 11.41 0 0 1-3.277.898A5.735 5.735 0 0 0 27.362.815z"/>
</svg>
